<?xml version="1.0" standalone="no"?>
<!DOCTYPE svg PUBLIC "-//W3C//DTD SVG 20010904//EN"
 "http://www.w3.org/TR/2001/REC-SVG-20010904/DTD/svg10.dtd">
<svg version="1.0" xmlns="http://www.w3.org/2000/svg"
 width="1224.000000pt" height="792.000000pt" viewBox="0 0 1224.000000 792.000000"
 preserveAspectRatio="xMidYMid meet">
<metadata>
Created by potrace 1.16, written by Peter Selinger 2001-2019
</metadata>
<g transform="translate(0.000000,792.000000) scale(0.100000,-0.100000)"
fill="#000000" stroke="none">
<path d="M3018 5726 c-102 -27 -176 -107 -198 -211 -7 -35 -10 -207 -8 -511 3
-511 1 -493 74 -574 21 -23 56 -51 78 -63 40 -22 48 -22 569 -25 l527 -3 0
141 0 140 -461 0 c-298 0 -467 4 -480 10 -18 10 -19 25 -19 403 0 292 3 396
12 405 9 9 129 12 480 12 l468 0 0 145 c0 165 1 164 -80 123 -57 -30 -78 -61
-89 -128 -10 -61 -36 -90 -80 -90 -36 0 -71 38 -71 76 0 53 -40 117 -90 142
-43 21 -53 22 -315 21 -184 0 -285 -4 -317 -13z"/>
<path d="M4175 5727 c-3 -7 -4 -71 -3 -143 l3 -129 473 -5 c406 -4 474 -7 482
-20 13 -20 13 -210 0 -230 -8 -13 -65 -16 -377 -20 -348 -5 -370 -6 -414 -26
-58 -27 -116 -85 -143 -143 -19 -42 -21 -63 -21 -251 0 -193 1 -208 23 -255
32 -69 86 -121 149 -145 48 -18 78 -20 289 -20 197 0 242 3 270 16 46 22 73
63 83 124 10 62 34 90 76 90 48 0 66 -20 76 -81 10 -60 30 -93 79 -126 l33
-23 652 0 c728 0 706 -2 788 70 25 23 54 62 68 92 23 50 24 64 24 248 0 162
-3 204 -18 247 -22 63 -82 127 -145 156 -45 21 -63 22 -407 25 -312 3 -362 5
-377 19 -15 13 -18 33 -18 117 0 56 5 108 10 116 8 13 76 16 482 20 l473 5 0
140 c0 160 -2 163 -80 125 -51 -25 -81 -68 -91 -130 -11 -71 -54 -105 -109
-84 -21 9 -45 56 -45 92 0 34 -33 86 -73 116 -27 20 -43 21 -305 24 -341 4
-378 -3 -458 -82 -76 -76 -84 -110 -84 -341 0 -228 9 -265 80 -335 77 -78 90
-80 490 -80 297 0 349 -2 368 -16 20 -14 22 -23 22 -124 0 -85 -3 -112 -16
-124 -13 -14 -54 -16 -297 -16 -261 0 -283 -1 -321 -20 -53 -26 -74 -56 -86
-122 -10 -56 -44 -98 -79 -98 -28 0 -71 39 -71 63 0 78 -49 151 -113 168 -23
6 -52 15 -64 19 l-22 9 -3 438 c-3 437 -3 438 -27 491 -27 61 -105 135 -159
154 -56 19 -1060 24 -1067 5z m935 -840 c24 -12 25 -17 28 -121 2 -91 0 -112
-14 -127 -16 -18 -37 -19 -325 -19 -266 0 -310 2 -323 16 -13 12 -16 39 -16
124 0 101 2 110 22 124 19 14 66 16 313 16 213 0 297 -4 315 -13z"/>
<path d="M5695 4221 c-41 -10 -87 -35 -107 -58 -49 -54 -48 -30 -48 -998 l0
-906 138 3 137 3 5 376 c5 353 6 378 24 398 25 27 77 28 101 1 10 -11 22 -42
26 -70 9 -59 38 -103 82 -128 28 -15 68 -17 287 -20 294 -4 344 2 393 52 56
55 57 68 57 602 0 422 -2 496 -16 546 -22 76 -83 146 -156 179 -53 24 -54 24
-473 26 -231 1 -433 -2 -450 -6z m789 -297 c14 -13 16 -64 16 -403 0 -288 -3
-390 -12 -399 -9 -9 -95 -12 -324 -12 -271 0 -315 2 -328 16 -14 13 -16 63
-16 396 0 341 2 383 17 400 15 17 38 18 324 18 266 0 310 -2 323 -16z"/>
<path d="M7140 4220 c-99 -18 -160 -60 -206 -142 l-29 -53 0 -547 c0 -536 0
-547 21 -574 29 -40 65 -64 110 -74 22 -6 456 -10 992 -10 l952 0 0 145 0 145
-98 0 c-63 0 -102 4 -110 12 -9 9 -12 113 -12 405 0 378 1 393 19 403 12 6
109 10 245 10 l226 0 0 146 0 147 -113 -5 c-90 -3 -121 -8 -148 -24 -45 -27
-75 -73 -84 -129 -8 -55 -34 -85 -73 -85 -46 0 -69 24 -76 78 -8 60 -39 109
-86 136 -32 19 -51 21 -220 21 l-185 0 -3 -142 -3 -143 90 0 c68 0 93 -4 105
-16 14 -13 16 -64 16 -399 0 -435 4 -415 -79 -415 -96 0 -181 -78 -181 -165 0
-20 -8 -39 -23 -53 -51 -48 -127 -8 -127 66 0 44 -29 93 -73 126 -27 20 -41
21 -400 24 -325 3 -374 5 -389 19 -27 24 -26 212 0 236 16 15 68 17 483 19
l464 3 0 305 c0 276 -2 310 -19 354 -25 66 -84 128 -149 157 -51 24 -57 24
-422 26 -203 1 -390 -2 -415 -7z m704 -296 c20 -20 23 -223 4 -242 -9 -9 -94
-12 -322 -12 -274 0 -312 2 -328 17 -15 13 -18 32 -18 112 0 153 -28 141 340
141 267 0 311 -2 324 -16z"/>
</g>
</svg>
