<?xml version="1.0" encoding="UTF-8"?>
<svg id="Layer_1" xmlns="http://www.w3.org/2000/svg" viewBox="0 0 136.06 56.69">
  <path d="M33.15,12.6h6.13c.65,0,1.18-.53,1.18-1.18v-4.71c0-.65-.53-1.18-1.18-1.18h-1.93c-.62,0-1.13-.51-1.13-1.13v-1.93c0-.65-.53-1.18-1.18-1.18h-16.97c-.65,0-1.18.53-1.18,1.18v1.93c0,.62-.51,1.13-1.13,1.13h-1.93c-.65,0-1.18.53-1.18,1.18v1.93c0,.62-.51,1.13-1.13,1.13h-1.93c-.65,0-1.18.53-1.18,1.18,0,0-.28.7-.28,14.07,0,11.96.28,13.26.28,13.26,0,.65.53,1.18,1.18,1.18h1.93c.62,0,1.13.51,1.13,1.13v1.98c0,.62.51,1.13,1.13,1.13h1.98c.62,0,1.13.51,1.13,1.13v1.93c0,.65.53,1.18,1.18,1.18h16.97c.65,0,1.18-.53,1.18-1.18v-1.93c0-.62.51-1.13,1.13-1.13h3.12c.65,0,1.18-.53,1.18-1.18v-5.62c0-.65-.53-1.18-1.18-1.18h-7.32c-.65,0-1.18.53-1.18,1.18v2.84c0,.62-.51,1.13-1.13,1.13h-8.58c-.62,0-1.13-.51-1.13-1.13v-2.88c0-.65-.53-1.18-1.18-1.18h-2.88c-.62,0-.98.09-1.13-1.13-.05-.39-.07-.87-.11-1.52-.09-1.62-.17-3.33-.17-8.19,0-6.8.18-10.17.28-11.12s.51-1.13,1.13-1.13h2.88c.65,0,1.18-.53,1.18-1.18v-1.93c0-.62.51-1.13,1.13-1.13h8.58c.62,0,1.13.51,1.13,1.13v1.93c0,.65.53,1.18,1.18,1.18Z"/>
  <path d="M11.77,46.57h-1.39c-.27,0-.49-.22-.49-.49v-1.39c0-.54-.44-.98-.98-.98h-3.76c-.54,0-.98.44-.98.98v1.39c0,.27-.22.49-.49.49h-1.39c-.54,0-.98.44-.98.98v3.76c0,.54.44.98.98.98h1.39c.27,0,.49.22.49.49v1.39c0,.54.44.98.98.98h3.76c.54,0,.98-.44.98-.98v-1.39c0-.27.22-.49.49-.49h1.39c.54,0,.98-.44.98-.98v-3.76c0-.54-.44-.98-.98-.98Z"/>
  <path d="M133.63,22.5h-1.04c-.62,0-1.13-.51-1.13-1.13v-1.98c0-.62-.51-1.13-1.13-1.13h-1.98c-.62,0-1.13-.51-1.13-1.13v-1.98c0-.62-.51-1.13-1.13-1.13h-12.72c-.62,0-1.13.51-1.13,1.13v2.4c0,.31-.25.57-.57.57h-2.16c-.31,0-.51-.19-.57-.57l-.38-2.37c-.09-.66-.41-1.08-1.08-1.08l-2.22-.08h-1.25c-1.25,0-2.26,1.01-2.26,2.26v22.35c0,1.25-1.01,2.26-2.26,2.26h-5.09c-.62,0-1.13-.51-1.13-1.13v-16.25c0-7.16-4.53-11.38-13.68-11.38-8.32,0-12.33,3.05-12.86,8.74-.07.7.33,1.1,1.03,1.1l4.71.34c.69.06.97-.33,1.1-1,.47-2.26,2.53-3.53,6.03-3.53,4.29,0,6.09,2.03,6.09,5.49v1.83c0,.62-.51,1.13-1.13,1.13h-.21s-5.89-.01-5.89-.01c-9.35,0-13.94,3.62-13.94,10.87,0,2.3.47,4.27,1.37,5.89h-.36c-1.07-.77-1.49-1.35-1.85-1.77-.16-.18-.4-.33-.82-.33h-1.04s-3.63,0-3.63,0h-1.98c-1.25,0-2.26-1.01-2.26-2.26V2.36c0-.67-.4-1.07-1.08-1.07h-5.11c-.62,0-1.13.45-1.13,1.07l-.02,32.87v8.2c0,2.5,2.03,4.53,4.53,4.53h30.84c5.13-.26,5.22-2.07,5.72-2.75.39,2.16,1.13,2.63,2.86,2.73,4.94.07,11.13.02,11.22.02h3.02c2.5,0,4.05-2.03,4.05-4.53l.47-16.5c0-.62.51-1.13,1.13-1.13h1.23c.52,0,.94-.42.94-.94v-2.17c0-.62.51-1.13,1.13-1.13h7.2c1.13,0,2.04.91,2.04,2.04v1.97c0,.65.53,1.18,1.18,1.18h2.5c.31,0,.57.25.57.57v19.52c0,.62.51,1.13,1.13,1.13h4.15c1.25,0,2.26-1.01,2.26-2.26v-22.07c0-.62-.51-1.13-1.13-1.13ZM86.01,34.11c0,5.4-3.72,8.91-9.3,8.91-4.01,0-5.94-1.79-5.94-5.3,0-3.9,2.33-5.83,7.05-5.83h8.19v2.22Z"/>
</svg>