<?xml version="1.0" encoding="UTF-8"?>
<svg xmlns="http://www.w3.org/2000/svg" xmlns:xlink="http://www.w3.org/1999/xlink" width="347.031" height="102.538" viewBox="0 0 347.031 102.538">
<path fill-rule="nonzero" fill="rgb(13.729858%, 12.159729%, 12.548828%)" fill-opacity="1" d="M 114.871094 72.734375 C 116.648438 72.734375 117.507812 73.421875 117.886719 74.730469 C 117.921875 74.84375 117.898438 74.878906 117.796875 74.925781 L 117.578125 74.992188 C 117.476562 75.015625 117.429688 75.003906 117.382812 74.902344 C 117.039062 73.769531 116.363281 73.230469 114.871094 73.230469 C 113.1875 73.230469 112.328125 74.101562 112.328125 75.542969 L 112.328125 78.375 C 112.328125 79.808594 113.210938 80.703125 114.871094 80.703125 C 116.410156 80.703125 117.074219 80.105469 117.417969 78.972656 C 117.453125 78.867188 117.496094 78.84375 117.601562 78.878906 L 117.820312 78.960938 C 117.921875 78.992188 117.957031 79.039062 117.910156 79.140625 C 117.53125 80.449219 116.707031 81.195312 114.871094 81.195312 C 112.890625 81.195312 111.789062 80.117188 111.789062 78.363281 L 111.789062 75.554688 C 111.789062 73.8125 112.855469 72.734375 114.871094 72.734375 "/>
<path fill-rule="nonzero" fill="rgb(13.729858%, 12.159729%, 12.548828%)" fill-opacity="1" d="M 125.277344 73.046875 L 122.183594 77.6875 L 122.183594 80.886719 C 122.183594 81 122.148438 81.035156 122.035156 81.035156 L 121.792969 81.035156 C 121.691406 81.035156 121.65625 81 121.65625 80.886719 L 121.65625 77.675781 L 118.558594 73.046875 C 118.515625 72.964844 118.539062 72.894531 118.640625 72.894531 L 118.9375 72.894531 C 119.097656 72.894531 119.144531 72.90625 119.214844 73.023438 L 121.929688 77.136719 L 124.648438 73.023438 C 124.714844 72.90625 124.75 72.894531 124.921875 72.894531 L 125.195312 72.894531 C 125.3125 72.894531 125.324219 72.964844 125.277344 73.046875 "/>
<path fill-rule="nonzero" fill="rgb(13.729858%, 12.159729%, 12.548828%)" fill-opacity="1" d="M 130.109375 77.125 L 127.109375 77.125 L 127.109375 80.542969 L 130.109375 80.542969 C 131.222656 80.542969 131.863281 79.945312 131.863281 78.820312 C 131.863281 77.722656 131.222656 77.125 130.109375 77.125 M 129.925781 73.390625 L 127.109375 73.390625 L 127.109375 76.644531 L 129.925781 76.644531 C 130.992188 76.644531 131.589844 76.09375 131.589844 75.003906 C 131.589844 73.9375 131.003906 73.390625 129.925781 73.390625 M 132.140625 74.949219 C 132.140625 75.921875 131.714844 76.550781 130.949219 76.828125 L 130.949219 76.851562 C 131.886719 77.058594 132.414062 77.746094 132.414062 78.867188 C 132.414062 80.265625 131.53125 81.035156 130.132812 81.035156 L 126.730469 81.035156 C 126.613281 81.035156 126.582031 81 126.582031 80.882812 L 126.582031 73.046875 C 126.582031 72.929688 126.613281 72.898438 126.730469 72.898438 L 129.984375 72.898438 C 131.347656 72.898438 132.140625 73.617188 132.140625 74.949219 "/>
<path fill-rule="nonzero" fill="rgb(13.729858%, 12.159729%, 12.548828%)" fill-opacity="1" d="M 139.058594 73.046875 L 139.058594 73.25 C 139.058594 73.355469 139.023438 73.390625 138.910156 73.390625 L 134.609375 73.390625 L 134.609375 76.667969 L 138.417969 76.667969 C 138.519531 76.667969 138.554688 76.699219 138.554688 76.804688 L 138.554688 77.011719 C 138.554688 77.125 138.519531 77.160156 138.417969 77.160156 L 134.609375 77.160156 L 134.609375 80.539062 L 139.070312 80.539062 C 139.171875 80.539062 139.21875 80.574219 139.21875 80.679688 L 139.21875 80.886719 C 139.21875 81 139.171875 81.035156 139.070312 81.035156 L 134.234375 81.035156 C 134.117188 81.035156 134.085938 81 134.085938 80.886719 L 134.085938 73.046875 C 134.085938 72.929688 134.117188 72.894531 134.234375 72.894531 L 138.910156 72.894531 C 139.023438 72.894531 139.058594 72.929688 139.058594 73.046875 "/>
<path fill-rule="nonzero" fill="rgb(13.729858%, 12.159729%, 12.548828%)" fill-opacity="1" d="M 144.167969 73.390625 L 141.3125 73.390625 L 141.3125 76.964844 L 144.167969 76.964844 C 145.3125 76.964844 146 76.335938 146 75.1875 C 146 74.042969 145.335938 73.390625 144.167969 73.390625 M 146.550781 75.1875 C 146.550781 76.507812 145.773438 77.296875 144.523438 77.402344 C 144.96875 77.585938 145.222656 77.871094 145.472656 78.339844 L 146.757812 80.882812 C 146.816406 80.964844 146.792969 81.035156 146.679688 81.035156 L 146.460938 81.035156 C 146.277344 81.035156 146.21875 81.011719 146.171875 80.90625 L 144.980469 78.546875 C 144.601562 77.789062 144.167969 77.457031 143.203125 77.457031 L 141.3125 77.457031 L 141.3125 80.882812 C 141.3125 81 141.28125 81.035156 141.175781 81.035156 L 140.933594 81.035156 C 140.820312 81.035156 140.785156 81 140.785156 80.882812 L 140.785156 73.046875 C 140.785156 72.929688 140.820312 72.898438 140.933594 72.898438 L 144.214844 72.898438 C 145.667969 72.898438 146.550781 73.734375 146.550781 75.1875 "/>
<path fill-rule="nonzero" fill="rgb(13.729858%, 12.159729%, 12.548828%)" fill-opacity="1" d="M 151.234375 80.703125 C 152.921875 80.703125 153.734375 79.75 153.734375 78.269531 L 153.734375 73.046875 C 153.734375 72.929688 153.769531 72.898438 153.871094 72.898438 L 154.113281 72.898438 C 154.226562 72.898438 154.261719 72.929688 154.261719 73.046875 L 154.261719 78.269531 C 154.261719 80.046875 153.265625 81.195312 151.234375 81.195312 C 149.21875 81.195312 148.222656 80.046875 148.222656 78.269531 L 148.222656 73.046875 C 148.222656 72.929688 148.257812 72.898438 148.371094 72.898438 L 148.609375 72.898438 C 148.714844 72.898438 148.75 72.929688 148.75 73.046875 L 148.75 78.269531 C 148.75 79.75 149.5625 80.703125 151.234375 80.703125 "/>
<path fill-rule="nonzero" fill="rgb(13.729858%, 12.159729%, 12.548828%)" fill-opacity="1" d="M 158.820312 72.734375 C 160.367188 72.734375 161.226562 73.296875 161.835938 74.511719 C 161.878906 74.617188 161.855469 74.671875 161.753906 74.707031 L 161.535156 74.8125 C 161.433594 74.84375 161.398438 74.84375 161.339844 74.742188 C 160.824219 73.722656 160.105469 73.238281 158.820312 73.238281 C 157.351562 73.238281 156.480469 73.882812 156.480469 74.980469 C 156.480469 76.449219 157.753906 76.550781 159.046875 76.691406 C 160.449219 76.851562 161.902344 77.171875 161.902344 78.855469 C 161.902344 80.347656 160.871094 81.195312 158.878906 81.195312 C 157.273438 81.195312 156.34375 80.554688 155.792969 79.1875 C 155.75 79.074219 155.773438 79.027344 155.875 78.980469 L 156.09375 78.902344 C 156.195312 78.867188 156.242188 78.878906 156.289062 78.992188 C 156.789062 80.152344 157.59375 80.691406 158.878906 80.691406 C 160.539062 80.691406 161.375 80.09375 161.375 78.878906 C 161.375 77.527344 160.183594 77.355469 158.933594 77.207031 C 157.515625 77.035156 155.941406 76.792969 155.941406 75.015625 C 155.941406 73.617188 157.007812 72.734375 158.820312 72.734375 "/>
<path fill-rule="nonzero" fill="rgb(13.729858%, 12.159729%, 12.548828%)" fill-opacity="1" d="M 171.238281 73.046875 L 171.238281 73.25 C 171.238281 73.355469 171.203125 73.390625 171.089844 73.390625 L 168.605469 73.390625 L 168.605469 80.886719 C 168.605469 81 168.570312 81.035156 168.453125 81.035156 L 168.214844 81.035156 C 168.109375 81.035156 168.074219 81 168.074219 80.886719 L 168.074219 73.390625 L 165.589844 73.390625 C 165.476562 73.390625 165.441406 73.355469 165.441406 73.25 L 165.441406 73.046875 C 165.441406 72.929688 165.476562 72.894531 165.589844 72.894531 L 171.089844 72.894531 C 171.203125 72.894531 171.238281 72.929688 171.238281 73.046875 "/>
<path fill-rule="nonzero" fill="rgb(13.729858%, 12.159729%, 12.548828%)" fill-opacity="1" d="M 177.472656 73.046875 L 177.472656 73.25 C 177.472656 73.355469 177.4375 73.390625 177.324219 73.390625 L 173.023438 73.390625 L 173.023438 76.667969 L 176.828125 76.667969 C 176.933594 76.667969 176.96875 76.699219 176.96875 76.804688 L 176.96875 77.011719 C 176.96875 77.125 176.933594 77.160156 176.828125 77.160156 L 173.023438 77.160156 L 173.023438 80.539062 L 177.484375 80.539062 C 177.585938 80.539062 177.632812 80.574219 177.632812 80.679688 L 177.632812 80.886719 C 177.632812 81 177.585938 81.035156 177.484375 81.035156 L 172.648438 81.035156 C 172.53125 81.035156 172.5 81 172.5 80.886719 L 172.5 73.046875 C 172.5 72.929688 172.53125 72.894531 172.648438 72.894531 L 177.324219 72.894531 C 177.4375 72.894531 177.472656 72.929688 177.472656 73.046875 "/>
<path fill-rule="nonzero" fill="rgb(13.729858%, 12.159729%, 12.548828%)" fill-opacity="1" d="M 181.984375 72.734375 C 183.761719 72.734375 184.621094 73.421875 185 74.730469 C 185.035156 74.84375 185.011719 74.878906 184.90625 74.925781 L 184.691406 74.992188 C 184.585938 75.015625 184.542969 75.003906 184.496094 74.902344 C 184.152344 73.769531 183.476562 73.230469 181.984375 73.230469 C 180.300781 73.230469 179.441406 74.101562 179.441406 75.542969 L 179.441406 78.375 C 179.441406 79.808594 180.324219 80.703125 181.984375 80.703125 C 183.519531 80.703125 184.183594 80.105469 184.53125 78.972656 C 184.5625 78.867188 184.609375 78.84375 184.710938 78.878906 L 184.929688 78.960938 C 185.035156 78.992188 185.066406 79.039062 185.023438 79.140625 C 184.644531 80.449219 183.820312 81.195312 181.984375 81.195312 C 180.003906 81.195312 178.902344 80.117188 178.902344 78.363281 L 178.902344 75.554688 C 178.902344 73.8125 179.96875 72.734375 181.984375 72.734375 "/>
<path fill-rule="nonzero" fill="rgb(13.729858%, 12.159729%, 12.548828%)" fill-opacity="1" d="M 192.480469 73.046875 L 192.480469 80.886719 C 192.480469 81 192.445312 81.035156 192.332031 81.035156 L 192.089844 81.035156 C 191.988281 81.035156 191.953125 81 191.953125 80.886719 L 191.953125 77.160156 L 187.105469 77.160156 L 187.105469 80.886719 C 187.105469 81 187.070312 81.035156 186.96875 81.035156 L 186.726562 81.035156 C 186.613281 81.035156 186.578125 81 186.578125 80.886719 L 186.578125 73.046875 C 186.578125 72.929688 186.613281 72.894531 186.726562 72.894531 L 186.96875 72.894531 C 187.070312 72.894531 187.105469 72.929688 187.105469 73.046875 L 187.105469 76.667969 L 191.953125 76.667969 L 191.953125 73.046875 C 191.953125 72.929688 191.988281 72.894531 192.089844 72.894531 L 192.332031 72.894531 C 192.445312 72.894531 192.480469 72.929688 192.480469 73.046875 "/>
<path fill-rule="nonzero" fill="rgb(13.729858%, 12.159729%, 12.548828%)" fill-opacity="1" d="M 200.535156 73.046875 L 200.535156 80.886719 C 200.535156 81 200.5 81.035156 200.386719 81.035156 L 200.15625 81.035156 C 200.078125 81.035156 200.054688 81.023438 199.996094 80.941406 L 195.949219 75.144531 C 195.570312 74.605469 195.238281 74.101562 195 73.652344 L 194.976562 73.652344 C 195.019531 74.191406 195.042969 74.820312 195.042969 75.542969 L 195.042969 80.886719 C 195.042969 81 195.011719 81.035156 194.90625 81.035156 L 194.679688 81.035156 C 194.5625 81.035156 194.527344 81 194.527344 80.886719 L 194.527344 73.046875 C 194.527344 72.929688 194.5625 72.894531 194.679688 72.894531 L 194.90625 72.894531 C 195 72.894531 195.042969 72.941406 195.066406 72.976562 L 199 78.628906 C 199.421875 79.234375 199.800781 79.875 200.066406 80.265625 L 200.097656 80.265625 C 200.042969 79.636719 200.019531 78.992188 200.019531 78.203125 L 200.019531 73.035156 C 200.019531 72.929688 200.054688 72.894531 200.15625 72.894531 L 200.386719 72.894531 C 200.5 72.894531 200.535156 72.929688 200.535156 73.046875 "/>
<path fill-rule="nonzero" fill="rgb(13.729858%, 12.159729%, 12.548828%)" fill-opacity="1" d="M 205.4375 73.230469 C 203.761719 73.230469 202.867188 74.101562 202.867188 75.566406 L 202.867188 78.363281 C 202.867188 79.828125 203.761719 80.699219 205.4375 80.699219 C 207.085938 80.699219 207.980469 79.828125 207.980469 78.363281 L 207.980469 75.566406 C 207.980469 74.101562 207.085938 73.230469 205.4375 73.230469 M 205.4375 72.734375 C 207.441406 72.734375 208.519531 73.8125 208.519531 75.566406 L 208.519531 78.363281 C 208.519531 80.117188 207.441406 81.195312 205.4375 81.195312 C 203.417969 81.195312 202.339844 80.117188 202.339844 78.363281 L 202.339844 75.566406 C 202.339844 73.8125 203.417969 72.734375 205.4375 72.734375 "/>
<path fill-rule="nonzero" fill="rgb(13.729858%, 12.159729%, 12.548828%)" fill-opacity="1" d="M 210.84375 73.046875 L 210.84375 80.539062 L 215.015625 80.539062 C 215.117188 80.539062 215.152344 80.574219 215.152344 80.679688 L 215.152344 80.886719 C 215.152344 81 215.117188 81.035156 215.015625 81.035156 L 210.464844 81.035156 C 210.351562 81.035156 210.316406 81 210.316406 80.886719 L 210.316406 73.046875 C 210.316406 72.929688 210.351562 72.894531 210.464844 72.894531 L 210.707031 72.894531 C 210.808594 72.894531 210.84375 72.929688 210.84375 73.046875 "/>
<path fill-rule="nonzero" fill="rgb(13.729858%, 12.159729%, 12.548828%)" fill-opacity="1" d="M 219.128906 73.230469 C 217.453125 73.230469 216.558594 74.101562 216.558594 75.566406 L 216.558594 78.363281 C 216.558594 79.828125 217.453125 80.699219 219.128906 80.699219 C 220.777344 80.699219 221.671875 79.828125 221.671875 78.363281 L 221.671875 75.566406 C 221.671875 74.101562 220.777344 73.230469 219.128906 73.230469 M 219.128906 72.734375 C 221.132812 72.734375 222.210938 73.8125 222.210938 75.566406 L 222.210938 78.363281 C 222.210938 80.117188 221.132812 81.195312 219.128906 81.195312 C 217.109375 81.195312 216.03125 80.117188 216.03125 78.363281 L 216.03125 75.566406 C 216.03125 73.8125 217.109375 72.734375 219.128906 72.734375 "/>
<path fill-rule="nonzero" fill="rgb(13.729858%, 12.159729%, 12.548828%)" fill-opacity="1" d="M 229.941406 77.089844 L 229.941406 78.433594 C 229.941406 80.105469 228.867188 81.195312 226.859375 81.195312 C 224.84375 81.195312 223.765625 80.105469 223.765625 78.351562 L 223.765625 75.554688 C 223.765625 73.8125 224.832031 72.734375 226.847656 72.734375 C 228.625 72.734375 229.484375 73.421875 229.863281 74.730469 C 229.898438 74.84375 229.875 74.878906 229.769531 74.925781 L 229.554688 74.992188 C 229.449219 75.027344 229.40625 75.003906 229.359375 74.902344 C 229.015625 73.765625 228.339844 73.230469 226.847656 73.230469 C 225.140625 73.230469 224.292969 74.101562 224.292969 75.542969 L 224.292969 78.351562 C 224.292969 79.820312 225.1875 80.699219 226.859375 80.699219 C 228.523438 80.699219 229.414062 79.820312 229.414062 78.433594 L 229.414062 77.433594 L 226.964844 77.433594 C 226.859375 77.433594 226.824219 77.390625 226.824219 77.285156 L 226.824219 77.078125 C 226.824219 76.976562 226.859375 76.929688 226.964844 76.929688 L 229.78125 76.929688 C 229.910156 76.929688 229.941406 76.976562 229.941406 77.089844 "/>
<path fill-rule="nonzero" fill="rgb(13.729858%, 12.159729%, 12.548828%)" fill-opacity="1" d="M 237.296875 73.046875 L 234.203125 77.6875 L 234.203125 80.886719 C 234.203125 81 234.167969 81.035156 234.054688 81.035156 L 233.8125 81.035156 C 233.710938 81.035156 233.675781 81 233.675781 80.886719 L 233.675781 77.675781 L 230.582031 73.046875 C 230.535156 72.964844 230.558594 72.894531 230.664062 72.894531 L 230.960938 72.894531 C 231.121094 72.894531 231.167969 72.90625 231.234375 73.023438 L 233.953125 77.136719 L 236.667969 73.023438 C 236.738281 72.90625 236.769531 72.894531 236.941406 72.894531 L 237.21875 72.894531 C 237.332031 72.894531 237.34375 72.964844 237.296875 73.046875 "/>
<path fill-rule="nonzero" fill="rgb(13.729858%, 12.159729%, 12.548828%)" fill-opacity="1" d="M 244.539062 73.390625 L 241.683594 73.390625 L 241.683594 76.964844 L 244.539062 76.964844 C 245.683594 76.964844 246.371094 76.335938 246.371094 75.1875 C 246.371094 74.042969 245.707031 73.390625 244.539062 73.390625 M 246.921875 75.1875 C 246.921875 76.507812 246.140625 77.296875 244.894531 77.402344 C 245.339844 77.585938 245.589844 77.871094 245.84375 78.339844 L 247.128906 80.882812 C 247.1875 80.964844 247.164062 81.035156 247.046875 81.035156 L 246.832031 81.035156 C 246.644531 81.035156 246.589844 81.011719 246.542969 80.90625 L 245.351562 78.546875 C 244.972656 77.789062 244.539062 77.457031 243.574219 77.457031 L 241.683594 77.457031 L 241.683594 80.882812 C 241.683594 81 241.648438 81.035156 241.546875 81.035156 L 241.304688 81.035156 C 241.191406 81.035156 241.15625 81 241.15625 80.882812 L 241.15625 73.046875 C 241.15625 72.929688 241.191406 72.898438 241.304688 72.898438 L 244.582031 72.898438 C 246.039062 72.898438 246.921875 73.734375 246.921875 75.1875 "/>
<path fill-rule="nonzero" fill="rgb(13.729858%, 12.159729%, 12.548828%)" fill-opacity="1" d="M 253.636719 73.046875 L 253.636719 73.25 C 253.636719 73.355469 253.601562 73.390625 253.484375 73.390625 L 249.1875 73.390625 L 249.1875 76.667969 L 252.992188 76.667969 C 253.097656 76.667969 253.132812 76.699219 253.132812 76.804688 L 253.132812 77.011719 C 253.132812 77.125 253.097656 77.160156 252.992188 77.160156 L 249.1875 77.160156 L 249.1875 80.539062 L 253.648438 80.539062 C 253.75 80.539062 253.796875 80.574219 253.796875 80.679688 L 253.796875 80.886719 C 253.796875 81 253.75 81.035156 253.648438 81.035156 L 248.808594 81.035156 C 248.695312 81.035156 248.660156 81 248.660156 80.886719 L 248.660156 73.046875 C 248.660156 72.929688 248.695312 72.894531 248.808594 72.894531 L 253.484375 72.894531 C 253.601562 72.894531 253.636719 72.929688 253.636719 73.046875 "/>
<path fill-rule="nonzero" fill="rgb(13.729858%, 12.159729%, 12.548828%)" fill-opacity="1" d="M 257.941406 72.734375 C 259.488281 72.734375 260.347656 73.296875 260.957031 74.511719 C 261 74.617188 260.980469 74.671875 260.875 74.707031 L 260.65625 74.8125 C 260.554688 74.84375 260.519531 74.84375 260.464844 74.742188 C 259.949219 73.722656 259.226562 73.238281 257.941406 73.238281 C 256.472656 73.238281 255.605469 73.882812 255.605469 74.980469 C 255.605469 76.449219 256.875 76.550781 258.171875 76.691406 C 259.570312 76.851562 261.023438 77.171875 261.023438 78.855469 C 261.023438 80.347656 259.992188 81.195312 258 81.195312 C 256.394531 81.195312 255.464844 80.554688 254.914062 79.1875 C 254.871094 79.074219 254.894531 79.027344 254.996094 78.980469 L 255.214844 78.902344 C 255.316406 78.867188 255.363281 78.878906 255.410156 78.992188 C 255.914062 80.152344 256.714844 80.691406 258 80.691406 C 259.660156 80.691406 260.496094 80.09375 260.496094 78.878906 C 260.496094 77.527344 259.304688 77.355469 258.054688 77.207031 C 256.636719 77.035156 255.0625 76.792969 255.0625 75.015625 C 255.0625 73.617188 256.128906 72.734375 257.941406 72.734375 "/>
<path fill-rule="nonzero" fill="rgb(13.729858%, 12.159729%, 12.548828%)" fill-opacity="1" d="M 262.808594 72.898438 L 263.050781 72.898438 C 263.152344 72.898438 263.1875 72.929688 263.1875 73.046875 L 263.1875 80.882812 C 263.1875 81 263.152344 81.035156 263.050781 81.035156 L 262.808594 81.035156 C 262.695312 81.035156 262.660156 81 262.660156 80.882812 L 262.660156 73.046875 C 262.660156 72.929688 262.695312 72.898438 262.808594 72.898438 "/>
<path fill-rule="nonzero" fill="rgb(13.729858%, 12.159729%, 12.548828%)" fill-opacity="1" d="M 265.765625 73.046875 L 265.765625 80.539062 L 269.9375 80.539062 C 270.039062 80.539062 270.074219 80.574219 270.074219 80.679688 L 270.074219 80.886719 C 270.074219 81 270.039062 81.035156 269.9375 81.035156 L 265.386719 81.035156 C 265.273438 81.035156 265.238281 81 265.238281 80.886719 L 265.238281 73.046875 C 265.238281 72.929688 265.273438 72.894531 265.386719 72.894531 L 265.628906 72.894531 C 265.730469 72.894531 265.765625 72.929688 265.765625 73.046875 "/>
<path fill-rule="nonzero" fill="rgb(13.729858%, 12.159729%, 12.548828%)" fill-opacity="1" d="M 271.492188 72.898438 L 271.734375 72.898438 C 271.835938 72.898438 271.871094 72.929688 271.871094 73.046875 L 271.871094 80.882812 C 271.871094 81 271.835938 81.035156 271.734375 81.035156 L 271.492188 81.035156 C 271.378906 81.035156 271.34375 81 271.34375 80.882812 L 271.34375 73.046875 C 271.34375 72.929688 271.378906 72.898438 271.492188 72.898438 "/>
<path fill-rule="nonzero" fill="rgb(13.729858%, 12.159729%, 12.548828%)" fill-opacity="1" d="M 278.894531 73.046875 L 278.894531 73.25 C 278.894531 73.355469 278.863281 73.390625 278.746094 73.390625 L 274.449219 73.390625 L 274.449219 76.667969 L 278.253906 76.667969 C 278.359375 76.667969 278.390625 76.699219 278.390625 76.804688 L 278.390625 77.011719 C 278.390625 77.125 278.359375 77.160156 278.253906 77.160156 L 274.449219 77.160156 L 274.449219 80.539062 L 278.910156 80.539062 C 279.011719 80.539062 279.054688 80.574219 279.054688 80.679688 L 279.054688 80.886719 C 279.054688 81 279.011719 81.035156 278.910156 81.035156 L 274.070312 81.035156 C 273.957031 81.035156 273.921875 81 273.921875 80.886719 L 273.921875 73.046875 C 273.921875 72.929688 273.957031 72.894531 274.070312 72.894531 L 278.746094 72.894531 C 278.863281 72.894531 278.894531 72.929688 278.894531 73.046875 "/>
<path fill-rule="nonzero" fill="rgb(13.729858%, 12.159729%, 12.548828%)" fill-opacity="1" d="M 286.628906 73.046875 L 286.628906 80.886719 C 286.628906 81 286.59375 81.035156 286.480469 81.035156 L 286.25 81.035156 C 286.171875 81.035156 286.148438 81.023438 286.089844 80.941406 L 282.046875 75.144531 C 281.667969 74.605469 281.335938 74.101562 281.09375 73.652344 L 281.070312 73.652344 C 281.117188 74.191406 281.140625 74.820312 281.140625 75.542969 L 281.140625 80.886719 C 281.140625 81 281.105469 81.035156 281.003906 81.035156 L 280.773438 81.035156 C 280.660156 81.035156 280.625 81 280.625 80.886719 L 280.625 73.046875 C 280.625 72.929688 280.660156 72.894531 280.773438 72.894531 L 281.003906 72.894531 C 281.09375 72.894531 281.140625 72.941406 281.164062 72.976562 L 285.09375 78.628906 C 285.519531 79.234375 285.894531 79.875 286.160156 80.265625 L 286.195312 80.265625 C 286.136719 79.636719 286.113281 78.992188 286.113281 78.203125 L 286.113281 73.035156 C 286.113281 72.929688 286.148438 72.894531 286.25 72.894531 L 286.480469 72.894531 C 286.59375 72.894531 286.628906 72.929688 286.628906 73.046875 "/>
<path fill-rule="nonzero" fill="rgb(13.729858%, 12.159729%, 12.548828%)" fill-opacity="1" d="M 293.6875 73.046875 L 293.6875 73.25 C 293.6875 73.355469 293.652344 73.390625 293.539062 73.390625 L 291.050781 73.390625 L 291.050781 80.886719 C 291.050781 81 291.015625 81.035156 290.902344 81.035156 L 290.660156 81.035156 C 290.558594 81.035156 290.523438 81 290.523438 80.886719 L 290.523438 73.390625 L 288.035156 73.390625 C 287.921875 73.390625 287.886719 73.355469 287.886719 73.25 L 287.886719 73.046875 C 287.886719 72.929688 287.921875 72.894531 288.035156 72.894531 L 293.539062 72.894531 C 293.652344 72.894531 293.6875 72.929688 293.6875 73.046875 "/>
<path fill-rule="nonzero" fill="rgb(13.729858%, 12.159729%, 12.548828%)" fill-opacity="1" d="M 298.164062 73.046875 L 298.164062 80.539062 L 302.335938 80.539062 C 302.4375 80.539062 302.472656 80.574219 302.472656 80.679688 L 302.472656 80.886719 C 302.472656 81 302.4375 81.035156 302.335938 81.035156 L 297.785156 81.035156 C 297.671875 81.035156 297.636719 81 297.636719 80.886719 L 297.636719 73.046875 C 297.636719 72.929688 297.671875 72.894531 297.785156 72.894531 L 298.027344 72.894531 C 298.128906 72.894531 298.164062 72.929688 298.164062 73.046875 "/>
<path fill-rule="nonzero" fill="rgb(13.729858%, 12.159729%, 12.548828%)" fill-opacity="1" d="M 303.890625 72.898438 L 304.132812 72.898438 C 304.234375 72.898438 304.269531 72.929688 304.269531 73.046875 L 304.269531 80.882812 C 304.269531 81 304.234375 81.035156 304.132812 81.035156 L 303.890625 81.035156 C 303.777344 81.035156 303.742188 81 303.742188 80.882812 L 303.742188 73.046875 C 303.742188 72.929688 303.777344 72.898438 303.890625 72.898438 "/>
<path fill-rule="nonzero" fill="rgb(13.729858%, 12.159729%, 12.548828%)" fill-opacity="1" d="M 312.328125 73.046875 L 312.328125 80.886719 C 312.328125 81 312.292969 81.035156 312.175781 81.035156 L 311.949219 81.035156 C 311.867188 81.035156 311.847656 81.023438 311.789062 80.941406 L 307.742188 75.144531 C 307.363281 74.605469 307.03125 74.101562 306.789062 73.652344 L 306.769531 73.652344 C 306.8125 74.191406 306.835938 74.820312 306.835938 75.542969 L 306.835938 80.886719 C 306.835938 81 306.800781 81.035156 306.699219 81.035156 L 306.46875 81.035156 C 306.355469 81.035156 306.320312 81 306.320312 80.886719 L 306.320312 73.046875 C 306.320312 72.929688 306.355469 72.894531 306.46875 72.894531 L 306.699219 72.894531 C 306.789062 72.894531 306.835938 72.941406 306.859375 72.976562 L 310.789062 78.628906 C 311.214844 79.234375 311.59375 79.875 311.855469 80.265625 L 311.890625 80.265625 C 311.832031 79.636719 311.8125 78.992188 311.8125 78.203125 L 311.8125 73.035156 C 311.8125 72.929688 311.847656 72.894531 311.949219 72.894531 L 312.175781 72.894531 C 312.292969 72.894531 312.328125 72.929688 312.328125 73.046875 "/>
<path fill-rule="nonzero" fill="rgb(13.729858%, 12.159729%, 12.548828%)" fill-opacity="1" d="M 317.320312 80.703125 C 319.003906 80.703125 319.820312 79.75 319.820312 78.269531 L 319.820312 73.046875 C 319.820312 72.929688 319.851562 72.898438 319.957031 72.898438 L 320.199219 72.898438 C 320.3125 72.898438 320.34375 72.929688 320.34375 73.046875 L 320.34375 78.269531 C 320.34375 80.046875 319.347656 81.195312 317.320312 81.195312 C 315.304688 81.195312 314.304688 80.046875 314.304688 78.269531 L 314.304688 73.046875 C 314.304688 72.929688 314.339844 72.898438 314.457031 72.898438 L 314.695312 72.898438 C 314.796875 72.898438 314.832031 72.929688 314.832031 73.046875 L 314.832031 78.269531 C 314.832031 79.75 315.648438 80.703125 317.320312 80.703125 "/>
<path fill-rule="nonzero" fill="rgb(13.729858%, 12.159729%, 12.548828%)" fill-opacity="1" d="M 328.078125 81.035156 L 327.78125 81.035156 C 327.621094 81.035156 327.574219 81.023438 327.507812 80.90625 L 324.847656 77.308594 L 322.210938 80.90625 C 322.128906 81.023438 322.097656 81.035156 321.9375 81.035156 L 321.648438 81.035156 C 321.535156 81.035156 321.523438 80.953125 321.59375 80.863281 L 324.527344 76.90625 L 321.671875 73.035156 C 321.613281 72.964844 321.648438 72.898438 321.742188 72.898438 L 322.039062 72.898438 C 322.199219 72.898438 322.234375 72.917969 322.3125 73.023438 L 324.871094 76.484375 L 327.425781 73.023438 C 327.507812 72.917969 327.539062 72.898438 327.691406 72.898438 L 327.988281 72.898438 C 328.089844 72.898438 328.113281 72.964844 328.066406 73.035156 L 325.203125 76.898438 L 328.148438 80.863281 C 328.214844 80.953125 328.207031 81.035156 328.078125 81.035156 "/>
<path fill-rule="nonzero" fill="rgb(13.729858%, 12.159729%, 12.548828%)" fill-opacity="1" d="M 194.054688 41.265625 L 184.160156 41.265625 L 184.160156 29.550781 L 194.054688 29.550781 C 197.867188 29.550781 200.027344 31.652344 200.027344 35.410156 C 200.027344 39.21875 197.867188 41.265625 194.054688 41.265625 M 201.789062 49.34375 C 201.222656 48.320312 200.710938 47.523438 199.96875 46.898438 C 204.691406 45.304688 207.421875 41.324219 207.421875 35.410156 C 207.421875 27.558594 202.585938 22.894531 194.679688 22.894531 L 178.925781 22.894531 C 177.503906 22.894531 176.992188 23.40625 176.992188 24.828125 L 176.992188 61.34375 C 176.992188 62.765625 177.503906 63.277344 178.925781 63.277344 L 182.167969 63.277344 C 183.648438 63.277344 184.101562 62.765625 184.101562 61.34375 L 184.101562 47.921875 L 188.308594 47.921875 C 192.234375 47.921875 193.601562 48.773438 195.136719 51.902344 L 199.855469 61.574219 C 200.539062 62.992188 201.335938 63.277344 203.78125 63.277344 L 207.023438 63.277344 C 208.445312 63.277344 208.617188 62.425781 207.988281 61.34375 Z M 201.789062 49.34375 "/>
<path fill-rule="nonzero" fill="rgb(13.729858%, 12.159729%, 12.548828%)" fill-opacity="1" d="M 318.328125 39.503906 C 313.152344 38.933594 308.488281 38.195312 308.488281 34.101562 C 308.488281 30.574219 311.160156 28.867188 316.734375 28.867188 C 321.226562 28.867188 323.445312 30.628906 324.980469 33.644531 C 325.664062 34.953125 326.234375 35.179688 327.484375 34.613281 L 330.613281 33.246094 C 331.976562 32.621094 332.320312 31.9375 331.691406 30.628906 C 328.964844 25 324.867188 22.097656 316.734375 22.097656 C 306.496094 22.097656 301.152344 27.160156 301.152344 34.382812 C 301.152344 44.335938 309.683594 45.53125 316.5625 46.273438 C 321.398438 46.785156 325.550781 47.636719 325.550781 51.5625 C 325.550781 55.65625 322.421875 57.476562 316.507812 57.476562 C 312.128906 57.476562 309.113281 55.542969 307.691406 52.1875 C 307.121094 50.824219 306.554688 50.539062 305.1875 50.992188 L 302.117188 52.128906 C 300.75 52.585938 300.410156 53.210938 300.921875 54.632812 C 303.253906 60.777344 307.691406 64.074219 316.507812 64.074219 C 326.972656 64.074219 332.71875 59.070312 332.71875 51.503906 C 332.71875 42.007812 325.039062 40.242188 318.328125 39.503906 "/>
<path fill-rule="nonzero" fill="rgb(13.729858%, 12.159729%, 12.548828%)" fill-opacity="1" d="M 170.339844 22.894531 L 143.605469 22.894531 C 142.183594 22.894531 141.671875 23.40625 141.671875 24.828125 L 141.671875 27.617188 C 141.671875 29.039062 142.183594 29.550781 143.605469 29.550781 L 153.390625 29.550781 L 153.390625 61.34375 C 153.390625 62.765625 153.898438 63.277344 155.324219 63.277344 L 158.621094 63.277344 C 160.042969 63.277344 160.554688 62.765625 160.554688 61.34375 L 160.554688 29.550781 L 170.339844 29.550781 C 171.816406 29.550781 172.273438 29.039062 172.273438 27.617188 L 172.273438 24.828125 C 172.273438 23.40625 171.816406 22.894531 170.339844 22.894531 "/>
<path fill-rule="nonzero" fill="rgb(13.729858%, 12.159729%, 12.548828%)" fill-opacity="1" d="M 137.804688 52.015625 L 134.734375 50.9375 C 133.371094 50.425781 132.742188 50.707031 132.230469 52.128906 C 130.980469 55.601562 128.308594 57.421875 123.527344 57.421875 C 117.671875 57.421875 114.429688 54.519531 114.429688 49.289062 L 114.429688 36.832031 C 114.429688 31.597656 117.613281 28.753906 123.527344 28.753906 C 128.25 28.753906 130.921875 30.515625 132.230469 33.984375 C 132.742188 35.410156 133.253906 35.578125 134.675781 35.179688 L 137.804688 34.101562 C 139.113281 33.589844 139.453125 32.960938 139 31.597656 C 136.839844 25.453125 131.890625 22.097656 123.527344 22.097656 C 113.0625 22.097656 107.261719 27.785156 107.261719 36.886719 L 107.261719 49.230469 C 107.261719 58.386719 113.0625 64.074219 123.527344 64.074219 C 131.945312 64.074219 136.894531 60.660156 139 54.519531 C 139.511719 53.15625 139.171875 52.527344 137.804688 52.015625 "/>
<path fill-rule="nonzero" fill="rgb(13.729858%, 12.159729%, 12.548828%)" fill-opacity="1" d="M 237.449219 56.625 L 221.128906 56.625 L 221.128906 24.828125 C 221.128906 23.40625 220.671875 22.894531 219.191406 22.894531 L 215.949219 22.894531 C 214.527344 22.894531 214.015625 23.40625 214.015625 24.828125 L 214.015625 61.34375 C 214.015625 62.765625 214.527344 63.277344 215.949219 63.277344 L 237.449219 63.277344 C 238.929688 63.277344 239.386719 62.765625 239.386719 61.34375 L 239.386719 58.558594 C 239.386719 57.136719 238.929688 56.625 237.449219 56.625 "/>
<path fill-rule="nonzero" fill="rgb(13.729858%, 12.159729%, 12.548828%)" fill-opacity="1" d="M 279.710938 22.097656 C 274.085938 22.097656 269.820312 23.753906 267.066406 26.695312 C 268.460938 28.105469 269.984375 29.4375 271.644531 30.652344 C 271.941406 30.867188 272.242188 31.070312 272.539062 31.277344 C 274.085938 29.621094 276.515625 28.753906 279.710938 28.753906 C 285.566406 28.753906 288.808594 31.597656 288.808594 36.886719 L 288.808594 49.285156 C 288.808594 54.578125 285.566406 57.421875 279.710938 57.421875 C 273.90625 57.421875 270.609375 54.578125 270.609375 49.285156 L 270.609375 36.886719 C 270.609375 34.625 271.214844 32.816406 272.359375 31.480469 C 269.894531 30.972656 267.464844 30.296875 265.179688 29.324219 C 264.035156 31.464844 263.441406 34.027344 263.441406 36.945312 L 263.441406 49.230469 C 263.441406 58.386719 269.242188 64.074219 279.710938 64.074219 C 290.117188 64.074219 295.917969 58.386719 295.917969 49.230469 L 295.917969 36.945312 C 295.917969 27.785156 290.117188 22.097656 279.710938 22.097656 "/>
<path fill-rule="nonzero" fill="rgb(13.729858%, 12.159729%, 12.548828%)" fill-opacity="1" d="M 254.84375 39.902344 L 241.761719 39.902344 C 240.339844 39.902344 239.828125 40.414062 239.828125 41.835938 L 239.828125 44.339844 C 239.828125 45.816406 240.339844 46.273438 241.761719 46.273438 L 254.84375 46.273438 C 256.265625 46.273438 256.777344 45.816406 256.777344 44.339844 L 256.777344 41.835938 C 256.777344 40.414062 256.265625 39.902344 254.84375 39.902344 "/>
<path fill-rule="nonzero" fill="rgb(13.729858%, 12.159729%, 12.548828%)" fill-opacity="1" d="M 37.875 21.023438 C 39.660156 22.148438 41.496094 23.332031 43.304688 24.523438 L 40.523438 19.660156 C 39.613281 20.070312 38.730469 20.523438 37.875 21.023438 M 40.46875 70.457031 L 42.632812 66.742188 C 42.511719 65.550781 42.441406 64.335938 42.441406 63.105469 C 42.441406 59.742188 42.996094 56.308594 44.183594 52.300781 L 43.300781 50.777344 C 43.289062 50.773438 43.273438 50.773438 43.261719 50.769531 C 43.15625 50.742188 43.050781 50.703125 42.953125 50.652344 C 42.046875 50.1875 41.226562 49.214844 40.847656 48.507812 C 40.835938 48.484375 40.785156 48.375 40.785156 48.375 C 40.765625 48.335938 40.75 48.296875 40.734375 48.253906 C 40.679688 48.214844 40.609375 48.167969 40.550781 48.128906 C 40.441406 48.054688 40.3125 47.96875 40.175781 47.867188 L 37.601562 52.332031 L 40.976562 58.207031 L 35.511719 67.582031 C 37.050781 68.703125 38.710938 69.664062 40.46875 70.457031 M 79.691406 35.597656 C 80.703125 38.570312 81.261719 41.753906 81.261719 45.070312 C 81.261719 59.886719 70.296875 72.136719 56.042969 74.167969 C 56.167969 74.851562 56.335938 75.53125 56.542969 76.207031 C 71.710938 73.949219 83.347656 60.871094 83.347656 45.070312 C 83.347656 41.570312 82.765625 38.203125 81.710938 35.054688 C 81.023438 35.203125 80.351562 35.382812 79.691406 35.597656 M 44.003906 73.398438 C 31.589844 69.957031 22.46875 58.582031 22.46875 45.070312 C 22.46875 42.34375 22.847656 39.703125 23.542969 37.199219 C 22.902344 36.933594 22.257812 36.609375 21.65625 36.199219 C 20.832031 39.011719 20.378906 41.988281 20.378906 45.070312 C 20.378906 60.058594 30.851562 72.589844 44.878906 75.765625 C 44.558594 75 44.265625 74.210938 44.003906 73.398438 M 59.414062 26.183594 L 54.339844 17.359375 C 53.523438 17.289062 52.699219 17.246094 51.863281 17.246094 C 50.492188 17.246094 49.148438 17.347656 47.832031 17.539062 L 59.265625 37.34375 C 59.269531 37.292969 59.273438 37.242188 59.273438 37.1875 C 59.273438 36.964844 59.265625 36.726562 59.246094 36.457031 C 59.199219 35.777344 59.222656 35.160156 59.316406 34.578125 C 59.519531 33.292969 60.03125 32.054688 60.796875 31 C 61.859375 29.519531 63.339844 28.453125 65.042969 27.902344 L 68.175781 22.53125 C 66.632812 21.414062 64.972656 20.453125 63.214844 19.667969 Z M 54.859375 32.867188 L 52.660156 29.058594 L 49.9375 29.054688 C 50.054688 29.136719 50.179688 29.222656 50.296875 29.308594 C 51.496094 30.15625 53.25 31.488281 54.859375 32.867188 M 36.382812 20.082031 C 40.882812 17.292969 46.183594 15.675781 51.863281 15.675781 C 63.027344 15.675781 72.734375 21.894531 77.710938 31.058594 C 78.429688 30.988281 79.1875 30.925781 79.960938 30.867188 C 74.765625 20.617188 64.140625 13.585938 51.863281 13.585938 C 45.410156 13.585938 39.414062 15.53125 34.421875 18.863281 C 35.0625 19.257812 35.71875 19.664062 36.382812 20.082031 M 71.886719 40.558594 L 71.875 40.570312 C 71.328125 41.230469 71.054688 42.085938 71.109375 42.988281 C 71.140625 43.46875 71.152344 43.964844 71.152344 44.457031 C 71.152344 45.160156 71.121094 45.878906 71.058594 46.597656 C 71.023438 47.03125 70.96875 47.460938 70.90625 47.886719 L 79.546875 47.925781 C 79.640625 46.988281 79.691406 46.035156 79.691406 45.070312 C 79.691406 44.101562 79.640625 43.140625 79.542969 42.195312 L 71.96875 42.164062 L 74.019531 38.625 C 73.265625 39.210938 72.554688 39.855469 71.886719 40.558594 M 77.734375 55.316406 L 67.527344 55.3125 C 66.105469 56.71875 64.320312 57.769531 62.324219 58.238281 C 62.011719 58.3125 59.21875 61.300781 58.625 62.460938 L 63.207031 70.480469 C 64.964844 69.691406 66.628906 68.730469 68.171875 67.613281 L 64.402344 61.023438 L 74.644531 61.039062 C 75.886719 59.273438 76.929688 57.351562 77.734375 55.316406 M 30.023438 62.304688 L 39.050781 46.671875 C 38.976562 46.570312 38.90625 46.46875 38.84375 46.371094 C 37.765625 46.140625 35.632812 45.496094 35.230469 43.976562 C 33.65625 43.648438 32.433594 43.058594 31.519531 42.191406 L 24.191406 42.160156 C 24.089844 43.117188 24.039062 44.089844 24.039062 45.070312 C 24.039062 46.023438 24.085938 46.964844 24.179688 47.890625 L 31.734375 47.921875 L 26.613281 56.761719 C 27.535156 58.746094 28.683594 60.605469 30.023438 62.304688 M 75.976562 31.1875 C 75.664062 31.160156 75.425781 31.070312 75.074219 30.84375 C 74.9375 30.757812 74.800781 30.644531 74.660156 30.511719 C 74.292969 30.160156 73.691406 29.632812 72.90625 29.113281 L 73.667969 27.792969 C 74.519531 28.863281 75.289062 29.996094 75.976562 31.1875 "/>
<path fill-rule="nonzero" fill="rgb(13.729858%, 12.159729%, 12.548828%)" fill-opacity="1" d="M 69.625 33.292969 C 69.503906 33.851562 69.054688 34.300781 68.496094 34.425781 C 67.386719 34.667969 66.421875 33.707031 66.667969 32.597656 C 66.792969 32.039062 67.242188 31.589844 67.800781 31.46875 C 68.90625 31.222656 69.871094 32.1875 69.625 33.292969 M 90.289062 31.941406 C 88.226562 31.996094 81.453125 32.210938 76.902344 32.722656 C 75.722656 32.855469 75.066406 32.707031 74.222656 32.164062 C 73.988281 32.011719 73.773438 31.835938 73.570312 31.640625 C 72.847656 30.945312 70.46875 28.902344 67.652344 29.050781 C 67.296875 29.070312 66.945312 29.078125 66.605469 29.128906 C 66.589844 29.128906 66.578125 29.132812 66.5625 29.136719 C 66.546875 29.140625 66.53125 29.144531 66.519531 29.144531 C 66.507812 29.148438 66.496094 29.148438 66.484375 29.152344 C 64.667969 29.460938 63.097656 30.480469 62.066406 31.917969 C 61.457031 32.761719 61.035156 33.753906 60.863281 34.828125 C 60.785156 35.328125 60.777344 35.84375 60.8125 36.351562 C 60.832031 36.632812 60.84375 36.914062 60.84375 37.195312 C 60.839844 37.605469 60.765625 38.015625 60.578125 38.375 C 60.21875 39.054688 59.5625 39.546875 58.785156 39.6875 L 58.792969 39.730469 C 58.46875 39.984375 58.183594 39.324219 58.066406 39.082031 C 57.800781 38.492188 57.308594 37.804688 56.964844 37.214844 C 55.65625 35.34375 51.742188 32.257812 49.382812 30.585938 C 39.628906 23.59375 25.34375 15.113281 23.492188 14.28125 C 22.898438 14.085938 21.824219 13.339844 21.269531 13.671875 C 21.175781 13.792969 21.15625 13.96875 21.179688 14.136719 C 21.296875 15.03125 21.851562 15.824219 22.3125 16.589844 C 22.335938 16.695312 22.203125 16.707031 22.023438 16.71875 C 21.863281 16.722656 21.734375 16.78125 21.6875 16.914062 C 21.660156 18.558594 23.207031 19.910156 24.382812 20.902344 C 24.847656 21.265625 23.867188 20.867188 23.695312 20.878906 C 23.21875 20.785156 23 21.046875 23.144531 21.488281 C 23.652344 23.171875 25.199219 24.421875 26.609375 25.347656 C 26.757812 25.460938 26.707031 25.492188 26.523438 25.523438 C 26.359375 25.546875 26.195312 25.613281 26.167969 25.773438 C 26.132812 25.953125 26.195312 26.175781 26.273438 26.355469 C 27.226562 28.507812 29.789062 29.800781 31.429688 30.5625 C 31.582031 30.636719 31.457031 30.632812 31.144531 30.59375 C 30.488281 30.488281 29.71875 30.519531 30.183594 31.335938 C 31.457031 33.714844 34.945312 34.828125 36.410156 35.289062 C 36.734375 35.371094 35.789062 35.269531 35.542969 35.386719 C 35.164062 35.480469 35.230469 35.867188 35.429688 36.144531 C 36.351562 37.507812 38.035156 38.285156 39.554688 38.773438 C 39.964844 38.898438 39.824219 38.9375 39.304688 39.046875 C 37.507812 39.515625 40.769531 41.367188 41.378906 41.601562 C 41.699219 42.449219 42.058594 43.445312 42.769531 44.074219 C 43.058594 44.375 43.003906 44.773438 43.144531 45.152344 C 43.398438 45.882812 43.894531 46.535156 44.449219 47.074219 C 44.878906 47.699219 44.738281 48.550781 45.164062 49.222656 C 45.421875 49.765625 45.800781 50.242188 46.234375 50.660156 C 46.347656 50.785156 46.246094 51 46.214844 51.101562 C 46.011719 51.734375 45.851562 52.183594 45.695312 52.714844 C 44.753906 55.890625 44.011719 59.375 44.011719 63.105469 C 44.011719 71.5625 47.121094 78.972656 51.773438 83.070312 C 51.628906 82.773438 51.492188 82.472656 51.359375 82.167969 C 47.085938 72.332031 50.570312 61.34375 59.140625 57.617188 C 59.898438 57.292969 60.671875 57.03125 61.449219 56.832031 C 61.480469 56.824219 61.515625 56.816406 61.546875 56.808594 C 61.550781 56.808594 61.558594 56.804688 61.566406 56.800781 C 61.691406 56.773438 61.820312 56.746094 61.945312 56.71875 C 65.011719 55.953125 67.503906 53.734375 68.640625 50.832031 C 68.894531 50.046875 69.101562 49.199219 69.257812 48.3125 C 69.359375 47.714844 69.441406 47.097656 69.496094 46.464844 C 69.550781 45.808594 69.582031 45.136719 69.582031 44.457031 C 69.582031 43.992188 69.570312 43.53125 69.542969 43.082031 C 69.46875 41.789062 69.867188 40.511719 70.707031 39.527344 L 70.746094 39.480469 C 73.699219 36.363281 77.550781 34.246094 81.769531 33.441406 C 85.023438 32.820312 87.992188 32.605469 88.75 32.558594 C 88.875 32.550781 89 32.527344 89.121094 32.488281 L 90.316406 32.109375 C 90.414062 32.082031 90.390625 31.9375 90.289062 31.941406 M 63.164062 87.898438 C 63.445312 88.101562 63.726562 88.300781 64.011719 88.492188 C 59.339844 87.578125 54.792969 85.8125 52.417969 80.554688 C 49.175781 71.925781 52.210938 62.59375 59.457031 59.222656 C 59.40625 59.273438 59.355469 59.332031 59.296875 59.386719 C 59.199219 59.476562 59.097656 59.570312 59 59.664062 C 58.996094 59.671875 58.992188 59.675781 58.988281 59.679688 C 58.964844 59.703125 58.9375 59.726562 58.914062 59.75 C 58.316406 60.339844 57.757812 60.980469 57.25 61.675781 C 51.484375 69.546875 54.132812 81.285156 63.164062 87.898438 M 41.75 44.957031 C 41.332031 44.316406 40.820312 43.71875 40.539062 42.949219 C 40.238281 42.335938 39.453125 42.152344 38.988281 41.71875 C 38.425781 41.265625 37.851562 40.753906 37.585938 40.058594 C 37.484375 39.796875 37.507812 39.542969 37.304688 39.347656 C 36.171875 38.621094 35.09375 37.996094 34.363281 36.851562 C 34.117188 36.535156 34.070312 36.089844 33.8125 35.796875 C 32.058594 34.871094 29.964844 33.847656 28.980469 31.796875 C 28.6875 31.328125 28.859375 30.65625 28.34375 30.347656 C 26.871094 29.378906 25.492188 28.132812 24.921875 26.40625 C 24.804688 25.40625 24.3125 25.128906 23.398438 24.898438 C 20.371094 23.972656 16.332031 22.769531 15.390625 22.664062 C 14.695312 22.546875 13.679688 22.316406 13.421875 22.621094 C 13.324219 22.738281 13.339844 22.90625 13.386719 23.058594 C 13.699219 23.898438 14.375 24.570312 15.042969 25.160156 C 15.195312 25.320312 15.117188 25.375 14.863281 25.449219 C 14.441406 25.558594 14.585938 26 14.753906 26.277344 C 15.527344 27.574219 16.957031 28.398438 18.300781 29.015625 C 18.394531 29.070312 18.355469 29.09375 18.199219 29.09375 C 17.882812 29.097656 17.261719 29.015625 17.046875 29.285156 C 16.949219 29.433594 17.027344 29.664062 17.117188 29.828125 C 18.023438 31.34375 19.835938 32.1875 21.433594 32.746094 C 21.609375 32.816406 21.566406 32.863281 21.394531 32.9375 C 20.945312 33.082031 21.128906 33.53125 21.355469 33.804688 C 22.808594 35.671875 25.621094 36.304688 27.410156 36.652344 C 27.574219 36.6875 27.453125 36.714844 27.132812 36.75 C 26.53125 36.808594 25.757812 36.980469 26.320312 37.640625 C 28.152344 39.753906 31.898438 39.9375 33.496094 40.054688 C 33.207031 40.132812 31.859375 40.332031 32.601562 41.054688 C 33.839844 42.230469 35.769531 42.578125 37.402344 42.679688 C 37.632812 42.691406 37.675781 42.75 37.320312 42.914062 C 35.398438 43.761719 38.78125 44.871094 39.566406 44.917969 C 39.753906 44.933594 39.855469 45 39.953125 45.167969 C 40.164062 45.554688 40.457031 45.980469 40.792969 46.3125 C 41.257812 46.863281 42.023438 46.996094 42.203125 47.707031 L 42.234375 47.769531 C 42.503906 48.277344 43.113281 48.972656 43.667969 49.253906 C 43.726562 49.269531 43.757812 49.246094 43.761719 49.183594 C 43.660156 48.769531 43.59375 48.136719 43.308594 47.765625 C 42.5625 46.988281 42.074219 45.964844 41.75 44.957031 "/>
</svg>
