<?xml version="1.0" encoding="UTF-8"?>
<svg fill="none" viewBox="0 0 64 32" xmlns="http://www.w3.org/2000/svg">
<g clip-path="url(#a)" fill="#201E7B">
<path d="m19.395 0h-2.066c-0.4515 0-0.8241 0.37053-0.8241 0.81965v8.8702h-9.5057v-0.74106c0-4.4463 2.1111-5.367 4.9673-5.3895h0.3274c0.4516 0 0.8242-0.37053 0.8242-0.81965v-1.92c0-0.44912-0.3726-0.81965-0.8242-0.81965h-0.3274c-4.9448 0.011228-8.6703 2.56-8.6703 8.9488v0.74106h-2.4724c-0.45158 0-0.82413 0.37057-0.82413 0.81967v1.92c0 0.4491 0.37255 0.8196 0.82413 0.8196h2.4724v17.516c0 0.4491 0.37256 0.8197 0.82414 0.8197h2.066c0.45158 0 0.82413-0.3706 0.82413-0.8197v-17.527h9.5057v17.527c0 0.4491 0.3725 0.8197 0.8241 0.8197h2.066c0.4516 0 0.8241-0.3706 0.8241-0.8197v-29.945c-0.0226-0.44912-0.3838-0.81965-0.8354-0.81965zm43.194 9.7347h-2.0998c-0.2597 0-0.5081 0.12351-0.6661 0.33686l-3.4207 4.6821 0.9031 1.2463 1.0838 1.4821 0.0113-0.0112 0.0903 0.1235 4.7642-6.5684c0.3951-0.539 0-1.2913-0.6661-1.2913zm-28.246-0.47158c-6.4463 0-11.549 5.1649-11.549 11.385 0 6.2204 5.1932 11.34 11.549 11.34 6.4011 0 11.594-5.12 11.594-11.34 0-6.2203-5.148-11.385-11.594-11.385zm0 19.324c-4.4481 0-7.9704-3.739-7.9704-7.9271 0-4.1543 3.432-7.9831 7.9704-7.9831 4.5383 0 8.0155 3.8288 8.0155 7.9831 0.0113 4.1881-3.511 7.9271-8.0155 7.9271z"/>
<path d="m63.841 30.338-5.3512-7.287-1.0725 1.4933-1.016 1.3698 3.9739 5.3895c0.158 0.2133 0.4064 0.3368 0.666 0.3368h2.1338c0.6773 0 1.0612-0.7635 0.666-1.3024zm-7.372-10.038-7.4962-10.229c-0.158-0.21332-0.4064-0.33682-0.6661-0.33682h-2.0998c-0.6661 0-1.0612 0.75232-0.6661 1.2912l6.7511 9.3081-7.3494 9.993c-0.3952 0.5389-0.0113 1.3024 0.666 1.3024h2.145c0.2597 0 0.5081-0.1235 0.6661-0.3368l8.0494-10.992z"/>
</g>
<defs>
<clipPath id="a">
<rect width="64" height="32" fill="#fff"/>
</clipPath>
</defs>
</svg>
