<?xml version="1.0" encoding="UTF-8" standalone="no"?>
<!-- Created with Inkscape (http://www.inkscape.org/) -->

<svg
   width="42.388897mm"
   height="9.093729mm"
   viewBox="0 0 42.388897 9.093729"
   version="1.1"
   id="svg5078"
   xmlns:xlink="http://www.w3.org/1999/xlink"
   xmlns="http://www.w3.org/2000/svg"
   xmlns:svg="http://www.w3.org/2000/svg">
  <defs
     id="defs5075">
    <linearGradient
       id="Unbenannter_Verlauf_5-2"
       x1="424.87"
       y1="-2175.4099"
       x2="433.70001"
       y2="-2190.6899"
       xlink:href="#Unbenannter_Verlauf_5" />
    <linearGradient
       id="Unbenannter_Verlauf_5"
       x1="843"
       y1="-2155"
       x2="856.10999"
       y2="-2177.6899"
       gradientTransform="matrix(0.8,0,0,-0.8,-240.73,-1638.85)"
       gradientUnits="userSpaceOnUse">
      <stop
         offset="0"
         stop-color="#699ad7"
         id="stop4" />
      <stop
         offset=".24"
         stop-color="#7eb1dd"
         id="stop6" />
      <stop
         offset="1"
         stop-color="#7ebae4"
         id="stop8" />
    </linearGradient>
  </defs>
  <g
     id="layer1"
     transform="translate(-37.370038,-55.651447)">
    <g
       id="NixCademy_color"
       transform="matrix(0.26458333,0,0,0.26458333,13.017788,33.897406)">
      <path
         class="cls-10"
         d="m 123.23,109.44 h 3.68 l -0.08,0.52 h -3.11 l -0.27,1.75 h 2.78 l -0.08,0.52 h -2.78 l -0.27,1.79 h 3.14 l -0.08,0.52 h -3.72 l 0.77,-5.09 z"
         id="path82"
         style="fill:#5277c3" />
      <path
         class="cls-10"
         d="m 131.03,111.93 -1.51,-2.5 h 0.68 l 1.25,2.08 1.86,-2.08 h 0.67 l -2.26,2.49 1.56,2.6 h -0.68 l -1.3,-2.19 -1.96,2.19 h -0.66 l 2.35,-2.6 z"
         id="path84"
         style="fill:#5277c3" />
      <path
         class="cls-10"
         d="m 136.71,109.44 h 1.91 c 0.29,0 0.54,0.04 0.76,0.11 0.22,0.08 0.41,0.18 0.56,0.32 0.15,0.14 0.25,0.31 0.31,0.5 0.06,0.2 0.07,0.42 0.03,0.68 v 0 c -0.04,0.29 -0.13,0.53 -0.27,0.74 -0.14,0.21 -0.31,0.38 -0.51,0.52 -0.2,0.14 -0.43,0.25 -0.68,0.32 -0.25,0.07 -0.52,0.1 -0.79,0.1 h -1.24 l -0.27,1.8 h -0.58 z m 1.42,2.78 c 0.21,0 0.4,-0.03 0.58,-0.08 0.18,-0.05 0.34,-0.13 0.48,-0.23 0.14,-0.1 0.25,-0.22 0.34,-0.35 0.09,-0.14 0.14,-0.29 0.17,-0.46 v 0 c 0.05,-0.38 -0.03,-0.66 -0.25,-0.84 -0.22,-0.19 -0.54,-0.28 -0.95,-0.28 h -1.29 l -0.34,2.25 h 1.26 z"
         id="path86"
         style="fill:#5277c3" />
      <path
         class="cls-10"
         d="m 143.21,109.44 h 3.68 l -0.08,0.52 h -3.11 l -0.27,1.75 h 2.78 l -0.08,0.52 h -2.78 l -0.27,1.79 h 3.14 l -0.08,0.52 h -3.72 l 0.77,-5.09 z"
         id="path88"
         style="fill:#5277c3" />
      <path
         class="cls-10"
         d="m 149.68,109.44 h 2.19 c 0.31,0 0.59,0.04 0.82,0.13 0.23,0.09 0.42,0.21 0.55,0.38 0.11,0.12 0.18,0.27 0.22,0.44 0.04,0.17 0.05,0.36 0.02,0.56 v 0 c -0.03,0.23 -0.1,0.42 -0.19,0.59 -0.09,0.17 -0.21,0.31 -0.35,0.44 -0.14,0.12 -0.3,0.23 -0.49,0.31 -0.18,0.08 -0.38,0.14 -0.58,0.17 l 1.25,2.08 h -0.71 l -1.18,-1.98 h -1.46 l -0.3,1.98 h -0.58 l 0.77,-5.09 z m 1.75,2.6 c 0.19,0 0.37,-0.02 0.54,-0.07 0.17,-0.05 0.32,-0.12 0.45,-0.21 0.13,-0.09 0.24,-0.2 0.32,-0.33 0.08,-0.13 0.14,-0.28 0.17,-0.44 v 0 c 0.05,-0.33 -0.03,-0.58 -0.23,-0.75 -0.2,-0.18 -0.51,-0.26 -0.92,-0.26 h -1.58 l -0.31,2.07 h 1.57 z"
         id="path90"
         style="fill:#5277c3" />
      <path
         class="cls-10"
         d="m 157.78,109.97 h -1.71 l 0.08,-0.53 h 3.99 l -0.08,0.53 h -1.71 l -0.69,4.56 h -0.57 z"
         id="path92"
         style="fill:#5277c3" />
      <path
         class="cls-10"
         d="m 167.07,109.44 h 3.68 l -0.08,0.52 h -3.11 l -0.26,1.75 h 2.78 l -0.08,0.52 h -2.78 l -0.27,1.79 h 3.14 l -0.08,0.52 h -3.72 l 0.77,-5.09 z"
         id="path94"
         style="fill:#5277c3" />
      <path
         class="cls-10"
         d="m 173.53,109.44 h 1.77 c 0.4,0 0.75,0.06 1.07,0.19 0.31,0.13 0.57,0.31 0.78,0.54 0.21,0.23 0.35,0.5 0.43,0.8 0.08,0.31 0.1,0.64 0.05,1 v 0 c -0.05,0.37 -0.17,0.71 -0.35,1.02 -0.18,0.31 -0.4,0.58 -0.68,0.81 -0.27,0.23 -0.59,0.41 -0.94,0.54 -0.35,0.13 -0.73,0.2 -1.12,0.2 h -1.77 l 0.77,-5.09 z m 1.08,4.56 c 0.32,0 0.62,-0.05 0.89,-0.15 0.28,-0.1 0.52,-0.24 0.73,-0.42 0.21,-0.18 0.38,-0.39 0.52,-0.64 0.14,-0.25 0.23,-0.51 0.27,-0.79 v 0 c 0.04,-0.3 0.03,-0.56 -0.03,-0.8 -0.06,-0.25 -0.17,-0.46 -0.33,-0.64 -0.15,-0.18 -0.35,-0.33 -0.6,-0.43 -0.25,-0.1 -0.53,-0.16 -0.85,-0.16 h -1.19 l -0.61,4.03 h 1.19 z"
         id="path96"
         style="fill:#5277c3" />
      <path
         class="cls-10"
         d="m 182.13,114.61 c -0.32,0 -0.6,-0.05 -0.84,-0.14 -0.24,-0.09 -0.45,-0.24 -0.61,-0.42 -0.16,-0.18 -0.27,-0.42 -0.33,-0.69 -0.06,-0.28 -0.06,-0.59 0,-0.95 l 0.45,-2.96 h 0.57 l -0.44,2.92 c -0.08,0.55 -0.01,0.98 0.22,1.27 0.23,0.3 0.59,0.44 1.08,0.44 0.49,0 0.87,-0.14 1.18,-0.42 0.32,-0.28 0.52,-0.7 0.6,-1.26 l 0.45,-2.96 h 0.57 l -0.44,2.92 c -0.06,0.37 -0.16,0.7 -0.3,0.98 -0.14,0.28 -0.32,0.52 -0.54,0.71 -0.22,0.19 -0.46,0.33 -0.73,0.43 -0.27,0.09 -0.57,0.14 -0.89,0.14 z"
         id="path98"
         style="fill:#5277c3" />
      <path
         class="cls-10"
         d="m 189.63,114.62 c -0.37,0 -0.7,-0.07 -0.99,-0.2 -0.29,-0.14 -0.53,-0.32 -0.72,-0.56 -0.19,-0.23 -0.33,-0.51 -0.41,-0.83 -0.08,-0.32 -0.09,-0.66 -0.04,-1.03 v 0 c 0.05,-0.37 0.17,-0.71 0.35,-1.03 0.18,-0.32 0.4,-0.6 0.66,-0.84 0.27,-0.24 0.57,-0.43 0.9,-0.57 0.34,-0.14 0.69,-0.21 1.06,-0.21 0.23,0 0.44,0.02 0.62,0.06 0.18,0.04 0.35,0.09 0.5,0.16 0.15,0.07 0.29,0.16 0.41,0.25 0.12,0.1 0.23,0.21 0.34,0.33 l -0.46,0.42 c -0.19,-0.2 -0.4,-0.37 -0.63,-0.5 -0.23,-0.13 -0.52,-0.2 -0.87,-0.2 -0.28,0 -0.55,0.05 -0.81,0.16 -0.26,0.11 -0.49,0.25 -0.69,0.44 -0.21,0.19 -0.38,0.41 -0.52,0.67 -0.14,0.25 -0.23,0.53 -0.27,0.82 v 0 c -0.04,0.31 -0.04,0.59 0.02,0.84 0.06,0.25 0.17,0.48 0.31,0.67 0.15,0.19 0.33,0.34 0.56,0.45 0.22,0.11 0.48,0.16 0.76,0.16 0.35,0 0.66,-0.06 0.93,-0.19 0.27,-0.13 0.55,-0.31 0.82,-0.54 l 0.32,0.37 c -0.15,0.13 -0.31,0.26 -0.47,0.37 -0.16,0.11 -0.33,0.2 -0.5,0.28 -0.18,0.08 -0.36,0.14 -0.56,0.18 -0.2,0.04 -0.41,0.06 -0.64,0.06 z"
         id="path100"
         style="fill:#5277c3" />
      <path
         class="cls-10"
         d="m 197.02,109.4 h 0.54 l 1.54,5.13 h -0.62 l -0.39,-1.35 h -2.77 l -0.81,1.35 h -0.59 z m 0.92,3.27 -0.76,-2.6 -1.56,2.6 z"
         id="path102"
         style="fill:#5277c3" />
      <path
         class="cls-10"
         d="m 203.16,109.97 h -1.71 l 0.08,-0.53 h 3.99 l -0.08,0.53 h -1.71 l -0.69,4.56 h -0.57 z"
         id="path104"
         style="fill:#5277c3" />
      <path
         class="cls-10"
         d="m 208.22,109.44 h 0.57 l -0.77,5.09 h -0.57 z"
         id="path106"
         style="fill:#5277c3" />
      <path
         class="cls-10"
         d="m 213.53,114.62 c -0.39,0 -0.73,-0.07 -1.03,-0.21 -0.3,-0.14 -0.54,-0.33 -0.73,-0.57 -0.19,-0.24 -0.33,-0.52 -0.4,-0.84 -0.08,-0.32 -0.09,-0.65 -0.03,-1 v 0 c 0.05,-0.36 0.17,-0.7 0.34,-1.02 0.17,-0.32 0.39,-0.6 0.66,-0.84 0.27,-0.24 0.57,-0.43 0.91,-0.58 0.34,-0.14 0.71,-0.21 1.09,-0.21 0.38,0 0.73,0.07 1.03,0.21 0.3,0.14 0.54,0.33 0.73,0.57 0.19,0.24 0.33,0.52 0.4,0.84 0.08,0.32 0.09,0.65 0.03,1 0,0 0,0 0,0.01 -0.05,0.35 -0.17,0.68 -0.34,1 -0.17,0.32 -0.39,0.6 -0.66,0.84 -0.26,0.24 -0.57,0.43 -0.91,0.57 -0.34,0.14 -0.71,0.21 -1.09,0.21 z m 0.09,-0.53 c 0.29,0 0.57,-0.05 0.83,-0.16 0.26,-0.11 0.49,-0.26 0.7,-0.45 0.2,-0.19 0.37,-0.41 0.51,-0.66 0.14,-0.25 0.23,-0.52 0.27,-0.81 v 0 c 0.04,-0.31 0.04,-0.58 -0.03,-0.83 -0.06,-0.25 -0.17,-0.48 -0.32,-0.67 -0.15,-0.19 -0.34,-0.34 -0.57,-0.45 -0.23,-0.11 -0.49,-0.17 -0.78,-0.17 -0.29,0 -0.57,0.05 -0.83,0.16 -0.26,0.11 -0.49,0.26 -0.7,0.45 -0.2,0.19 -0.37,0.41 -0.51,0.66 -0.14,0.25 -0.23,0.52 -0.27,0.81 v 0 c -0.04,0.31 -0.04,0.58 0.03,0.83 0.06,0.25 0.17,0.48 0.32,0.67 0.15,0.19 0.34,0.34 0.57,0.45 0.23,0.11 0.49,0.17 0.78,0.17 z"
         id="path108"
         style="fill:#5277c3" />
      <path
         class="cls-10"
         d="m 219.8,109.44 h 0.54 l 2.59,4.08 0.62,-4.08 h 0.56 l -0.77,5.09 h -0.46 l -2.66,-4.17 -0.63,4.17 h -0.56 z"
         id="path110"
         style="fill:#5277c3" />
      <path
         class="cls-9"
         d="m 125.7,92.86 h 3.49 l 4.48,7.13 1.08,-7.13 h 3.68 l -2.04,13.48 h -3.28 l -4.65,-7.4 -1.12,7.4 h -3.68 z"
         id="path112"
         style="fill:#304673" />
      <path
         class="cls-9"
         d="m 141.61,92.86 h 3.76 l -2.04,13.48 h -3.76 z"
         id="path114"
         style="fill:#304673" />
      <path
         class="cls-9"
         d="m 151.16,99.49 -3.43,-6.63 h 4.3 l 1.81,3.79 2.98,-3.79 h 4.2 l -5.43,6.59 3.58,6.89 h -4.3 l -1.97,-4.06 -3.21,4.06 h -4.2 l 5.66,-6.86 z"
         id="path116"
         style="fill:#304673" />
      <path
         class="cls-10"
         d="m 167.56,106.62 c -0.96,0 -1.84,-0.17 -2.64,-0.52 -0.8,-0.35 -1.46,-0.83 -1.99,-1.45 -0.53,-0.62 -0.91,-1.36 -1.15,-2.21 -0.24,-0.85 -0.28,-1.78 -0.13,-2.78 v -0.04 c 0.15,-0.98 0.47,-1.89 0.96,-2.74 0.49,-0.85 1.09,-1.6 1.82,-2.23 0.72,-0.64 1.55,-1.13 2.47,-1.49 0.92,-0.36 1.89,-0.54 2.92,-0.54 0.69,0 1.31,0.07 1.86,0.2 0.54,0.13 1.03,0.33 1.46,0.58 0.43,0.25 0.81,0.55 1.14,0.9 0.33,0.35 0.61,0.73 0.84,1.14 l -3.14,2.18 c -0.31,-0.49 -0.68,-0.87 -1.1,-1.16 -0.42,-0.28 -0.96,-0.42 -1.61,-0.42 -0.47,0 -0.92,0.09 -1.34,0.28 -0.42,0.19 -0.8,0.44 -1.13,0.76 -0.33,0.32 -0.61,0.7 -0.84,1.14 -0.23,0.44 -0.38,0.9 -0.45,1.39 v 0.04 c -0.08,0.5 -0.07,0.97 0.02,1.42 0.09,0.44 0.26,0.83 0.49,1.15 0.23,0.32 0.53,0.58 0.9,0.76 0.36,0.19 0.78,0.28 1.26,0.28 0.35,0 0.67,-0.04 0.97,-0.12 0.3,-0.08 0.58,-0.19 0.84,-0.34 0.26,-0.15 0.51,-0.32 0.75,-0.52 0.24,-0.2 0.48,-0.42 0.73,-0.66 l 2.51,2 c -0.39,0.44 -0.8,0.84 -1.23,1.21 -0.43,0.37 -0.91,0.69 -1.44,0.96 -0.52,0.27 -1.09,0.48 -1.71,0.64 -0.62,0.15 -1.3,0.23 -2.05,0.23 z"
         id="path118"
         style="fill:#5277c3" />
      <path
         class="cls-10"
         d="m 182.19,92.77 h 3.6 l 3.69,13.58 h -4.01 l -0.62,-2.41 h -5.2 l -1.33,2.41 h -3.93 l 7.79,-13.58 z m 2.02,8.28 -0.92,-3.83 -2.1,3.83 z"
         id="path120"
         style="fill:#5277c3" />
      <path
         class="cls-10"
         d="m 193.26,92.86 h 5.2 c 1.21,0 2.26,0.16 3.15,0.49 0.89,0.33 1.62,0.79 2.18,1.38 0.56,0.59 0.95,1.29 1.16,2.11 0.22,0.82 0.25,1.71 0.1,2.69 v 0.04 c -0.15,0.98 -0.46,1.88 -0.93,2.71 -0.47,0.83 -1.08,1.54 -1.83,2.15 -0.75,0.6 -1.62,1.08 -2.63,1.42 -1.01,0.34 -2.12,0.51 -3.32,0.51 h -5.12 l 2.04,-13.48 z m 3.73,10.17 c 1.12,0 2.07,-0.3 2.84,-0.89 0.77,-0.59 1.24,-1.43 1.41,-2.52 v -0.04 c 0.17,-1.08 -0.05,-1.92 -0.64,-2.51 -0.59,-0.6 -1.45,-0.9 -2.57,-0.9 h -1.53 l -1.04,6.86 z"
         id="path122"
         style="fill:#5277c3" />
      <path
         class="cls-10"
         d="m 208.56,92.86 h 10.83 l -0.48,3.18 h -7.15 l -0.31,2.04 h 6.47 l -0.45,2.95 H 211 l -0.32,2.14 h 7.24 l -0.48,3.18 h -10.92 l 2.04,-13.48 z"
         id="path124"
         style="fill:#5277c3" />
      <path
         class="cls-10"
         d="m 222.25,92.86 h 3.95 l 2.43,5.22 4.01,-5.22 h 3.95 l -2.04,13.48 h -3.72 l 1.17,-7.74 -4.24,5.28 h -0.08 l -2.63,-5.24 -1.17,7.7 h -3.68 l 2.04,-13.48 z"
         id="path126"
         style="fill:#5277c3" />
      <path
         class="cls-10"
         d="m 242.09,101.3 -3.85,-8.44 h 4.26 l 2.03,4.91 3.54,-4.91 h 4.18 l -6.39,8.38 -0.77,5.1 h -3.76 l 0.76,-5.05 z"
         id="path128"
         style="fill:#5277c3" />
      <path
         id="path3336-6-5"
         class="cls-1"
         d="m 104.13,99.83 9.65,16.72 -4.44,0.04 -2.58,-4.49 -2.59,4.47 h -2.2 c 0,0 -1.13,-1.95 -1.13,-1.95 l 3.7,-6.36 -2.62,-4.57 2.22,-3.86 z"
         style="fill:url(#Unbenannter_Verlauf_5-2);fill-rule:evenodd" />
      <g
         id="use3439-6-2">
        <path
           id="path3336-6-6"
           class="cls-4"
           d="m 107.61,92.94 -9.65,16.72 -2.25,-3.82 2.6,-4.48 h -5.17 c 0,0 -1.1,-1.92 -1.1,-1.92 l 1.12,-1.95 7.35,0.02 2.64,-4.56 h 4.45 z"
           style="fill:#7ebae4;fill-rule:evenodd" />
      </g>
      <path
         id="path4260-0-4"
         class="cls-3"
         d="m 104.13,99.83 9.65,16.72 -4.44,0.04 -2.58,-4.49 -2.59,4.47 h -2.2 c 0,0 -1.13,-1.95 -1.13,-1.95 l 3.7,-6.36 -2.62,-4.57 2.22,-3.86 z"
         style="fill:#5277c3;fill-rule:evenodd" />
      <g
         id="use4354-5-2">
        <path
           id="path4260-0-5"
           class="cls-3"
           d="m 115.33,92.46 h -19.3 c 0,0 2.18,-3.86 2.18,-3.86 h 5.18 c 0,0 -2.57,-4.47 -2.57,-4.47 l 1.1,-1.91 h 2.25 c 0,0 3.66,6.38 3.66,6.38 h 5.27 c 0,0 2.24,3.86 2.24,3.86 z"
           style="fill:#5277c3;fill-rule:evenodd" />
      </g>
      <polygon
         class="cls-4"
         points="108.35,106.3 110.59,110.15 115.86,110.16 118.69,115.11 120.02,106.3 "
         id="polygon136"
         style="fill:#7ebae4;fill-rule:evenodd" />
      <polygon
         class="cls-4"
         points="122.88,84.19 121.75,82.24 119.55,82.24 116.95,86.71 114.37,82.22 109.94,82.26 120.81,101.1 121.73,95 119.18,90.55 "
         id="polygon138"
         style="fill:#7ebae4;fill-rule:evenodd" />
    </g>
  </g>
</svg>
