<?xml version="1.0" encoding="UTF-8" standalone="no"?>
<svg
   id="svg"
   version="1.1"
   width="76.699936"
   height="77.009621"
   viewBox="0 0 76.699936 77.009621"
   sodipodi:docname="image2vector.svg"
   inkscape:version="1.1.1 (3bf5ae0d25, 2021-09-20)"
   xmlns:inkscape="http://www.inkscape.org/namespaces/inkscape"
   xmlns:sodipodi="http://sodipodi.sourceforge.net/DTD/sodipodi-0.dtd"
   xmlns="http://www.w3.org/2000/svg"
   xmlns:svg="http://www.w3.org/2000/svg">
  <defs
     id="defs11" />
  <sodipodi:namedview
     id="namedview9"
     pagecolor="#ffffff"
     bordercolor="#666666"
     borderopacity="0"
     inkscape:pageshadow="2"
     inkscape:pageopacity="0"
     inkscape:pagecheckerboard="true"
     showgrid="false"
     inkscape:zoom="5.2020029"
     inkscape:cx="-23.933089"
     inkscape:cy="25.951542"
     inkscape:window-width="1702"
     inkscape:window-height="938"
     inkscape:window-x="0"
     inkscape:window-y="0"
     inkscape:window-maximized="1"
     inkscape:current-layer="svg"
     showborder="false" />
  <g
     id="g825"
     transform="translate(-19.992,-21.525381)">
    <path
       id="path0"
       d="m 21.292,21.624 c 0.756,0.031 1.993,0.031 2.75,0 0.756,-0.031 0.137,-0.056 -1.375,-0.056 -1.513,0 -2.132,0.025 -1.375,0.056 m 13.992,-0.02 c -0.064,0.065 -0.117,0.164 -0.117,0.22 0,0.126 32.49,32.558 34.958,34.896 L 71,57.548 v -5.31 -5.311 L 58.331,34.255 45.662,21.583 40.532,21.535 c -2.821,-0.027 -5.183,0.005 -5.248,0.069 m -0.701,9.063 c 0.452,0.458 0.859,0.833 0.904,0.833 0.046,0 -0.286,-0.375 -0.737,-0.833 -0.451,-0.459 -0.858,-0.834 -0.904,-0.834 -0.046,0 0.286,0.375 0.737,0.834 m 10.88,16.791 -0.046,5.792 2.188,2.167 c 1.203,1.191 6.941,6.885 12.75,12.652 L 70.917,78.556 71,72.653 71.083,66.75 69.833,65.503 C 59.987,55.684 45.77,41.667 45.656,41.667 c -0.082,0 -0.168,2.577 -0.193,5.791 M 45.5,67.872 v 5.206 L 58.207,85.789 70.914,98.5 h 5.21 c 4.352,0 5.209,-0.038 5.209,-0.233 0,-0.244 -35.448,-35.6 -35.693,-35.6 -0.077,0 -0.14,2.342 -0.14,5.205"
       stroke="none"
       fill="#d4343c"
       fill-rule="evenodd"
       sodipodi:nodetypes="ccsccscccccccccscscccccccccscccccsssc" />
    <path
       id="path2"
       d="m 70.956,21.766785 c -0.067,0.06833 -0.123,5.809609 -0.123,12.759834 v 12.636225 l 1.373,1.279299 c 0.755,0.703465 2.011,1.883274 2.792,2.620906 4.551,4.300176 21.393,19.939187 21.525,19.98843 0.369,0.135668 0.073,-34.063741 -0.309,-35.733965 C 94.77,29.001411 90.159,24.156553 83.75,22.221022 82.242,21.764775 71.342,21.378874 70.956,21.766785"
       stroke="none"
       fill="#949b9b"
       fill-rule="evenodd"
       style="stroke-width:1.00247" />
    <path
       id="path3"
       d="m 73.051,21.625 c 1.174,0.028 3.049,0.028 4.167,-0.001 1.118,-0.028 0.157,-0.052 -2.135,-0.052 -2.291,0 -3.206,0.024 -2.032,0.053 M 71,52.559 v 5.059 l 4.508,4.309 c 5.74,5.488 6.352,6.5 5.228,8.656 -1.311,2.518 -3.699,1.996 -7.384,-1.611 C 72.166,67.81 71.151,66.904 71.098,66.958 71.044,67.012 71,69.661 71,72.846 v 5.791 l 10.042,9.931 10.041,9.932 h 2.792 2.792 V 84.758 c 0,-11.523 -0.038,-13.763 -0.231,-13.875 -0.214,-0.124 -6.982,-6.376 -10.608,-9.8 -0.874,-0.825 -3.011,-2.812 -4.75,-4.416 C 79.339,55.063 77.354,53.223 76.667,52.578 73.374,49.489 71.194,47.5 71.102,47.5 71.046,47.5 71,49.777 71,52.559"
       stroke="none"
       fill="#646464"
       fill-rule="evenodd"
       sodipodi:nodetypes="ccscccccccscccccsccscsc" />
    <path
       id="path4"
       d="m 20.038,53.208 0.045,31.542 0.458,1.294 c 0.768,2.174 2.193,4.782 3.175,5.812 0.207,0.217 0.58,0.67 0.829,1.006 1.111,1.503 4.572,3.733 7.205,4.643 2.276,0.786 2.94,0.859 8.568,0.946 l 5.4,0.084 L 45.619,80.478 45.52,62.422 44.384,61.336 C 35.203,52.555 35.43,52.817 35.425,51 c -0.004,-1.833 1.156,-3 2.985,-3 1.341,0 2.232,0.562 4.717,2.98 1.215,1.182 2.245,2.093 2.287,2.024 0.043,-0.069 0.083,-2.703 0.09,-5.852 l 0.013,-5.727 -6.3,-6.226 c -3.465,-3.424 -7.953,-7.87 -9.972,-9.879 l -3.672,-3.653 h -2.791 -2.79 l 0.046,31.541"
       stroke="none"
       fill="#f89a38"
       fill-rule="evenodd" />
  </g>
</svg>
