<svg width="379.993" height="96.83" viewBox="0 0 100.54 25.62" xmlns="http://www.w3.org/2000/svg">
    <defs>
        <clipPath clipPathUnits="userSpaceOnUse" id="a">
            <path d="M0 877.68h631.44V0H0Z"/>
        </clipPath>
    </defs>
    <g clip-path="url(#a)" transform="matrix(.35278 0 0 -.35278 -42.575 125.726)">
        <path d="M0 0v-24.208h-7.727c-9.065 0-16.481 7.416-16.481 16.482v30.202z" style="fill:#fbaa31;fill-opacity:1;fill-rule:evenodd;stroke:none" transform="translate(144.894 307.975)"/>
        <path d="M0 0h7.726c9.065 0 16.481-7.417 16.481-16.482v-30.201L0-24.208Z" style="fill:#939598;fill-opacity:1;fill-rule:evenodd;stroke:none" transform="translate(169.1 356.39)"/>
        <path d="M0 0v-24.967h-5.137l-19.07 18.895V4.776l3.379-3.377c4.128-4.09 9.164.489 4.668 4.769l-8.047 7.66v9.62L0 .972Z" style="fill:#58595b;fill-opacity:1;fill-rule:evenodd;stroke:none" transform="translate(193.308 308.734)"/>
        <path d="M0 0v24.967h5.137L24.208 6.072V-4.776l-3.379 3.377c-4.129 4.09-9.165-.489-4.668-4.769l8.047-7.66v-9.62L0-.972Z" style="fill:#f5821f;fill-opacity:1;fill-rule:evenodd;stroke:none" transform="translate(120.686 331.423)"/>
        <path d="M0 0h-9.746l-24.207 24.208v9.619zm-9.746 29.743-24.207 23.984V42.878l24.207-23.983Zm0 18.672v-9.621L-43.7 72.622h9.747z" style="fill:#d41e25;fill-opacity:1;fill-rule:evenodd;stroke:none" transform="translate(178.847 283.768)"/>
        <path d="M0 0v31.983h22.437v-3.387H3.52V18.125h18.381V14.87H3.52V3.344h18.917V0Zm-35.61 3.167h11.343c3.073 0 5.14.521 6.181 1.569 1.049 1.042 1.569 3.036 1.569 5.969v10.338c0 3.088-.52 5.163-1.554 6.204-1.041 1.048-3.109 1.569-6.196 1.569H-35.61ZM-39.13 0v31.983h15.443c4.01 0 6.818-.791 8.439-2.382 1.621-1.584 2.428-4.355 2.428-8.301V10.749c0-3.967-.815-6.753-2.443-8.352C-16.884.799-19.691 0-23.687 0Zm-17.433 31.983H-53V0h-3.563zm-33.455-3.387v3.387h23.933v-3.387h-10.206V0h-3.563v28.596ZM-133.019 0v31.983h5.815l10.955-28.5 10.852 28.5h5.858V0h-3.52v28.999L-114.101 0h-4.356l-11.042 28.999V0Zm-39.349 31.983h3.563V10.991c0-2.06.11-3.505.329-4.319.228-.813.61-1.474 1.153-1.972.571-.52 1.261-.88 2.053-1.093.798-.205 2.169-.308 4.113-.308h3.358c1.958 0 3.343.103 4.143.308.806.213 1.488.573 2.067 1.093.528.484.902 1.136 1.114 1.95.214.822.324 2.266.324 4.341v20.992h3.563V10.558c0-4.077-.807-6.929-2.42-8.535-1.605-1.612-4.45-2.419-8.535-2.419h-3.871c-4.076 0-6.929.807-8.534 2.419-1.614 1.606-2.42 4.458-2.42 8.535z" style="fill:#6d6f71;fill-opacity:1;fill-rule:evenodd;stroke:none" transform="translate(383.243 304.285)"/>
    </g>
</svg>
