<?xml version="1.0" encoding="UTF-8" standalone="no"?>
<!-- Created with Inkscape (http://www.inkscape.org/) -->

<svg
   version="1.1"
   id="svg2"
   xml:space="preserve"
   width="297mm"
   height="210mm"
   viewBox="0 0 1122.5197 793.70079"
   sodipodi:docname="RZ_Wortmarke_schwarz.svg"
   inkscape:version="1.1 (c68e22c387, 2021-05-23)"
   xmlns:inkscape="http://www.inkscape.org/namespaces/inkscape"
   xmlns:sodipodi="http://sodipodi.sourceforge.net/DTD/sodipodi-0.dtd"
   xmlns="http://www.w3.org/2000/svg"
   xmlns:svg="http://www.w3.org/2000/svg"><defs
     id="defs6" /><sodipodi:namedview
     id="namedview4"
     pagecolor="#ffffff"
     bordercolor="#666666"
     borderopacity="1.0"
     inkscape:pageshadow="2"
     inkscape:pageopacity="0.0"
     inkscape:pagecheckerboard="0"
     showgrid="false"
     inkscape:zoom="0.75733229"
     inkscape:cx="552.59759"
     inkscape:cy="433.09919"
     inkscape:window-width="1920"
     inkscape:window-height="1011"
     inkscape:window-x="0"
     inkscape:window-y="32"
     inkscape:window-maximized="1"
     inkscape:current-layer="g8"
     units="mm"
     inkscape:document-units="mm" /><g
     id="g8"
     inkscape:groupmode="layer"
     inkscape:label="ink_ext_XXXXXX"
     transform="matrix(1.3333333,0,0,-1.3333333,0,66.853333)"><g
       id="g10"
       transform="matrix(0.47941591,0,0,0.47941591,19.981804,-357.61408)"><path
         d="m 279.531,154.199 v -3.894 c 0,-1.953 -0.648,-2.61 -2.82,-2.61 H 229.656 V 5.87109 c 0,-2.17968 -0.648,-2.83203 -2.609,-2.83203 h -4.551 c -2.172,0 -2.82,0.65235 -2.82,2.83203 V 147.695 h -47.063 c -2.168,0 -2.816,0.657 -2.816,2.61 v 3.894 c 0,2.16 0.648,2.813 2.816,2.813 h 104.098 c 2.172,0 2.82,-0.653 2.82,-2.813"
         style="fill:#231f20;fill-opacity:1;fill-rule:nonzero;stroke:none"
         id="path12" /><path
         d="m 394.191,154.199 v -3.894 c 0,-1.953 -0.656,-2.61 -2.824,-2.61 H 310.043 V 85.6641 h 72 c 1.949,0 2.598,-0.6524 2.598,-2.5977 v -3.9062 c 0,-2.1758 -0.649,-2.8204 -2.598,-2.8204 h -72 V 12.3633 h 84.359 c 1.957,0 2.817,-0.6445 2.817,-2.59767 V 5.87109 c 0,-2.17968 -0.86,-2.83203 -2.817,-2.83203 h -91.519 c -2.168,0 -2.817,0.65235 -2.817,2.83203 V 154.199 c 0,2.16 0.649,2.813 2.817,2.813 h 88.484 c 2.168,0 2.824,-0.653 2.824,-2.813"
         style="fill:#231f20;fill-opacity:1;fill-rule:nonzero;stroke:none"
         id="path14" /><path
         d="m 476.316,160.051 c 33.614,0 49.664,-13.02 57.039,-37.735 0.653,-2.16 0,-2.812 -1.953,-3.691 l -3.906,-1.301 c -2.172,-0.418 -3.031,-0.215 -3.691,1.739 -6.496,21.476 -19.297,31.66 -47.489,31.66 -32.093,0 -48.359,-16.485 -48.359,-43.797 V 53.3594 c 0,-27.1094 16.914,-44.03127 48.359,-44.03127 29.063,0 41.418,11.27737 47.93,32.75387 0.867,1.9414 1.734,2.3828 3.68,1.7383 l 4.129,-1.5351 c 1.953,-0.6446 2.383,-1.5118 1.73,-3.4571 C 526.414,14.1016 510.797,0 476.316,0 438.582,0 417.98,20.3906 417.98,53.5664 v 53.1446 c 0,32.957 19.954,53.34 58.336,53.34"
         style="fill:#231f20;fill-opacity:1;fill-rule:nonzero;stroke:none"
         id="path16" /><path
         d="M 671.637,154.199 V 5.87109 c 0,-2.17968 -0.653,-2.83203 -2.813,-2.83203 h -4.558 c -1.95,0 -2.606,0.65235 -2.606,2.83203 V 76.3398 H 569.93 V 5.87109 c 0,-2.17968 -0.653,-2.83203 -2.606,-2.83203 h -4.554 c -2.172,0 -2.821,0.65235 -2.821,2.83203 V 154.199 c 0,2.16 0.649,2.813 2.821,2.813 h 4.554 c 1.953,0 2.606,-0.653 2.606,-2.813 V 85.6641 h 91.73 v 68.5349 c 0,2.16 0.656,2.813 2.606,2.813 h 4.558 c 2.16,0 2.813,-0.653 2.813,-2.813"
         style="fill:#231f20;fill-opacity:1;fill-rule:nonzero;stroke:none"
         id="path18" /><path
         d="M 820.766,154.199 V 5.87109 c 0,-2.17968 -0.653,-2.83203 -2.61,-2.83203 h -4.551 c -1.519,0 -2.167,0.22266 -3.035,1.73828 L 733.582,114.512 c -7.152,10.195 -13.012,21.906 -17.562,28.195 h -0.442 c 0,-8.234 1.305,-22.121 1.305,-35.781 V 5.87109 c 0,-2.17968 -0.649,-2.83203 -2.606,-2.83203 h -4.339 c -2.168,0 -2.817,0.65235 -2.817,2.83203 V 154.199 c 0,2.16 0.649,2.813 2.817,2.813 h 4.339 c 1.743,0 2.606,-0.86 3.039,-1.512 L 792.137,48.5742 c 8.019,-11.4844 14.75,-23.6328 19.949,-31.0039 h 0.43 c 0,9.5391 -1.512,24.0703 -1.512,39.0313 v 97.8124 c 0,1.945 0.652,2.598 2.82,2.598 h 4.332 c 1.957,0 2.61,-0.653 2.61,-2.813"
         style="fill:#231f20;fill-opacity:1;fill-rule:nonzero;stroke:none"
         id="path20" /><path
         d="m 910.246,150.723 c -31.66,0 -48.574,-16.485 -48.574,-44.239 V 53.5664 c 0,-27.7539 16.914,-44.23827 48.574,-44.23827 31.242,0 48.145,16.48437 48.145,44.23827 v 52.9176 c 0,27.754 -16.903,44.239 -48.145,44.239 z m 0,9.328 c 37.742,0 58.125,-20.383 58.125,-53.567 V 53.5664 C 968.371,20.3906 947.988,0 910.246,0 872.094,0 851.691,20.3906 851.691,53.5664 v 52.9176 c 0,33.184 20.403,53.567 58.555,53.567"
         style="fill:#231f20;fill-opacity:1;fill-rule:nonzero;stroke:none"
         id="path22" /><path
         d="M 1009.28,154.199 V 12.3633 h 78.94 c 1.95,0 2.6,-0.6445 2.6,-2.59767 V 5.87109 c 0,-2.17968 -0.65,-2.83203 -2.6,-2.83203 h -86.11 c -2.157,0 -2.809,0.65235 -2.809,2.83203 V 154.199 c 0,2.16 0.652,2.813 2.809,2.813 h 4.57 c 1.95,0 2.6,-0.653 2.6,-2.813"
         style="fill:#231f20;fill-opacity:1;fill-rule:nonzero;stroke:none"
         id="path24" /><path
         d="m 1162.76,150.723 c -31.66,0 -48.58,-16.485 -48.58,-44.239 V 53.5664 c 0,-27.7539 16.92,-44.23827 48.58,-44.23827 31.24,0 48.13,16.48437 48.13,44.23827 v 52.9176 c 0,27.754 -16.89,44.239 -48.13,44.239 z m 0,9.328 c 37.73,0 58.11,-20.383 58.11,-53.567 V 53.5664 C 1220.87,20.3906 1200.49,0 1162.76,0 1124.59,0 1104.2,20.3906 1104.2,53.5664 v 52.9176 c 0,33.184 20.39,53.567 58.56,53.567"
         style="fill:#231f20;fill-opacity:1;fill-rule:nonzero;stroke:none"
         id="path26" /><path
         d="M 1363.93,77.6367 V 52.2656 C 1363.93,20.6055 1343.55,0 1305.81,0 c -38.16,0 -58.55,20.6055 -58.55,53.7891 v 52.9219 c 0,32.957 19.96,53.34 58.34,53.34 33.61,0 49.66,-13.02 57.03,-37.735 0.65,-2.16 0,-2.812 -1.94,-3.691 l -3.91,-1.301 c -1.95,-0.652 -3.04,-0.215 -3.69,1.739 -6.5,21.476 -19.31,31.66 -47.49,31.66 -32.33,0 -48.36,-16.485 -48.36,-43.797 V 53.7891 c 0,-27.7539 16.91,-44.46097 48.57,-44.46097 31.24,0 48.37,16.70707 48.37,42.93747 v 18.8672 h -46.41 c -2.17,0 -2.82,0.8789 -2.82,2.832 v 3.8985 c 0,1.9531 0.65,2.8125 2.82,2.8125 h 53.35 c 2.16,0 2.81,-0.8594 2.81,-3.0391"
         style="fill:#231f20;fill-opacity:1;fill-rule:nonzero;stroke:none"
         id="path28" /><path
         d="M 1500.28,154.199 1441.5,66.3789 V 5.87109 c 0,-2.17968 -0.66,-2.83203 -2.61,-2.83203 h -4.55 c -2.16,0 -2.8,0.65235 -2.8,2.83203 V 66.582 l -58.57,87.617 c -0.88,1.516 -0.44,2.813 1.51,2.813 h 5.85 c 3.04,0 3.92,-0.215 4.99,-2.371 l 51.41,-77.8637 51.39,77.8637 c 1.31,2.156 2.18,2.371 5.22,2.371 h 5.41 c 1.96,0 2.38,-1.297 1.53,-2.813"
         style="fill:#231f20;fill-opacity:1;fill-rule:nonzero;stroke:none"
         id="path30" /><path
         d="m 114.453,501.355 c 57.223,0 92.902,-23.406 108.512,-65.027 3.711,-10.781 1.109,-16.348 -10.031,-20.062 l -39.766,-14.125 c -11.52,-3.34 -15.977,-1.496 -20.059,10.023 -6.695,16.723 -17.843,24.164 -38.656,24.164 -29.3514,0 -40.8749,-12.64 -40.8749,-38.644 v -67.629 c 0,-26.02 11.5235,-38.66 40.8749,-38.66 20.813,0 32.703,8.175 38.656,24.16 4.446,11.519 8.911,14.121 20.059,10.039 l 39.766,-14.121 c 11.14,-3.723 13.742,-9.297 10.031,-20.078 -15.61,-41.61 -51.289,-65.028 -108.512,-65.028 -73.2069,0 -114.44909375,39.762 -114.44909375,104.051 v 66.887 c 0,64.289 41.24219375,104.05 114.44909375,104.05"
         style="fill:#231f20;fill-opacity:1;fill-rule:nonzero;stroke:none"
         id="path32" /><path
         d="M 470.797,480.172 384.969,334.137 v -86.586 c 0,-11.524 -3.723,-15.606 -15.621,-15.606 h -41.989 c -11.886,0 -15.98,4.082 -15.98,15.606 v 86.586 L 225.91,480.172 c -5.199,8.547 -3.711,15.605 7.813,15.605 h 44.586 c 18.582,0 23.785,-0.742 30.843,-13.746 l 39.754,-75.804 40.887,75.804 c 7.059,13.004 12.262,13.746 30.465,13.746 h 42.738 c 11.149,0 12.641,-7.058 7.801,-15.605"
         style="fill:#231f20;fill-opacity:1;fill-rule:nonzero;stroke:none"
         id="path34" /><path
         d="m 609.008,335.617 h -43.106 v -43.469 h 43.106 c 15.98,0 23.777,6.305 23.777,21.926 0,14.864 -7.797,21.543 -23.777,21.543 z m -7.063,100.711 h -36.043 v -40.883 h 36.043 c 14.875,0 22.676,5.578 22.676,20.078 0,14.485 -7.801,20.805 -22.676,20.805 z m 97.368,-10.781 c 0,-24.902 -7.801,-41.625 -26.762,-54.629 v -1.477 c 23.785,-10.402 37.539,-31.589 37.539,-63.925 0,-47.926 -39.024,-73.571 -91.426,-73.571 H 508.309 c -11.895,0 -15.977,4.082 -15.977,15.606 v 232.621 c 0,11.898 4.082,15.98 15.977,15.98 h 108.875 c 51.285,0 82.129,-25.261 82.129,-70.605"
         style="fill:#231f20;fill-opacity:1;fill-rule:nonzero;stroke:none"
         id="path36" /><path
         d="M 924.492,480.172 V 446.73 c 0,-11.886 -4.082,-15.98 -15.984,-15.98 h -98.113 v -33.066 h 78.418 c 11.89,0 15.972,-4.098 15.972,-15.602 v -33.449 c 0,-11.899 -4.082,-15.981 -15.972,-15.981 h -78.418 v -35.679 h 101.453 c 11.523,0 15.605,-3.719 15.605,-15.606 v -33.816 c 0,-11.524 -4.082,-15.606 -15.605,-15.606 H 752.805 c -11.899,0 -15.981,4.082 -15.981,15.606 v 232.621 c 0,11.523 4.082,15.605 15.981,15.605 h 155.703 c 11.902,0 15.984,-4.082 15.984,-15.605"
         style="fill:#231f20;fill-opacity:1;fill-rule:nonzero;stroke:none"
         id="path38" /><path
         d="m 1069.02,430.75 h -40.15 v -49.051 h 40.15 c 15.6,0 24.52,9.664 24.52,24.903 0,14.863 -8.55,24.148 -24.52,24.148 z m 100.69,-24.523 c 0,-36.426 -14.86,-62.43 -40.13,-76.551 3.72,-4.821 7.06,-10.039 10.04,-15.985 l 33.45,-63.543 c 5.19,-10.027 2.6,-18.203 -9.67,-18.203 h -40.14 c -19.68,0 -28.24,4.832 -34.19,17.84 l -23.77,50.906 c -6.32,12.641 -12.64,18.946 -27.87,18.946 h -8.56 v -72.086 c 0,-11.524 -3.7,-15.606 -15.6,-15.606 h -41.989 c -11.894,0 -15.976,4.082 -15.976,15.606 v 232.621 c 0,11.523 4.082,15.605 15.976,15.605 H 1077.2 c 56.1,0 92.51,-31.949 92.51,-89.55"
         style="fill:#231f20;fill-opacity:1;fill-rule:nonzero;stroke:none"
         id="path40" /><path
         d="m 1310.91,291.395 c 25.64,0 38.64,12.273 38.64,34.199 v 154.578 c 0,11.523 3.72,15.605 15.61,15.605 h 42 c 11.89,0 15.98,-4.082 15.98,-15.605 V 328.938 c 0,-62.434 -38.67,-102.571 -112.23,-102.571 -73.21,0 -111.86,40.137 -111.86,102.571 v 151.234 c 0,11.523 3.73,15.605 15.61,15.605 h 42 c 11.89,0 15.97,-4.082 15.97,-15.605 V 325.594 c 0,-21.926 12.64,-34.199 38.28,-34.199"
         style="fill:#231f20;fill-opacity:1;fill-rule:nonzero;stroke:none"
         id="path42" /><path
         d="m 1560.23,501.355 c 54.99,0 86.21,-16.343 103.67,-52.027 5.2,-10.777 2.23,-16.344 -8.92,-20.801 l -37.15,-15.98 c -10.03,-4.465 -14.12,-2.981 -20.07,7.801 -7.06,14.121 -20.45,19.32 -37.53,19.32 -25.27,0 -35.31,-6.316 -35.31,-19.32 0,-15.981 21.93,-19.325 48.69,-22.664 43.1,-5.946 98.83,-16.36 98.83,-86.59 0,-54.629 -49.41,-84.727 -115.19,-84.727 -55.37,0 -94.02,18.957 -108.14,57.606 -4.08,11.14 -0.74,16.34 10.04,20.437 l 34.92,12.625 c 11.15,3.719 16.35,2.602 21.93,-8.164 6.7,-13.016 21.18,-19.699 41.99,-19.699 24.9,0 39.77,5.199 39.77,21.18 0,14.503 -18.95,18.586 -43.48,21.925 -43.48,5.942 -104.42,13.746 -104.42,85.844 0,49.047 39.38,83.234 110.37,83.234"
         style="fill:#231f20;fill-opacity:1;fill-rule:nonzero;stroke:none"
         id="path44" /></g></g></svg>
