<svg width="501" height="77" viewBox="0 0 501 77" fill="none" xmlns="http://www.w3.org/2000/svg">
<path d="M121.994 19.0632C125.942 19.0632 128.941 20.0691 130.99 22.081C133.078 24.0549 134.122 26.731 134.122 30.1094C134.122 33.4878 133.078 36.1639 130.99 38.1378C128.941 40.0737 125.942 41.0417 121.994 41.0417H114.934V54.8779H110.435V19.0632H121.994ZM121.994 37.1698C124.461 37.1698 126.321 36.5435 127.574 35.2909C128.865 34.0382 129.51 32.33 129.51 30.1663C129.51 27.9647 128.865 26.2185 127.574 24.9279C126.321 23.5993 124.461 22.935 121.994 22.935H114.934V37.1698H121.994ZM158.931 37.2268C158.931 34.7594 158.419 32.9943 157.394 31.9314C156.369 30.8686 154.869 30.3371 152.895 30.3371C150.96 30.3371 149.384 30.7357 148.17 31.5329C146.993 32.2921 146.404 33.5068 146.404 35.177H141.451C141.451 31.0014 143.69 28.4202 148.17 27.4332C149.536 27.1296 151.016 26.9777 152.611 26.9777C155.989 26.9777 158.627 27.8318 160.525 29.54C162.423 31.2482 163.372 33.8484 163.372 37.3407V54.8779H159.5L159.045 50.3228C157.375 53.7771 154.357 55.5043 149.992 55.5043C147.069 55.5043 144.715 54.6881 142.931 53.0559C141.185 51.4236 140.312 49.3928 140.312 46.9634C140.312 44.534 141.28 42.636 143.216 41.2695C145.19 39.9029 147.638 39.2197 150.561 39.2197C153.484 39.2197 156.274 39.7131 158.931 40.7001V37.2268ZM158.931 43.547C156.236 42.7878 153.882 42.4082 151.871 42.4082C149.859 42.4082 148.226 42.7689 146.974 43.4901C145.721 44.2113 145.095 45.3501 145.095 46.9064C145.095 50.3228 147.031 52.031 150.903 52.031C153.104 52.031 154.983 51.2528 156.54 49.6965C158.134 48.1022 158.931 46.0524 158.931 43.547ZM185.042 31.4759C180.752 31.4759 178.532 34.8543 178.38 41.6111V54.8779H173.882V27.6041H178.38V32.8425C179.746 29.0465 182.157 27.1486 185.611 27.1486C186.712 27.1486 187.756 27.3194 188.743 27.661L188.515 32.0453C187.376 31.6657 186.218 31.4759 185.042 31.4759ZM205.019 51.8602C208.777 51.8602 210.922 50.2089 211.453 46.9064H216.065C215.648 49.6395 214.433 51.7653 212.421 53.2836C210.447 54.7641 207.98 55.5043 205.019 55.5043C201.375 55.5043 198.414 54.2136 196.137 51.6324C193.859 49.0132 192.72 45.5399 192.72 41.2125C192.72 36.8852 193.859 33.4308 196.137 30.8496C198.452 28.2684 201.508 26.9777 205.304 26.9777C209.138 26.9777 211.985 28.4582 213.845 31.419C215.743 34.3798 216.407 37.986 215.838 42.2374H197.219C197.219 45.0464 197.902 47.362 199.268 49.184C200.635 50.9681 202.552 51.8602 205.019 51.8602ZM208.322 31.2482C207.449 30.7927 206.386 30.5649 205.133 30.5649C202.818 30.5649 200.977 31.362 199.61 32.9563C198.281 34.5127 197.503 36.4676 197.276 38.8211H211.795C211.795 35.0251 210.637 32.5008 208.322 31.2482ZM239.163 54.0808C235.898 55.5992 232.918 55.9218 230.223 55.0487C228.287 54.4414 226.921 53.1698 226.124 51.2338C225.706 50.2848 225.497 49.1461 225.497 47.8175V31.0774H221.113V27.661H225.497V20.0881H229.939V27.661H238.48V31.0774H229.939V47.7605C229.939 50.5316 231.229 51.9171 233.81 51.9171C235.215 51.9171 236.79 51.5755 238.536 50.8922L239.163 54.0808ZM256.129 26.9777C259.925 26.9777 262.981 28.2114 265.297 30.6788C267.65 33.1461 268.827 36.6764 268.827 41.2695C268.827 45.8246 267.65 49.3358 265.297 51.8032C262.981 54.2706 259.925 55.5043 256.129 55.5043C252.333 55.5043 249.259 54.2706 246.905 51.8032C244.59 49.3358 243.432 45.8246 243.432 41.2695C243.432 36.6764 244.59 33.1461 246.905 30.6788C249.259 28.2114 252.333 26.9777 256.129 26.9777ZM264.272 41.2695C264.272 38.005 263.588 35.4617 262.222 33.6396C260.855 31.7796 258.843 30.8496 256.186 30.8496C253.567 30.8496 251.555 31.7796 250.151 33.6396C248.746 35.4617 248.044 38.005 248.044 41.2695C248.044 44.496 248.708 47.0393 250.037 48.8993C251.365 50.7214 253.339 51.6324 255.959 51.6324C258.616 51.6324 260.665 50.7214 262.108 48.8993C263.55 47.0393 264.272 44.496 264.272 41.2695Z" fill="#595859"/>
<path d="M310.061 27.7749C309.416 24.2826 306.853 22.5365 302.374 22.5365C299.983 22.5365 298.142 23.0679 296.851 24.1308C295.56 25.1557 294.915 26.4083 294.915 27.8888C294.915 29.3312 295.314 30.432 296.111 31.1912C296.908 31.9504 298.199 32.6147 299.983 33.1841L307.442 35.7464C309.985 36.6194 311.997 37.8152 313.477 39.3335C314.996 40.8519 315.755 42.9966 315.755 45.7677C315.755 48.5007 314.578 50.8163 312.225 52.7142C309.871 54.5743 306.721 55.5043 302.773 55.5043C298.825 55.5043 295.579 54.5173 293.036 52.5434C290.531 50.5316 289.24 47.7226 289.164 44.1164H293.549C293.549 46.4699 294.365 48.273 295.997 49.5256C297.667 50.7783 299.793 51.4046 302.374 51.4046C304.993 51.4046 307.062 50.8352 308.581 49.6965C310.099 48.5197 310.858 47.1532 310.858 45.5968C310.858 44.0025 310.384 42.7499 309.435 41.8389C308.524 40.9278 307.157 40.1686 305.335 39.5613L299.015 37.2268C296.054 36.2398 293.814 35.0631 292.296 33.6966C290.778 32.33 290.018 30.3371 290.018 27.7179C290.018 25.0608 291.081 22.8591 293.207 21.113C295.333 19.3289 298.313 18.4369 302.146 18.4369C305.98 18.4369 308.903 19.2909 310.915 20.9991C312.965 22.6693 314.142 24.9279 314.445 27.7749H310.061ZM334.856 51.8602C338.614 51.8602 340.759 50.2089 341.29 46.9064H345.902C345.485 49.6395 344.27 51.7653 342.258 53.2836C340.284 54.7641 337.817 55.5043 334.856 55.5043C331.212 55.5043 328.251 54.2136 325.974 51.6324C323.696 49.0132 322.557 45.5399 322.557 41.2125C322.557 36.8852 323.696 33.4308 325.974 30.8496C328.289 28.2684 331.345 26.9777 335.141 26.9777C338.975 26.9777 341.822 28.4582 343.682 31.419C345.58 34.3798 346.244 37.986 345.675 42.2374H327.056C327.056 45.0464 327.739 47.362 329.105 49.184C330.472 50.9681 332.389 51.8602 334.856 51.8602ZM338.159 31.2482C337.286 30.7927 336.223 30.5649 334.97 30.5649C332.655 30.5649 330.813 31.362 329.447 32.9563C328.118 34.5127 327.34 36.4676 327.112 38.8211H341.632C341.632 35.0251 340.474 32.5008 338.159 31.2482ZM363.818 26.9777C367.045 26.9777 369.607 27.8128 371.505 29.4831C373.403 31.1153 374.637 33.1651 375.206 35.6325L370.651 36.0311C370.157 34.4368 369.36 33.2031 368.259 32.33C367.159 31.419 365.944 30.9635 364.615 30.9635C362.186 30.9635 360.212 31.8745 358.694 33.6966C357.213 35.5186 356.473 38.005 356.473 41.1556C356.473 44.2683 357.194 46.7736 358.637 48.6716C360.117 50.5695 361.939 51.5185 364.103 51.5185C366.305 51.5185 367.937 51.025 369 50.0381C370.1 49.0132 370.651 47.5707 370.651 45.7107H375.263C375.263 48.6336 374.238 51.0061 372.188 52.8281C370.176 54.6122 367.538 55.5043 364.274 55.5043C360.819 55.5043 357.878 54.1947 355.448 51.5755C353.057 48.9563 351.861 45.483 351.861 41.1556C351.861 36.7903 353.057 33.3359 355.448 30.7927C357.84 28.2494 360.63 26.9777 363.818 26.9777ZM402.574 49.4687C400.714 53.4165 397.696 55.3904 393.52 55.3904C390.446 55.3904 387.959 54.5363 386.061 52.8281C384.201 51.1199 383.271 48.4818 383.271 44.9136V27.6041H387.77V44.5719C387.77 49.165 389.895 51.4616 394.147 51.4616C396.614 51.4616 398.607 50.5126 400.125 48.6146C401.682 46.7166 402.498 44.2872 402.574 41.3264V27.6041H407.072V54.8779H402.574V49.4687ZM429.702 31.4759C425.413 31.4759 423.192 34.8543 423.04 41.6111V54.8779H418.542V27.6041H423.04V32.8425C424.407 29.0465 426.817 27.1486 430.272 27.1486C431.372 27.1486 432.416 27.3194 433.403 27.661L433.175 32.0453C432.037 31.6657 430.879 31.4759 429.702 31.4759ZM440.57 27.6041H445.068V54.8779H440.57V27.6041ZM442.79 21.2269C441.879 21.2269 441.158 20.9801 440.626 20.4867C440.133 19.9552 439.886 19.272 439.886 18.4369C439.886 17.5638 440.133 16.8805 440.626 16.387C441.158 15.8556 441.879 15.5899 442.79 15.5899C443.701 15.5899 444.422 15.8556 444.954 16.387C445.523 16.8805 445.808 17.5638 445.808 18.4369C445.808 19.272 445.523 19.9552 444.954 20.4867C444.422 20.9801 443.701 21.2269 442.79 21.2269ZM471.535 54.0808C468.27 55.5992 465.29 55.9218 462.595 55.0487C460.659 54.4414 459.293 53.1698 458.496 51.2338C458.078 50.2848 457.869 49.1461 457.869 47.8175V31.0774H453.485V27.661H457.869V20.0881H462.311V27.661H470.851V31.0774H462.311V47.7605C462.311 50.5316 463.601 51.9171 466.182 51.9171C467.587 51.9171 469.162 51.5755 470.908 50.8922L471.535 54.0808ZM473.242 62.7925C475.102 64.2349 477.056 64.9562 479.106 64.9562C480.625 64.9562 481.934 64.197 483.035 62.6786C483.832 61.5778 484.553 59.9076 485.199 57.6679L485.996 54.8779L474.836 27.661H479.846L488.103 49.3548L494.537 27.661H499.092L488.9 60.2872C488.027 63.0582 486.869 65.1839 485.426 66.6643C484.022 68.1448 482.219 68.885 480.017 68.885C477.854 68.885 475.595 68.2207 473.242 66.8921V62.7925Z" fill="#2D589F"/>
<path d="M60.9722 76.3447H15.8472C7.29717 76.3447 0.409668 69.4572 0.409668 60.9072V15.7822C0.409668 7.23223 7.29717 0.344727 15.8472 0.344727H60.9722C69.5222 0.344727 76.4097 7.23223 76.4097 15.7822V60.9072C76.4097 69.4572 69.5222 76.3447 60.9722 76.3447Z" fill="white"/>
<path d="M25.3213 46.79C25.8551 46.9045 26.211 47.2481 26.5076 47.7063C26.7448 48.1072 27.0414 48.4508 27.6345 48.2217C28.1683 47.9926 27.931 47.5918 27.8717 47.1909C27.7531 45.931 27.7531 44.7283 25.8551 44.6138C25.0248 44.5565 24.9655 43.4111 24.9062 42.6094C24.8468 41.3495 24.9655 40.1468 24.6096 38.8869C24.1944 37.1689 23.3641 35.6226 22.0592 34.42C20.7543 33.16 20.0426 31.4993 20.695 29.8385C20.8136 29.4948 20.9916 29.1512 21.4661 29.323C21.8219 29.4948 21.9999 29.8385 21.7626 30.1821C21.5254 30.5257 21.1102 30.7548 21.5847 31.1556C22.0592 31.5565 22.4744 31.3847 22.9489 31.0984C23.6013 30.6975 24.3723 30.9838 25.0841 30.8693C25.6772 30.6402 25.6772 30.1248 25.6772 29.6094C26.6855 29.4376 26.6262 30.5257 27.2193 30.8693C27.16 31.6138 27.3972 32.1865 27.7531 32.8164H27.8124C27.7531 32.9882 27.6938 33.1028 27.6938 33.2746C27.5159 33.6755 28.7614 33.79 28.0497 34.1336C27.1007 34.7063 27.7531 35.279 27.7531 35.8517C27.3379 36.4244 27.8717 36.8825 27.9904 37.3979C27.7531 37.9706 28.6428 38.3715 28.3462 38.8296C27.8124 39.8032 28.4649 39.7459 29.058 39.8605C29.058 40.3759 28.2869 40.4332 28.4055 41.0059C27.5159 42.1512 28.88 44.7856 30.4814 45.1865C30.4814 45.4728 30.4814 45.7592 30.4814 46.0455C30.3628 46.16 29.829 46.0455 30.2442 46.3318C30.5408 46.5609 31.0746 46.5037 31.4897 46.6182C31.6677 46.6755 31.8456 46.7327 32.0236 46.79C32.3201 47.1909 32.8539 47.2481 33.2691 47.4199C33.6843 47.5345 34.0401 47.7063 34.4553 47.8208C35.2857 49.3098 36.7092 50.2261 38.014 51.3142C38.4885 52.5169 37.1244 52.0014 36.8278 52.5169C36.3533 52.4596 35.8788 52.6314 35.4043 52.6887C34.396 52.8032 33.3877 53.4904 32.3794 52.8605C32.0236 52.6314 32.0829 51.7151 31.3711 52.0014C30.778 52.2305 31.3118 52.9177 31.1932 53.3759C31.0153 53.4332 30.8966 53.5477 30.7187 53.605C30.6001 53.605 30.4221 53.605 30.3035 53.605C30.2442 53.605 30.1256 53.605 30.0663 53.605C30.007 53.4332 29.9476 53.2041 29.9476 53.0323C30.7187 52.9177 30.778 52.5169 30.3628 52.0014C29.9476 51.486 29.4138 51.0851 28.6428 51.3142C28.3462 51.1997 28.109 51.0851 27.8124 50.9706C27.6345 50.5125 27.3379 50.3979 26.8634 50.3979C26.9821 49.4816 25.7958 49.8252 25.6179 49.1953C25.9738 48.9089 25.8551 48.7371 25.4993 48.5653C25.3806 47.9926 25.3213 47.42 25.3213 46.79Z" fill="#E1E1E1"/>
<path d="M49.9948 30.9265C49.461 30.9838 48.9272 30.8692 49.4017 31.7283C49.9948 32.7591 51.0624 33.4463 51.1811 34.7635C51.2404 35.2217 51.1811 35.6225 51.0031 36.0234C50.8252 36.0234 50.5879 36.0234 50.41 36.0234C50.1728 35.9089 49.9948 35.8516 49.7576 35.7371C49.5796 35.6798 49.461 35.6798 49.2831 35.6225C49.1645 35.1071 48.9865 34.5344 48.4527 34.1908C48.3934 33.7899 48.3341 33.3318 48.2748 32.8736C47.6224 33.2745 47.0292 33.6181 46.2582 33.6181C45.7244 33.0454 44.9533 32.9882 44.5382 33.5036C44.1823 33.9617 44.9533 34.2481 45.3092 34.5344C45.3092 34.7635 45.3092 34.9353 45.072 35.1071C44.8347 35.1071 44.7754 35.2217 44.8347 35.4507C44.8347 35.7943 44.9533 36.1952 44.4788 36.367C44.3602 35.508 43.945 35.5653 43.3519 35.9089C42.8774 36.1952 42.6402 36.7106 42.0471 36.8252C41.5726 36.997 41.0388 37.2261 40.5643 37.3979C39.7932 37.1688 39.556 37.7415 39.2001 38.1996C38.1325 37.9133 37.1835 37.856 36.5311 38.8869C36.4125 38.8869 36.2938 38.8296 36.2345 38.8296C36.1159 37.9133 35.6414 38.4287 35.2262 38.6005C34.9297 38.715 34.6924 38.8296 34.3959 38.9441C33.9807 38.4287 33.8621 37.3406 32.7351 38.0278C32.3199 37.5124 31.8455 37.0542 31.4303 36.5388C31.5489 35.2217 30.1254 34.7062 29.6509 33.6754C29.473 33.2745 29.1171 32.8736 28.9985 32.3582C29.3544 31.7283 29.473 31.1556 28.6426 30.812C28.6426 30.6402 28.6426 30.4111 28.5833 30.4111C27.6343 29.8957 27.4564 29.0366 27.2785 28.1776C27.2191 28.0058 27.1598 27.7767 27.1598 27.6049C27.1598 26.5168 27.2191 25.4287 27.6936 24.3406C27.9902 23.5961 26.804 21.878 25.9736 21.7635C25.9143 21.7635 25.7957 22.1071 25.7364 22.2789C25.6177 22.2217 25.4991 22.2217 25.4398 22.1644C25.2619 21.878 25.0246 21.5917 24.8467 21.3054C24.9653 21.1908 25.1432 21.1336 25.2619 21.019C25.7364 20.7327 25.855 20.3891 25.7957 19.8164C25.5584 18.4419 25.1432 17.0102 25.677 15.6358C25.7364 15.4067 25.855 15.2349 25.9143 15.0058C26.5074 14.6049 27.1005 14.204 27.3378 13.5741C28.3461 13.8604 29.2951 13.5168 30.1847 13.1159C31.1337 12.7151 32.142 12.2569 33.2096 12.6578C34.0993 13.5168 37.658 13.6886 38.8442 12.8869C38.9629 12.8869 39.0222 12.9441 39.1408 13.0014C39.9712 13.8604 40.6236 14.0322 40.9201 12.6005C40.9201 12.5432 40.9201 12.486 40.9795 12.4287C41.6319 12.8869 42.4029 13.0014 43.174 13.1732C43.3519 13.1732 43.5892 13.1732 43.7671 13.2305C43.8857 13.2305 44.0043 13.1732 44.0637 13.1732C44.5975 13.345 44.9533 12.7723 45.4871 12.7723C45.3685 15.0631 47.0292 16.7239 47.6817 18.7855C48.2155 20.5609 49.7576 21.9353 49.7576 23.9397C49.2238 23.8252 48.7493 23.3098 48.0969 23.4243C46.7327 23.0234 45.7244 22.4507 46.3175 20.6181C45.4871 21.019 45.1906 21.4772 44.7754 21.878C44.1823 22.3935 43.2926 22.5653 43.0554 21.8208C42.7588 20.6754 41.9878 19.6446 42.1064 18.4419C42.1657 17.7547 41.8098 17.7547 41.3946 18.041C40.2084 18.7283 38.7849 17.812 37.658 18.7283C37.658 18.7283 37.4208 18.5565 37.3614 18.4419C36.709 17.5829 35.76 17.5256 34.8704 17.7547C34.04 18.041 33.1503 17.9265 32.6758 17.6402C31.4303 16.8957 31.0151 17.6974 30.3627 18.3274C30.6592 18.7855 31.5489 18.4992 31.4303 19.2437C31.3117 20.16 30.5999 19.4155 30.1847 19.5873C29.7695 19.7591 29.2951 19.7591 28.8799 19.9882C28.4054 20.2173 28.1088 20.7899 28.7612 20.9617C29.5323 21.1908 29.7695 21.5917 30.1254 22.1644C30.422 22.6798 31.1337 23.138 31.7268 22.3362C31.9048 22.1071 32.0827 21.878 32.3199 21.9353C33.6841 22.3935 35.0483 21.9926 36.4125 21.8208C37.3614 21.7062 37.658 22.2789 37.658 23.138C37.658 23.997 37.1835 24.2833 36.3531 24.2261C35.7007 24.2261 35.1076 23.9397 34.5145 23.6534C33.9214 23.367 33.2096 22.7371 32.5572 23.6534C32.0234 24.4551 31.4303 24.7987 30.7185 23.8252C30.5406 23.5961 30.1254 23.3098 29.7695 23.6534C29.5323 23.8825 29.3544 24.2261 29.4137 24.6269C29.4137 25.0851 29.7102 25.2569 30.1254 25.1996C30.8372 25.1424 31.0151 25.7723 31.4303 26.1159C32.2606 26.7459 33.3282 27.4904 34.0993 26.5168C34.7517 25.6578 35.4635 25.8296 36.2345 25.7723C36.2938 26.0587 36.4125 26.345 36.4718 26.6313C36.3531 26.6313 36.2938 26.6313 36.1752 26.6886C35.6414 26.975 35.1076 27.4331 35.4042 27.8913C35.76 28.4639 36.1159 27.6622 36.4718 27.5476C36.8869 27.4331 37.3021 27.3186 37.7766 27.204C37.8359 27.4331 37.7766 27.7195 38.0732 27.834C38.4884 29.323 39.2594 28.2921 39.9118 28.1203C40.0305 28.5212 39.6153 29.1512 40.327 29.3802C40.5643 29.4375 40.9795 29.6093 40.9795 29.3802C40.9201 28.5785 41.9284 28.4639 42.0471 27.7767C42.4029 27.1468 42.7588 26.4595 43.1147 25.8296C43.1147 25.6578 43.174 25.5432 43.174 25.3714C43.3519 24.7987 43.1147 24.6842 42.5809 24.856C42.5809 24.7987 42.6402 24.7415 42.6402 24.6269C42.6402 23.4816 43.6485 23.7106 44.2416 23.5388C45.0126 23.3098 45.4871 23.8252 45.7244 24.4551C45.5465 24.7987 45.0126 24.7988 45.2499 25.486C45.5465 26.4023 45.6058 27.3758 46.3768 28.0631C46.7327 29.6093 47.8003 29.7239 49.1645 29.4375C50.3507 29.5521 49.8762 30.3538 49.9948 30.9265Z" fill="#E3E3E3"/>
<path d="M33.0912 56.0103C32.5574 56.0676 32.2608 55.6667 31.9049 55.3804C32.0829 54.5786 31.6084 54.0059 31.1932 53.4332C31.3118 52.9751 30.778 52.3451 31.3711 52.0588C32.0829 51.7724 32.0236 52.6887 32.3794 52.9178C33.3877 53.5478 34.396 52.8605 35.4043 52.746C35.8788 52.6887 36.3533 52.5169 36.8278 52.5742C36.3533 53.0323 37.065 53.6623 36.8278 53.8914C35.7009 55.094 36.5312 56.2394 36.8278 57.3848C36.9464 57.6711 37.0057 58.0147 37.4209 57.8429C38.3699 57.3848 39.0816 58.0147 39.8527 58.2438C40.0306 58.6447 39.4968 59.0456 39.8527 59.5037C39.6154 59.9046 40.3272 60.8782 39.0816 60.7636C38.1326 60.3627 37.5988 61.5654 36.6499 61.279C36.6499 60.9354 36.6499 60.5918 36.2347 60.3627C36.2347 60.2482 36.2347 60.1909 36.1754 60.1337C36.1754 60.0764 36.1754 59.9619 36.1754 59.9046C36.1754 59.2174 36.294 58.4156 35.2264 58.3583C34.8705 57.6138 34.9298 56.5257 33.6843 56.583C33.7436 56.1821 33.5063 56.0103 33.0912 56.0103Z" fill="#D8D8D8"/>
<path d="M48.2156 23.4815C48.0377 23.6534 47.919 23.8252 47.7411 23.997C47.148 24.1115 46.4956 24.2833 45.9024 24.3978C45.6652 23.7106 45.25 23.2525 44.4197 23.4815C43.7672 23.6534 42.7589 23.4243 42.8182 24.5697C41.8693 24.5124 40.9203 24.5124 40.0306 24.4551C39.8527 23.8252 39.5561 22.8516 39.0223 22.8516C38.2512 22.8516 38.3699 23.8824 38.1919 24.5124C37.9547 25.486 36.9464 25.2569 36.3533 25.6578C35.5822 25.715 34.9298 25.6005 34.2181 26.4022C33.447 27.3758 32.3794 26.6313 31.549 26.0014C31.1338 25.6578 30.9559 25.0278 30.2442 25.0851C29.829 25.1423 29.5324 24.9133 29.5324 24.5124C29.5324 24.1688 29.6511 23.8252 29.8883 23.5388C30.2442 23.1952 30.6594 23.4815 30.8373 23.7106C31.6083 24.6842 32.1421 24.3406 32.6759 23.5388C33.3284 22.5652 34.0401 23.2525 34.6332 23.5388C35.2263 23.8252 35.8195 24.1115 36.4719 24.1115C37.2429 24.1688 37.7767 23.8824 37.7767 23.0234C37.7767 22.1644 37.4802 21.649 36.5312 21.7062C35.167 21.8208 33.8029 22.2789 32.4387 21.8208C32.2015 21.7635 31.9642 21.9926 31.8456 22.2216C31.1932 23.0234 30.5407 22.5653 30.2442 22.0498C29.8883 21.4771 29.5917 21.0763 28.88 20.8472C28.2276 20.6754 28.5241 20.1027 28.9986 19.8736C29.4138 19.7018 29.8883 19.6445 30.3035 19.4727C30.7187 19.3009 31.3711 20.1027 31.549 19.1291C31.6676 18.3846 30.778 18.671 30.4814 18.2128C31.1338 17.5829 31.549 16.7811 32.7946 17.5256C33.3284 17.812 34.1587 17.9265 34.9891 17.6401C35.8195 17.3538 36.8278 17.4111 37.4802 18.3274C37.5395 18.4992 37.7767 18.671 37.7767 18.671C38.9037 17.812 40.3865 18.7282 41.5134 17.9838C41.9286 17.7547 42.3437 17.7547 42.2251 18.3846C42.0472 19.6445 42.8776 20.6754 43.1741 21.7635C43.4114 22.5653 44.3603 22.3934 44.8941 21.8208C45.3093 21.4771 45.6059 20.9617 46.4363 20.5608C45.8431 22.508 46.8514 23.1379 48.2156 23.4815Z" fill="#E9E9E9"/>
<path d="M51.4182 41.3493C51.4182 41.5211 51.3589 41.6357 51.3589 41.8075C50.8844 41.922 50.9437 42.2656 51.003 42.552C51.1216 43.4683 51.0623 44.27 50.2913 45.0718C49.8168 45.5872 49.283 46.4462 49.9947 47.0762C50.7657 47.7061 50.3506 47.9352 49.8168 48.107C48.5712 48.3934 48.8678 48.966 49.4609 49.596C49.9947 50.1687 50.7657 50.455 51.0623 51.1423C50.7064 52.2304 49.1643 53.0894 50.4692 54.4066C50.2913 54.4638 50.054 54.4638 50.1133 54.6929C50.1133 54.7502 50.3506 54.8075 50.4692 54.8647C50.5285 54.922 50.6471 55.0365 50.7064 55.0938C50.7064 55.2083 50.7657 55.3801 50.7657 55.3801C51.003 55.3801 50.8844 55.2083 50.9437 55.0938C51.6554 55.2083 52.3672 55.4374 52.6637 55.0938C52.1299 55.0938 52.5451 56.9837 51.003 56.1819C50.8251 56.0674 50.5878 56.2392 50.5285 56.411C50.2913 57.2127 49.8168 56.9264 49.3423 56.6401C48.8085 56.2964 48.3933 56.411 48.4526 57.0409C48.5712 57.8427 48.0374 57.4418 47.7409 57.5564C47.385 57.6709 47.207 56.9837 46.9105 57.4991C45.487 57.7854 45.2498 57.5564 45.5463 55.781C45.0125 56.5255 44.6566 56.2964 44.1822 56.1246C43.6484 55.9528 42.9959 55.6092 42.4028 56.0674C42.4028 55.4374 41.4538 55.6665 41.3945 55.0938C41.5724 55.0938 41.869 55.0938 41.8097 54.8075C41.7504 54.4638 41.4538 54.4066 41.1573 54.4066C40.8607 54.4066 40.5641 54.2348 40.2083 54.2348C39.5558 54.2348 39.5558 53.3757 39.022 53.0321C38.7848 52.8603 38.8441 52.6312 39.0814 52.4022C39.3779 52.1731 39.8524 51.8295 39.4372 51.6004C38.8441 51.3141 38.6662 50.226 37.7172 50.6841C37.6579 50.6268 37.5986 50.5696 37.6579 50.5123C37.7765 49.7105 37.5986 49.0806 36.6496 48.9088C35.8192 48.737 35.4633 48.3361 36.353 47.5916C35.8785 47.7634 35.6413 47.1907 35.3447 47.4771C34.9889 47.7634 34.633 47.4771 34.2771 47.5916L34.3364 47.5343L34.2771 47.5916C34.2771 47.4771 34.3957 47.3625 34.2178 47.248C34.1585 47.3625 34.1585 47.4198 34.0992 47.5343C33.8026 47.5343 33.5654 47.5343 33.3281 47.3053C33.5061 46.2172 33.5654 45.0718 35.1668 44.6709C34.2178 44.5564 34.2178 44.5564 34.5737 43.8691C34.633 43.7546 34.633 43.6401 34.5737 43.4683C34.2178 42.8383 34.2771 42.8383 34.9295 42.8956C35.1668 42.8956 35.6413 43.0101 35.6413 42.9528C35.9378 42.3229 35.8785 41.5784 36.5903 41.1775C35.9378 40.7766 36.6496 40.5475 36.7682 40.2612C37.0054 40.4903 37.5393 40.3185 37.6579 40.9484C37.7765 41.5211 38.0731 42.0365 38.7255 42.4374C39.3779 42.8383 39.6745 41.7502 39.971 42.1511C40.6828 43.1246 41.5724 42.4947 42.4028 42.552C42.4028 42.6092 42.3435 42.6665 42.2842 42.7238C42.1062 42.8956 41.7504 43.0674 41.9876 43.411C42.2842 43.2964 42.2249 42.9528 42.2842 42.7238C42.3435 42.8383 42.4028 42.8956 42.4621 43.0101C42.5807 43.2964 42.5807 43.5828 42.7587 43.7546C42.9959 43.9837 43.4111 44.4991 43.6484 43.7546C43.767 43.7546 43.8263 43.7546 43.9449 43.8119C44.0042 43.8119 44.1228 43.8691 44.1822 43.8691C44.2415 44.0409 44.1822 44.4991 44.4787 44.3273C45.1905 43.9264 45.8429 44.3273 46.4953 44.3846C48.156 44.4991 49.1643 43.5828 48.9864 41.8647C49.0457 41.7502 49.105 41.6929 49.1643 41.5784C49.105 41.5784 49.105 41.5211 49.0457 41.5211C48.9864 41.6357 48.9864 41.7502 48.9271 41.8647C48.334 41.8647 47.7409 41.6929 47.4443 41.1202C47.5036 41.0057 47.5629 40.9484 47.6222 40.8339C47.5629 40.8339 47.5629 40.7766 47.5036 40.7766C47.4443 40.8912 47.4443 41.0057 47.385 41.1202C46.9698 41.2348 46.7919 40.433 46.3174 40.8339C46.0208 41.063 45.6649 41.2348 45.5463 40.7766C45.487 40.433 45.1311 40.0321 45.6649 39.6885C46.2581 39.2876 46.8512 39.0586 47.5629 39.2304C47.8002 39.2876 48.0374 39.4594 48.2153 39.1158C48.3933 38.6577 47.9188 38.715 47.7409 38.5431C47.4443 38.3141 47.0291 38.3141 46.6732 38.4286C45.6649 38.6004 44.6566 38.715 43.589 38.5431C43.9449 38.1995 44.3601 38.0277 44.8939 38.085C44.9532 38.085 44.9532 38.1423 45.0125 38.1423C44.9532 38.1423 44.9532 38.085 44.8939 38.085C45.0125 37.5123 45.0718 36.9396 45.1905 36.4242C45.5463 36.0806 45.9615 35.9661 46.436 36.1379C47.207 36.4815 46.9698 35.3361 47.5629 35.4506C47.5036 35.3934 47.5036 35.3361 47.5036 35.2788C47.0884 35.0498 47.0291 35.6797 46.6732 35.5652C46.5546 35.1643 46.436 34.8207 46.3174 34.4198C46.2581 34.1907 45.9615 33.9617 46.1987 33.7898C46.5546 33.5035 46.6732 33.8471 46.7919 34.1335C46.9698 34.4198 47.3257 34.248 47.4443 34.1335C47.8595 33.6753 48.0967 34.1335 48.3933 34.3053C49.4016 35.2216 50.1726 36.5387 51.774 36.7105C51.8927 36.8824 51.952 37.1114 52.0706 37.2832C51.8927 37.9705 51.774 38.7722 51.6554 39.4594C51.5368 39.9176 50.5285 40.6048 51.4182 41.3493ZM46.1987 57.0982C46.1987 57.0982 46.1987 57.0409 46.1394 57.0409H46.0801C46.1394 56.9837 46.1394 57.0409 46.1987 57.0982C46.1987 57.1555 46.1988 57.1555 46.2581 57.1555H46.3174C46.2581 57.1555 46.1987 57.0982 46.1987 57.0982ZM45.6056 37.5696C45.5463 37.6268 45.5463 37.6841 45.487 37.7414C45.5463 37.7414 45.6056 37.7987 45.6649 37.7987L45.7243 37.7414C45.7243 37.6268 45.6649 37.5696 45.6056 37.5696Z" fill="#020202"/>
<path d="M42.4029 56.1246C42.996 55.6665 43.6484 56.0674 44.1823 56.1819C44.6567 56.3537 45.0719 56.5828 45.5464 55.8383C45.2499 57.6136 45.4278 57.8427 46.9106 57.5563C46.9106 57.7854 46.9106 58.0145 46.9106 58.2436C46.8513 58.3008 46.8513 58.3008 46.792 58.3581C46.8513 58.3008 46.8513 58.3008 46.9106 58.2436C47.2071 58.0145 47.2071 57.7281 46.9106 57.4991C47.2071 56.9837 47.3851 57.7281 47.741 57.5563C48.0375 57.4418 48.5713 57.8427 48.4527 57.0409C48.3341 56.411 48.8086 56.2964 49.3424 56.64C49.8169 56.9264 50.2914 57.27 50.5286 56.411C50.5879 56.2392 50.8252 56.0674 51.0031 56.1819C52.4859 57.0409 52.13 55.0938 52.6638 55.0938C52.3079 55.4374 51.5962 55.2083 50.9438 55.0938C50.8252 54.922 50.6472 54.8647 50.4693 54.8647C50.4693 54.6929 50.4693 54.5784 50.4693 54.4066C49.1051 53.0894 50.7065 52.2303 51.0624 51.1422C51.359 51.2568 51.7148 51.3713 52.0114 51.5431C52.1893 52.1731 52.6045 52.0585 53.0197 51.7722C53.1976 51.8295 53.3756 51.8295 53.5535 51.8867C53.5535 51.944 53.6128 52.0013 53.6128 52.0585C53.6721 52.0013 53.7314 51.944 53.7314 51.944C55.2142 52.1158 56.5784 52.8603 58.0019 53.2612C58.0612 53.7766 58.4764 54.0629 58.7729 54.4638C58.9509 54.5211 59.1881 54.4066 59.3067 54.6356C59.0102 54.9793 58.9508 55.4947 58.2391 55.2083C57.9426 55.0938 57.3494 55.1511 57.4087 55.4947C57.5274 56.9264 56.5191 56.2964 55.926 56.3537C55.2735 56.411 54.9177 56.5255 54.977 56.5828C55.3328 56.9264 54.7397 57.9572 56.0446 57.6709C54.799 58.6444 53.4942 59.1026 52.4859 59.8471C51.8928 60.3052 50.8252 60.4198 50.7065 61.4506C50.5286 61.4506 50.4693 61.5652 50.4693 61.6797C50.0541 61.9088 49.6982 62.1951 49.5203 62.6533C49.2831 62.7105 49.0458 62.7678 48.9865 62.9969H48.9272H48.9865C49.0458 63.0541 49.1051 63.1114 49.1644 63.0541C48.9865 63.2832 48.8679 63.5696 48.6899 63.7986C48.2748 63.9132 47.8003 63.9132 47.4444 64.085C47.0292 64.3141 46.3175 64.4859 46.7327 65.2876C46.7327 65.4594 46.6733 65.574 46.6733 65.7458C46.3175 65.7458 46.0802 65.9748 45.9023 66.2612C45.4871 66.3757 45.3092 67.0057 44.7161 66.7193C44.6567 66.7193 44.6567 66.6621 44.5974 66.6621H44.5381C44.5974 66.6621 44.6567 66.6621 44.7161 66.6621C44.7161 67.3493 43.5891 67.1775 43.6484 67.922C43.0553 67.4638 42.6995 67.6929 42.4622 68.3229C42.4029 68.4947 42.3436 68.6092 42.2843 68.7237C42.225 68.8383 42.1657 69.3537 41.9284 68.8383C41.8691 68.7237 41.0387 68.6665 41.8098 68.3801C42.225 68.2656 41.9877 68.0938 41.9284 67.9792C41.6319 67.5784 41.6912 68.2656 41.5725 68.0938C41.1574 67.4066 40.3863 69.1246 40.1491 67.8647C40.327 66.3185 41.5132 65.574 42.7588 64.944C43.2926 64.6577 43.7671 64.3713 44.1823 63.9704C44.3009 64.0277 44.3602 64.0277 44.4788 64.085C44.4788 64.4286 44.4788 64.944 45.0126 64.6577C45.4278 64.4286 46.1395 64.1995 45.665 63.455C45.843 63.2832 46.0209 63.1687 46.1988 62.9969C46.792 63.3405 46.5547 62.7678 46.7327 62.596C47.1478 62.0233 48.2154 62.3096 48.3934 61.4506C48.5713 61.2788 48.6899 61.0497 48.8679 60.9352C49.6389 60.477 48.3341 60.5343 48.6306 60.0189C48.8086 59.7326 48.2154 59.9616 48.1561 60.0189C47.5037 60.7061 47.2071 60.1334 47.0292 59.6753C46.792 59.1026 46.1988 59.0453 45.843 58.4726C45.7837 59.3317 45.4871 59.4462 44.6567 59.3317C43.945 59.2171 44.0636 58.3581 43.3519 58.4726L43.2926 58.4154C43.174 58.0718 42.996 57.7281 42.5215 58.0718C42.047 58.3008 41.6319 58.7017 41.2167 58.0718C41.5725 57.27 42.1063 56.4682 40.7422 56.0674C40.6829 55.781 40.5049 55.6092 40.3863 55.3801C39.6153 54.292 38.3104 53.6621 37.7173 52.4594C37.7766 52.4022 37.8359 52.4022 37.8359 52.3449C38.0732 52.1731 38.607 52.4594 38.6663 52.0585C38.7256 51.7149 38.3697 51.4286 38.0138 51.2568C37.9545 51.085 37.9545 50.9704 37.8952 50.7986C38.8442 50.3405 39.0221 51.4286 39.6153 51.7149C40.0304 51.8867 39.5559 52.2876 39.2594 52.5167C39.0221 52.6885 38.9628 52.9748 39.2001 53.1466C39.7339 53.4903 39.6746 54.3493 40.3863 54.3493C40.7422 54.3493 40.9794 54.5211 41.3353 54.5211C40.7422 54.9792 41.276 55.0365 41.5725 55.2083C41.5132 55.6665 42.4029 55.4374 42.4029 56.1246C42.2843 56.1246 42.1657 56.1819 42.047 56.1819C42.047 56.2392 42.1063 56.2964 42.1063 56.2964C42.225 56.2392 42.3436 56.1819 42.4029 56.1246ZM49.2831 57.6709C49.2237 57.6136 49.1644 57.5563 49.1051 57.5563C49.0458 57.5563 48.9865 57.6136 48.9272 57.6709C48.9865 57.7281 49.0458 57.7854 49.1051 57.7854C49.1051 57.7854 49.2237 57.7281 49.2831 57.6709ZM49.1051 57.1555C49.1051 57.0982 49.1051 57.0982 49.1051 57.0409C49.0458 57.0409 48.9865 57.0409 48.9865 57.0409C48.9865 57.0982 48.9865 57.0982 49.0458 57.0982C49.0458 57.1555 49.1051 57.1555 49.1051 57.1555Z" fill="#202020"/>
<path d="M18.8557 14.7767C18.915 14.6622 19.0337 14.6049 19.093 14.4904C19.3302 14.2613 19.093 14.3185 18.9744 14.3185C18.3812 14.1467 18.4405 13.7459 18.6185 13.2877C19.3302 13.7459 19.9233 12.8296 20.6351 13.0586C21.762 13.4595 22.533 12.9441 23.3041 12.2569C22.4737 11.7987 21.5841 12.2569 20.813 12.0278C20.6944 11.5124 21.2875 10.997 20.6944 10.5388C21.1096 10.367 21.5841 10.2525 21.9992 10.0807C21.8806 10.2525 21.8213 10.4243 21.9992 10.5388C22.1179 10.6534 22.2958 10.5961 22.3551 10.4243C22.5924 10.3097 22.7703 9.96613 23.1262 10.0807C23.9565 10.7679 24.3717 10.0234 24.9055 9.62252C25.4986 9.39344 25.7952 9.67978 25.9731 10.1952C26.2104 10.6534 26.6256 10.9397 27.1594 10.7106C27.6339 10.4815 28.049 10.0807 27.6339 9.45071C27.6932 9.33617 27.7525 9.22163 27.8118 9.16437C28.049 9.16437 28.2863 9.16437 28.5828 9.16437C28.6422 9.45071 28.7015 9.79432 28.3456 10.0234C27.8711 10.3097 28.1083 10.5388 28.4049 10.8252C28.8201 11.226 29.4725 11.3406 29.6504 11.1115C30.0063 10.6534 30.3622 10.0234 29.8284 9.39344C30.5401 8.93529 31.2519 8.53441 32.1415 9.22163C32.1415 8.87802 32.0822 8.59168 32.0822 8.3626C32.3195 8.41987 32.616 8.47714 32.8533 8.53441C32.8533 8.99256 32.8533 9.45071 32.794 9.85159C32.616 9.90886 32.4974 10.0807 32.6753 10.1952C32.8533 10.3097 32.8533 10.0807 32.9719 9.96613C33.3278 9.90886 33.6836 9.85159 34.0988 9.85159C34.7512 9.85159 35.4037 9.85159 34.7513 8.93529C34.6919 8.82075 34.8699 8.47714 34.6919 8.30533C35.463 7.96172 36.234 7.50357 37.1237 8.01899C37.1237 8.13353 37.0644 8.3626 37.361 8.13353C37.7168 7.90445 37.8948 8.24807 38.132 8.3626C38.1913 8.53441 38.31 8.59168 38.3693 8.3626C38.4879 8.3626 38.6658 8.3626 38.7844 8.30533C39.1403 8.47714 39.4369 8.59168 39.7927 8.76348C39.6148 8.99256 39.3776 9.16437 39.1996 9.39344C38.9031 9.73705 37.8355 9.22163 38.1913 10.2525C38.1913 10.3097 37.6575 10.367 37.6575 10.1952C37.8355 9.04983 36.8865 9.45071 36.3527 9.39344C36.1154 9.33617 35.9375 8.70622 35.6409 9.2789C35.4037 9.67978 36.0561 9.62252 36.0561 9.90886C34.8699 10.0807 34.6919 10.7106 35.2851 11.6269C35.5223 11.9133 35.7595 12.1423 35.9968 12.4287C35.8782 12.715 35.6409 12.7723 35.4037 12.7723C35.2257 12.715 34.9885 12.6578 34.8106 12.6005C34.514 12.0278 33.9802 11.7415 33.3278 11.9133C32.8533 12.1423 33.3278 10.8252 32.616 11.4551C32.5567 11.4551 32.4381 11.3978 32.3788 11.3978C31.7857 10.997 31.7857 11.0542 31.3705 12.1423C31.0146 12.0851 29.947 12.8296 29.5911 13.345C28.4642 12.8296 27.7525 13.6886 26.9221 14.0895C26.7442 14.0322 26.5069 13.9749 26.5069 13.9177C26.5069 12.8296 25.8545 12.8296 25.0241 13.0586C24.7276 13.1159 24.431 13.1159 24.0752 13.1159C24.3124 13.5741 24.7276 13.6313 25.0241 13.8031C24.7869 14.3758 24.1345 13.9177 23.7193 14.3185C24.3717 14.5476 24.5496 14.9485 23.8972 15.2921C23.7193 15.4067 23.482 15.4067 23.482 15.6357C23.482 15.9793 23.8379 15.9221 24.0158 15.9793C24.3124 16.0366 24.5496 16.1511 24.8462 16.2084C25.4986 17.182 25.2614 17.9265 24.0752 18.4419C24.6683 18.7855 25.1428 18.5564 25.6173 18.3846C25.7359 18.5564 26.0324 18.6137 25.8545 18.9C25.38 18.9573 24.8462 18.8428 24.609 19.3582C23.6007 19.3009 22.8296 18.3274 21.7027 18.4992C21.9992 18.3274 22.3551 18.2128 22.8889 17.9265C22.2958 17.9265 21.9399 17.8119 21.7027 17.9265C20.7537 18.3846 19.7454 18.671 18.6778 18.4419C18.2626 18.3846 18.0847 18.8428 18.2626 19.2437C18.4999 19.8163 18.3812 20.16 17.7881 20.389C17.0171 19.7591 17.6102 19.0719 17.6695 18.4419C18.4999 17.9837 17.7288 17.9265 17.4916 17.6974C17.0764 16.6093 17.6695 15.8648 18.2033 15.0058C18.3812 14.9485 18.6778 15.0058 18.8557 14.7767ZM20.1606 17.3538C21.3468 17.7547 22.4737 17.4683 23.5413 17.5256C24.1938 17.5829 24.0752 17.182 23.7193 16.8956C23.2448 16.552 22.711 16.2084 22.2365 15.9221C21.762 15.5785 21.4654 15.5785 21.4061 16.2657C21.3468 16.8384 20.9909 17.2965 20.1606 17.3538Z" fill="#202020"/>
<path d="M43.5891 38.4291C44.5974 38.6009 45.6057 38.4864 46.6733 38.3146C47.0292 38.2573 47.4444 38.2 47.741 38.4291C47.9189 38.5436 48.3934 38.5436 48.2154 39.0018C48.0375 39.3454 47.8003 39.1736 47.563 39.1163C46.8513 39.0018 46.2582 39.1736 45.665 39.5745C45.1906 39.9181 45.4871 40.3762 45.5464 40.6626C45.665 41.1207 46.0209 41.0062 46.3175 40.7199C46.792 40.319 46.9699 41.1207 47.3851 41.0062C47.741 41.5789 48.2748 41.6934 48.8679 41.7507C49.0458 43.4688 48.0968 44.385 46.3768 44.2705C45.7244 44.2132 45.0719 43.8124 44.3602 44.2132C44.0043 44.3851 44.1229 43.9269 44.0636 43.7551C44.4195 43.5833 44.4195 43.2397 44.5974 42.9533C45.2499 43.2397 46.1395 43.0106 46.5547 43.8696C46.614 44.0414 46.9106 43.8124 47.1478 43.6406C47.8003 43.0106 46.7327 42.667 47.2071 41.9798C46.7327 42.3806 47.0292 42.8388 46.4954 42.9533C46.3768 42.7243 46.1395 42.4379 46.1988 42.2088C46.4954 41.2925 45.6057 41.4643 45.2499 41.3498C44.6567 41.178 44.6567 41.6362 44.7161 42.0943C44.7161 42.2661 44.5381 42.4379 44.3009 42.4952C43.5891 41.9225 42.9367 41.5216 42.225 42.4952C41.3946 42.4952 40.5642 43.1251 39.7932 42.0943C39.4966 41.6934 39.2001 42.7243 38.5477 42.3806C37.8952 42.037 37.5394 41.4643 37.48 40.8917C37.3614 40.2617 36.8276 40.4908 36.5904 40.2044C36.4717 40.4908 35.76 40.7199 36.4124 41.1207C35.7007 41.5216 35.76 42.3234 35.4634 42.8961C35.4634 42.9533 34.989 42.8388 34.7517 42.8388C34.0993 42.7815 34.0993 42.7815 34.3958 43.4115C34.5145 43.5833 34.5145 43.6978 34.3958 43.8124C34.04 44.4996 34.04 44.4996 34.989 44.6141C33.3875 45.015 33.3282 46.1604 33.1503 47.2485C32.142 46.9621 31.1337 46.6758 30.1254 46.1031C30.5406 46.1031 30.8371 46.0458 31.1337 46.0458C31.3709 46.3895 31.7268 46.3895 32.0234 46.1604C32.2606 45.9313 32.0827 45.645 31.8454 45.4159C31.7268 45.3013 31.3116 45.3586 31.6082 45.0723C31.1337 44.7287 31.4896 43.6406 30.422 43.8696C30.3033 43.4688 30.422 42.8961 29.6509 42.8961C29.5323 42.667 29.473 42.4379 29.3543 42.2088C29.5916 41.2925 30.1254 40.4335 29.4137 39.4599C29.8288 38.4864 28.9392 38.3718 28.4054 38.0855C28.346 37.341 27.8122 36.7683 27.7529 36.0238C27.7529 35.7375 27.8716 35.6229 27.8716 35.3939C28.346 35.3366 28.2274 34.5348 28.8205 34.6494C29.4137 34.8784 29.2357 35.3366 29.2357 35.7947C29.2357 36.1384 28.5833 36.3674 29.0578 36.6538C29.473 36.8828 29.6509 36.3102 30.0068 36.1956C30.4813 36.0811 30.1847 35.5084 30.5999 35.4511L30.6592 35.5084C30.5406 35.7947 30.6592 36.0238 30.7778 36.3102C30.9558 36.1956 31.193 36.0811 31.3709 35.9665C31.3709 36.1956 31.4303 36.4247 31.4303 36.5965C31.2523 36.6538 31.0151 36.6538 30.8964 36.711C30.7778 36.8256 30.8964 36.9974 31.0744 37.0547C31.3116 37.1692 31.5489 37.2837 31.5489 36.8828C31.7861 36.8828 32.142 36.9401 32.142 37.1692C32.2606 38.2 33.1503 38.4291 33.862 38.9445C33.862 39.1163 33.862 39.2881 33.862 39.4599C33.7434 39.5745 33.6248 39.7463 33.5062 39.5172C33.3282 39.1736 33.3282 38.7154 32.7351 39.1163C32.4979 39.2881 32.142 39.4027 32.3199 39.7463C32.4979 40.0899 32.6758 40.2617 33.2096 40.319C34.0993 40.3762 34.6924 40.0899 35.2855 39.5172C35.7007 39.0018 36.4124 39.3454 36.8276 38.8873C37.0055 38.8873 37.1242 38.9445 37.3021 38.9445C37.4207 39.1736 37.5394 39.4599 37.5987 39.689C37.8359 40.6626 38.2511 41.0635 39.0815 40.2044C39.5559 40.4908 40.0304 40.7771 40.6829 41.178C40.5642 40.2617 41.098 39.8608 41.6912 39.4599C42.225 39.1163 42.6402 38.6582 43.1146 38.2573C43.5298 38.4291 43.5891 38.4291 43.5891 38.4291ZM31.6675 41.4071C31.4303 42.8388 32.6758 43.8124 32.3199 45.1868C32.9724 44.8432 33.9807 44.7287 33.4468 43.9842C32.8537 43.1824 33.2689 43.0106 33.8027 42.667C34.2179 42.3806 34.0993 41.8652 33.9807 41.4643C33.9213 41.178 33.5655 41.178 33.4468 41.4643C32.913 42.4952 32.3199 42.037 31.6675 41.4071ZM29.3543 37.5701C29.295 37.6273 29.295 37.6846 29.2357 37.7419C29.295 37.7419 29.3543 37.7991 29.4137 37.7991L29.473 37.7419C29.4137 37.6273 29.3543 37.5701 29.3543 37.5701Z" fill="#202020"/>
<path d="M25.796 55.7242C25.7367 55.6669 25.6773 55.6097 25.618 55.6097C25.5587 55.2088 25.9739 54.5788 25.1435 54.5216C24.6097 54.5216 24.3725 54.8079 24.6097 55.3806C24.3132 55.4951 24.1352 55.7815 23.7201 55.5524C22.8304 54.9797 22.3559 55.3806 22.2966 56.3542C20.8138 55.6669 21.7628 54.9224 22.1186 54.2352C22.5931 54.0634 23.0083 53.8343 22.8304 53.2044C22.5931 52.2881 21.8221 53.0326 21.4662 52.8608C21.4069 52.4599 21.9407 52.4026 21.8814 52.4026C21.1697 52.3453 21.5255 51.5436 21.1104 51.3145C21.5255 50.5127 21.9407 49.711 22.3559 48.9092C22.7118 48.9092 22.6525 48.2793 23.1269 48.4511C23.6014 48.6229 23.898 48.9092 23.8387 49.4819C23.7794 50.5127 24.2539 51.0854 25.2622 51.429C25.9739 51.7154 25.9739 50.57 26.567 51.0282C26.9822 51.9445 25.9146 52.918 26.567 53.9489C26.9822 53.2044 27.3381 52.5744 27.6939 52.0017C28.1091 51.9445 28.5836 52.2308 28.8802 51.7727C30.0071 51.5436 29.4733 52.4026 29.5919 52.8035C29.1174 53.1471 29.4733 53.4907 29.6512 53.8343C29.9478 54.5216 30.3037 55.2088 30.4816 55.9533C30.3037 56.0678 30.1257 56.1251 30.1257 56.3542C30.1257 56.4114 30.2443 56.4687 30.3037 56.4687C30.6002 56.4687 30.5409 56.2396 30.6002 56.0678C31.0747 55.9533 31.2526 56.755 31.8458 56.3542C32.2016 56.0678 32.0237 56.755 32.3203 56.8123C32.2016 57.4423 32.7354 57.7286 33.0913 57.9577C33.8624 58.5304 34.5148 59.0458 33.803 59.9621C34.1589 60.4202 34.8707 59.8475 35.0486 60.592C35.1079 60.8784 35.2265 60.6493 35.2858 60.5348C35.6417 59.8475 35.8196 60.2484 36.1162 60.592C36.4721 61.0502 36.7686 61.5083 36.7686 62.081C36.7093 62.1383 36.65 62.1956 36.5907 62.2528C36.1755 61.6229 35.9383 63.1691 35.5231 62.3674C34.93 61.2793 33.6844 61.7947 32.8541 61.2793C32.7947 61.4511 32.7947 61.6801 32.7354 61.8519C32.1423 61.6229 31.9051 60.5348 30.8968 61.0502C30.6002 60.1339 29.6512 60.7638 29.2954 60.4775C28.6429 59.9048 27.7533 59.6185 27.1601 58.9885C27.6346 58.8167 27.8126 58.4731 27.6346 58.0149C27.4567 57.5568 26.9822 57.8431 26.6263 57.7859C26.745 57.6141 26.8043 57.4423 26.9229 57.2705C26.9822 57.2132 27.0415 57.2132 27.1008 57.1559C27.0415 57.1559 26.9822 57.1559 26.9229 57.0986C26.8636 56.9841 26.8043 56.8696 26.745 56.8123C27.2195 56.6405 27.4567 56.3542 27.516 55.8387C26.9822 56.1823 26.5077 54.7506 25.796 55.7242Z" fill="#808080"/>
<path d="M17.6704 20.3318C18.2635 20.16 18.4415 19.7591 18.1449 19.1864C17.967 18.7856 18.2042 18.3274 18.5601 18.3847C19.687 18.6138 20.636 18.2701 21.585 17.8693C21.8222 17.7547 22.1781 17.8693 22.7712 17.8693C22.1781 18.1556 21.8815 18.3274 21.585 18.442C22.7119 18.2701 23.483 19.1864 24.4912 19.301C24.4912 19.8164 24.6099 20.2746 24.5506 20.79C24.4913 21.3054 24.7285 21.5917 25.2623 21.0763C25.2623 21.1909 25.2623 21.2481 25.2623 21.3627C24.0761 21.9926 24.9657 22.7371 24.9657 23.5961C25.6182 23.0807 25.6775 22.2217 26.5078 22.1644C26.5672 22.2217 26.5672 22.279 26.5672 22.3362C26.0927 23.997 26.0334 25.6578 26.2113 27.3759C25.4402 27.5477 24.4913 26.9177 23.5423 27.3759C23.2457 27.5477 22.8898 27.4904 22.534 27.4331C22.5933 27.1468 22.7119 26.8032 22.7119 26.5168C22.7712 26.2878 22.9491 26.0014 22.7119 25.8296C22.4747 25.6578 22.2374 26.0014 22.0595 26.0587C21.5257 26.2305 21.1698 26.8032 20.5174 26.6887C20.3394 26.6887 20.2208 26.5741 20.1022 26.5168C20.0429 26.4596 20.1022 26.2305 20.1615 26.2305C21.8815 25.3715 20.3987 25.0851 19.687 24.5697C20.1022 24.2834 20.8732 24.8561 20.8139 24.1688C20.8139 23.4816 20.2801 23.6534 19.8056 23.8252C19.3904 23.997 19.2718 23.5961 19.2718 23.3671C19.1532 22.5653 18.6787 22.3935 17.967 22.5653C17.9077 22.4508 17.9077 22.3362 17.8483 22.1644L17.789 22.1072C17.789 21.5917 19.6277 21.019 17.6704 20.6182C17.789 20.6182 17.7297 20.4464 17.6704 20.3318ZM24.1947 24.627C24.0168 25.3715 24.1947 25.8869 24.6099 26.116C25.0844 26.4023 24.7878 25.6005 25.203 25.6005C25.1437 25.0851 24.5506 25.1424 24.1947 24.627ZM22.5933 25.0851C22.9491 25.4287 23.305 25.486 23.7202 25.486C23.5423 24.8561 23.1864 24.7988 22.5933 25.0851ZM24.0168 26.2305C24.0168 26.2878 24.0168 26.345 24.0168 26.4023L24.0761 26.345C24.0761 26.2878 24.0168 26.2878 24.0168 26.2305Z" fill="#0F0F0F"/>
<path d="M26.8038 57.7854C27.1597 57.8426 27.6342 57.6136 27.8121 58.0144C27.9901 58.4153 27.8121 58.8162 27.3376 58.988C26.6852 58.988 26.448 59.4462 26.3293 59.9616C26.0921 59.9043 25.7955 59.9043 25.5583 59.847C24.8466 59.7325 24.7279 60.7633 24.2534 60.5915C24.55 60.3625 25.0838 61.1642 25.5583 60.5915C25.6769 60.5915 25.7955 60.5915 25.9142 60.5343H25.9735C27.4563 61.336 29.117 61.7942 30.4219 62.825C30.4219 63.5695 30.8963 63.1114 31.1336 63.1114C31.3115 63.7413 30.4812 64.1995 30.7777 64.8867C29.7101 65.1158 28.6425 64.7149 27.5156 64.8294C27.219 64.8867 26.9225 64.8294 26.8632 64.4286C26.8632 64.2567 26.8632 64.0849 26.8632 63.9704C26.7445 62.1378 25.9142 61.5651 24.1348 61.966C23.7789 62.0233 23.3638 62.5387 23.1265 62.1951C22.8893 61.7942 22.8893 61.2215 22.8893 60.7633C22.8893 60.3625 23.6603 59.9616 23.2451 59.7325C22.5927 59.3889 22.1775 58.6444 21.2879 58.5871C21.0506 58.5871 20.3982 59.1026 20.3389 58.3008C21.1099 57.7281 22.1182 57.7281 23.0079 57.3845C23.1858 57.7281 23.2451 57.5563 23.3638 57.3272C23.7789 57.27 24.1941 57.2127 24.6093 57.0981C24.55 57.5563 23.4231 57.6708 24.2534 58.3581C24.6093 57.499 25.0245 58.4726 25.4397 58.3008C25.4397 58.7017 25.6176 58.988 26.0921 58.988C26.5666 58.988 26.448 58.4153 26.6259 58.3581C26.9818 58.2435 26.1514 57.7281 26.8038 57.7854Z" fill="#CECECE"/>
<path d="M50.4694 61.6796C50.4694 61.5078 50.5287 61.4505 50.7066 61.4505C51.1218 61.9086 51.4777 61.6223 51.6556 61.2787C52.0115 60.706 52.6639 60.2479 53.1977 60.4197C54.1467 60.706 54.6805 60.7633 54.7398 59.6752C54.7398 59.6179 54.8584 59.5034 54.9178 59.5034C55.5702 59.5606 55.7481 59.1025 55.9854 58.5871C56.104 58.358 56.4005 58.1289 56.875 58.0717C57.7054 57.9571 58.6544 57.9571 58.5951 56.6972C58.5951 56.4109 58.773 56.3536 59.1289 56.5827C59.5441 56.869 60.0779 56.6399 60.0186 56.2963C59.8999 55.0364 61.0862 54.9791 61.7386 54.4065C61.9758 54.3492 62.4503 53.7192 62.391 54.3492C62.3317 55.0364 62.6283 55.6091 62.4503 56.2963C62.2131 57.1554 61.5607 57.499 60.9675 57.5562C60.0186 57.6708 59.3661 58.0717 58.9509 58.8734C58.4765 59.6752 57.9427 59.4461 57.3495 58.6443C57.1123 59.5034 57.4088 60.4769 56.3412 60.706C56.104 60.7633 56.3412 60.9351 56.3412 61.1069C56.4599 61.9086 56.4599 61.9087 55.6295 61.8514C55.3922 61.8514 55.0364 62.0232 54.9178 62.195C54.6805 62.6531 54.1467 62.5959 53.7908 62.8249C53.5536 62.0232 52.2487 61.6223 51.5963 62.4241C51.0625 63.054 50.5287 62.7677 50.0542 63.054C49.7576 63.054 49.5204 63.054 49.2238 62.9968C49.1645 62.9968 49.1052 62.9968 49.0459 62.9395C49.1052 62.6531 49.4018 62.6531 49.5797 62.5959C50.0542 62.5386 50.5287 62.3668 50.4694 61.6796Z" fill="#CECECE"/>
<path d="M36.9462 62.138C36.9462 61.5653 36.6496 61.1072 36.2937 60.649C35.9972 60.3054 35.8192 59.9045 35.4634 60.5918C35.4041 60.7063 35.2854 60.9927 35.2261 60.649C35.0482 59.9045 34.3364 60.4772 33.9806 60.0191C34.633 59.1028 34.0399 58.5874 33.2688 58.0147C32.913 57.7283 32.3792 57.442 32.4978 56.8693C32.2012 56.812 32.4385 56.1248 32.0233 56.4112C31.4302 56.8693 31.1929 56.0675 30.7778 56.1248C30.7184 56.0675 30.6591 56.0103 30.6591 55.953C30.5405 55.2085 30.1846 54.5213 29.8288 53.8341C29.6508 53.4904 29.295 53.1468 29.7695 52.8032C30.5405 53.2614 31.2522 53.8341 32.0233 54.0631C32.913 54.3495 33.0909 54.9794 33.1502 55.6094C33.2095 56.583 33.8026 56.7548 34.5144 56.7548C35.2261 56.7548 35.4634 57.0411 35.7006 57.6711C36.1751 58.8164 36.8869 59.8473 37.4207 60.9354C37.6579 61.4508 37.9545 61.5081 38.3696 61.3363C38.4883 61.279 38.6069 61.1645 38.6662 61.1645C40.2083 61.1645 41.2166 60.7636 40.7421 58.9882C40.6235 58.6446 40.9794 58.3583 41.1573 58.0147C41.5725 58.6446 42.047 58.2437 42.4621 58.0147C42.3435 58.4156 42.2842 58.8164 42.1656 59.2173C41.7504 59.9618 41.4538 60.7636 41.3945 61.6226C40.3862 61.5653 39.3779 61.6799 38.3696 61.8517C37.7172 61.909 37.8952 62.3671 37.8952 62.768C37.5393 62.5962 37.5393 61.9662 36.9462 62.138Z" fill="#242424"/>
<path d="M61.739 54.4067C61.0866 54.9793 59.9003 55.0366 60.019 56.2965C60.0783 56.6401 59.5445 56.8692 59.1293 56.5829C58.7734 56.3538 58.5955 56.3538 58.5955 56.6974C58.6548 57.9573 57.6465 57.9573 56.8754 58.0718C56.4009 58.1291 56.1044 58.3582 55.9858 58.5873C55.7485 59.1027 55.5706 59.5036 54.9182 59.5036C54.8588 59.5036 54.7402 59.6181 54.7402 59.6754C54.6809 60.7635 54.1471 60.7635 53.1981 60.4199C52.7236 60.248 52.0119 60.7062 51.656 61.2789C51.4188 61.6225 51.1222 61.9088 50.707 61.4507C50.7663 60.4199 51.834 60.3053 52.4864 59.8472C53.554 59.1027 54.8588 58.5873 56.0451 57.671C54.7402 57.9573 55.3333 56.9265 54.9775 56.5829C54.8588 56.4683 55.2147 56.3538 55.9265 56.3538C56.5196 56.2965 57.5872 56.9265 57.4092 55.4948C57.3499 55.1511 57.9431 55.0939 58.2396 55.2084C58.892 55.4948 59.0107 54.9221 59.3072 54.6357C59.4258 54.6357 59.6038 54.6357 59.6631 54.5785C60.2562 53.204 60.968 53.9485 61.739 54.4067Z" fill="#808080"/>
<path d="M41.3945 61.6798C41.4538 60.8208 41.6911 60.0191 42.1656 59.2746C42.4621 59.2173 42.5808 59.5036 43.1146 59.7327C42.6994 59.1028 42.7587 58.7019 43.2332 58.4155L43.2925 58.4728C43.2332 58.9882 43.1146 59.5036 43.0553 60.0191C42.9959 60.4199 44.4787 61.6226 44.7753 61.3935C46.0208 60.5345 47.1478 61.0499 48.334 61.508C48.156 62.3671 47.0884 62.0807 46.6733 62.6534C46.436 62.7107 46.1988 62.4243 46.0208 62.6534C45.9615 62.7107 46.1395 62.9398 46.1988 63.0543C46.0208 63.2261 45.8429 63.3406 45.665 63.5124C45.4277 63.5697 45.1905 63.5697 44.9532 63.627C44.8346 63.627 44.7753 63.627 44.6567 63.5697C44.5974 63.3406 44.9532 62.768 44.2415 63.1688C43.6484 63.5124 42.9959 63.9706 42.1063 63.7415C42.3435 62.9398 42.1656 62.1953 41.3945 61.6798ZM43.4704 61.4508C43.4111 62.0807 42.4621 62.1953 42.9366 62.8825C43.0553 63.1116 43.1739 62.997 43.2925 62.8825C43.8263 62.5389 43.8856 62.0807 43.4704 61.4508Z" fill="#CECECE"/>
<path d="M48.393 23.5391C48.8082 23.0237 49.342 23.0237 49.8165 23.31C50.3503 23.6536 50.5282 24.2263 50.3503 24.8563C50.2317 25.429 50.0538 26.0016 49.8758 26.5743C49.5199 26.6316 48.8675 26.0016 48.8675 26.9752C48.8675 27.4334 48.393 27.4334 48.0372 27.3761C47.1475 27.147 47.0882 27.6624 47.0882 28.2924C46.3764 27.777 46.0799 26.9752 45.9019 26.1734C45.7833 25.7726 45.4868 25.3717 45.2495 24.9135C45.9019 24.6272 46.6137 24.2836 47.3254 23.9972C47.6813 24.4554 47.1475 24.7417 47.0289 25.0853C48.6303 25.3717 48.5117 24.4554 48.393 23.5391Z" fill="#181818"/>
<path d="M26.6257 51.0275C26.0326 50.5694 26.0326 51.6575 25.3208 51.4284C24.3125 51.0275 23.7787 50.4549 23.8973 49.4813C23.9567 48.9086 23.6601 48.6223 23.1856 48.4505C22.7111 48.2786 22.7704 48.9086 22.4146 48.9086C22.6518 47.1905 23.8973 45.8734 25.2022 45.9879C25.2022 46.8469 24.4311 47.8778 25.8546 48.3359C26.4477 48.565 26.5664 49.1377 26.9222 49.5958C26.8036 50.054 26.685 50.5694 26.6257 51.0275Z" fill="#CECECE"/>
<path d="M18.144 22.6797C18.8557 22.5652 19.3302 22.6797 19.4489 23.4815C19.4489 23.7105 19.5675 24.1114 19.9827 23.9396C20.4572 23.7105 20.991 23.596 20.991 24.2832C20.991 24.9705 20.2792 24.3978 19.864 24.6841C20.5758 25.1423 22.0586 25.4286 20.3385 26.3449C20.2792 26.4022 20.2199 26.6312 20.2792 26.6312C20.3978 26.7458 20.5758 26.8031 20.6944 26.8031C21.3468 26.8603 21.7027 26.3449 22.2365 26.1731C22.4144 26.1158 22.6517 25.7722 22.8889 25.944C23.1262 26.1158 22.8889 26.4022 22.8889 26.6312C22.8296 26.9176 22.7703 27.2612 22.711 27.5475C22.2365 27.7193 21.7027 27.8912 21.2282 28.1202C20.8723 27.7193 20.3978 27.6621 19.9234 27.6048C19.6861 27.9484 20.4572 28.2348 19.9234 28.5784C19.093 27.3757 18.9151 25.944 18.6185 24.5123C18.4999 23.8823 17.9068 23.4242 17.9661 22.737C17.9661 22.6797 18.0254 22.6797 18.144 22.6797Z" fill="#242424"/>
<path d="M23.6011 27.4335C24.5501 26.9181 25.5584 27.6053 26.2701 27.4335C26.0922 25.7155 26.1515 23.9974 26.626 22.3939C27.4563 21.9357 27.6936 22.6802 27.5156 23.0238C27.1598 23.8829 27.5156 24.5701 27.575 25.3719C27.575 25.5437 27.575 25.7155 27.575 25.83C26.8039 26.46 27.1005 27.1472 27.4563 27.8344C27.6936 28.4644 27.0412 29.1516 27.6936 29.7243C27.3377 29.7243 26.9818 29.667 26.6853 29.8961C26.0329 29.667 25.5584 29.3234 25.1432 28.6934C24.9059 28.1208 24.1942 27.8344 23.6011 27.4335Z" fill="#242424"/>
<path d="M49.4023 49.5962C48.8685 48.9089 48.572 48.3935 49.7582 48.1072C50.292 47.9926 50.7072 47.7063 49.9361 47.0763C49.1651 46.4464 49.6989 45.5873 50.2327 45.0719C51.0037 44.3274 51.0631 43.4684 50.9444 42.5521C50.8851 42.2658 50.8258 41.8649 51.3003 41.8076C51.3003 42.953 51.3003 44.0984 51.5375 45.2437C51.5969 45.5301 51.9527 46.3891 51.1224 46.7327C50.5292 46.9618 51.0631 47.4199 51.1224 47.7636C51.241 48.3362 51.5375 48.8517 50.4699 48.5653C49.8175 48.4508 49.521 49.0235 49.4023 49.5962Z" fill="#383838"/>
<path d="M37.6581 52.4595C38.2512 53.6621 39.5561 54.2921 40.3271 55.3802C40.5051 55.6093 40.6237 55.7811 40.683 56.0674C41.2168 56.7546 40.0899 56.9264 40.1492 57.4991C39.4374 57.3846 39.4968 56.6974 39.1409 56.2392C39.0223 56.1247 39.1409 55.8383 39.1409 55.6665C39.1409 55.4374 39.0816 55.2084 38.7257 55.1511C38.4291 55.1511 38.3105 55.3802 38.1919 55.6093C37.9546 56.1247 38.3698 56.5828 38.3105 57.0982C38.3105 57.3273 38.9036 57.0982 38.6071 57.4991C38.3698 57.7855 38.0733 57.4991 37.7767 57.5564C37.4801 57.6137 37.065 55.7238 37.3022 55.6093C38.1919 55.0938 37.7767 54.693 37.3022 54.1203C37.0057 53.5476 36.7684 52.9176 37.6581 52.4595Z" fill="#ADADAD"/>
<path d="M48.3342 34.1334C48.0376 34.0188 47.8004 33.5034 47.3852 33.9616C47.2666 34.0761 46.9107 34.2479 46.7327 33.9616C46.6141 33.6752 46.4955 33.3889 46.1396 33.618C45.9024 33.7898 46.1989 34.0188 46.2583 34.2479C46.3769 34.6488 46.4955 34.9924 46.6141 35.3933C46.97 35.4505 47.0293 34.8206 47.4445 35.1069C47.4445 35.1642 47.5038 35.2215 47.5038 35.2787C46.9107 35.1642 47.1479 36.3096 46.3769 35.966C45.9024 35.7942 45.4872 35.9087 45.1313 36.2523C44.6568 36.4814 44.301 36.0805 43.8265 35.966C44.0044 35.3933 44.6568 35.5078 45.0127 35.2215C45.1906 35.0497 45.5465 34.8779 45.4279 34.5915C45.3093 34.1906 44.9534 34.4197 44.7161 34.477C44.5382 34.5343 44.301 34.5343 44.123 34.5343C43.8265 34.5343 43.5892 34.477 43.4706 34.2479C43.352 33.9616 43.6485 33.847 43.8265 33.7325C44.301 33.3889 44.8941 33.2171 45.25 32.7017C46.97 33.7325 47.1479 33.7325 48.5121 32.7589C48.5714 32.8162 48.6307 32.8735 48.69 32.9307C48.5714 33.1598 48.5121 33.3889 48.5714 33.618C48.3935 33.7325 48.2155 33.847 48.2749 34.1334C48.3935 34.0761 48.3935 34.1334 48.3342 34.1334Z" fill="#383838"/>
<path d="M36.116 9.85147C36.116 9.56512 35.4636 9.62239 35.7009 9.22151C35.9974 8.64883 36.1754 9.33605 36.4126 9.33605C36.9464 9.39332 37.8361 8.99244 37.7175 10.1378C37.7175 10.3096 38.2513 10.2523 38.2513 10.1951C37.8954 9.16424 38.963 9.67966 39.2596 9.33605C39.4375 9.10697 39.6747 8.93517 39.8527 8.70609C40.4458 8.82063 41.2762 8.07614 41.6913 9.04971C41.5134 9.16424 40.7424 8.76336 41.2168 9.39332C41.7507 10.0805 41.5727 10.7678 41.6913 11.455C41.5727 11.455 41.5134 11.455 41.3948 11.455C41.2168 11.2259 41.0982 10.9968 40.9203 10.7678C40.9796 9.90874 40.9203 9.85147 39.7934 9.90874C40.0306 10.1951 40.2679 10.4814 40.4458 10.7678C40.3865 10.8823 40.8017 11.1114 40.3272 11.1686C39.6154 11.2832 39.5561 10.5387 38.963 10.1378C38.963 10.8823 38.6664 11.3977 38.4292 11.9131C38.0733 11.5695 37.6581 12.3713 37.3616 11.8559C38.4885 11.0541 37.1243 10.5387 37.243 9.62239C36.8871 10.0805 36.7092 10.3669 36.5312 10.596C36.294 10.4242 36.5905 9.966 36.116 9.85147Z" fill="#808080"/>
<path d="M38.6072 27.8338C38.0734 27.0321 37.5396 26.9175 36.8872 27.7766C36.5906 28.1202 36.1161 28.5211 35.4637 28.2347C35.4044 26.9748 36.8279 26.6312 37.2431 25.4858C37.5989 24.455 39.319 24.3405 40.6831 24.3977C40.3866 25.1995 39.5562 24.5695 39.2597 24.9131C38.9038 25.3713 40.0307 25.7149 39.6155 26.3449C39.4969 26.5167 39.4376 26.6885 39.2597 26.803C38.8445 27.0321 38.6665 27.433 38.6072 27.8338Z" fill="#242424"/>
<path d="M43.9447 36.0232C44.3599 36.1378 44.7157 36.5387 45.2495 36.3096C45.1309 36.8823 45.0716 37.455 44.953 37.9704C44.4192 37.9131 44.004 38.0849 43.6481 38.4285C43.5888 38.4285 43.5295 38.4285 43.5295 38.4285C42.9957 37.8558 42.5805 37.6268 41.6315 38.0849C40.9198 38.4285 40.2673 38.7721 39.6149 39.173C39.4963 39.173 39.437 39.173 39.3184 39.173C39.7335 37.7413 41.0384 36.5959 42.6398 36.6532C43.4109 36.7105 43.3516 35.8514 43.9447 36.0232Z" fill="#2E2E2E"/>
<path d="M41.6315 11.5694C41.5722 10.8822 41.7501 10.195 41.157 9.50775C40.6825 8.87779 41.4535 9.27867 41.6315 9.16413C43.3515 9.45048 43.7074 11.2831 45.1309 12.0276C44.7157 12.3712 44.3598 12.6003 43.8853 12.6003C43.5888 12.543 43.4701 11.9703 43.1143 12.1994C42.3432 12.6575 42.0467 12.0848 41.6315 11.5694Z" fill="#2E2E2E"/>
<path d="M40.742 28.2922C40.6827 28.1777 40.6827 28.0632 40.6234 27.9486C40.6234 27.7768 40.6234 27.605 40.6827 27.4905C40.6827 27.0323 41.3351 27.2041 41.3944 26.746C41.0979 26.5742 40.8606 26.3451 40.5641 26.2878C40.2675 26.2306 39.9116 26.3451 40.0302 25.8869C40.1489 25.6006 40.3861 25.6006 40.742 25.6579C41.9282 25.8869 42.1062 25.6579 41.9875 24.4552C42.5806 24.398 43.2331 24.2834 43.7076 24.7988C43.1145 26.2306 42.462 27.7195 40.742 28.2922Z" fill="#242424"/>
<path d="M39.4378 66.0324C39.4971 66.6623 39.3192 67.0632 38.6667 66.6623C36.9467 65.6315 34.9894 65.0588 33.2694 63.9707C33.0914 63.8562 32.8542 63.9134 32.6763 63.8562C32.4983 63.5698 32.2611 63.398 31.9052 63.398C31.7866 63.0544 31.3714 63.2835 31.1935 63.1117C31.1935 62.7681 30.8376 62.8253 30.6597 62.6535C30.6597 62.539 30.6597 62.4817 30.6597 62.3672C33.2101 62.8826 35.286 64.4289 37.6584 65.2306C38.2516 65.517 38.8447 65.8033 39.4378 66.0324Z" fill="#202020"/>
<path d="M19.4493 53.376C18.5004 53.4906 18.0259 53.8914 17.8479 54.6359C18.2631 54.8077 18.5004 54.5787 18.6783 54.4069C18.8562 54.2351 18.9155 53.9487 19.2121 53.9487C19.568 53.9487 19.9832 53.8342 20.2797 54.0633C20.339 54.1205 20.3983 54.3496 20.339 54.3496C20.0425 54.5787 19.568 54.5787 19.39 54.9223C18.8562 54.1778 18.7969 54.9795 18.5597 55.1514C18.0259 55.4377 17.8479 56.0104 17.4921 56.4113C17.0769 56.8694 16.4838 56.4685 16.0093 56.2967C16.721 55.1514 16.8396 53.6624 18.3224 53.0324C18.6783 52.9179 18.9155 53.147 19.4493 53.376Z" fill="#CECECE"/>
<path d="M41.9279 24.3979C42.0465 25.6006 41.8686 25.8296 40.6824 25.6006C40.3265 25.5433 40.0892 25.5433 39.9706 25.8296C39.7927 26.2878 40.2079 26.1732 40.5044 26.2305C40.801 26.2878 41.0382 26.5169 41.3348 26.6887C41.3348 27.1468 40.623 26.975 40.623 27.4332C40.5637 27.5477 40.4451 27.605 40.3858 27.7195C39.7927 28.1204 39.2589 28.9794 38.6064 27.834C38.6658 27.4332 38.7844 27.0323 39.1403 26.8032C39.3182 26.6887 39.3775 26.5169 39.4961 26.3451C39.9113 25.7151 38.7844 25.3715 39.1403 24.9133C39.4368 24.5697 40.3265 25.1997 40.5637 24.3979C41.0975 24.2834 41.5127 24.2834 41.9279 24.3979ZM40.1485 26.8605L40.0892 26.9177C40.0892 26.9177 40.0892 26.975 40.1485 26.975C40.2079 26.9177 40.2079 26.9177 40.2672 26.8605C40.2079 26.9177 40.2079 26.8605 40.1485 26.8605Z" fill="#020202"/>
<path d="M24.8461 16.1511C24.5495 16.0938 24.3123 15.9793 24.0157 15.922C23.7785 15.8647 23.4819 15.9793 23.4819 15.5784C23.4819 15.3493 23.7192 15.3493 23.8971 15.2348C24.5495 14.8912 24.3716 14.4903 23.7192 14.2612C24.1937 13.8031 24.7868 14.3185 25.024 13.7458C24.7275 13.574 24.3123 13.5167 24.0751 13.0586C24.4309 13.0586 24.7275 13.0586 25.024 13.0013C25.8544 12.7722 26.5068 12.7722 26.5068 13.8603C26.5068 13.9176 26.8034 13.9749 26.922 14.0322C26.922 14.204 26.8627 14.3758 26.8627 14.4903C26.5661 14.5476 26.2696 14.5476 26.3289 14.9484C26.2103 15.063 26.0916 15.1775 25.973 15.2921C25.3206 15.1775 24.9647 15.5211 24.8461 16.1511Z" fill="#181818"/>
<path d="M30.9554 35.6224C30.5402 35.737 30.8368 36.3097 30.3623 36.3669C30.0064 36.4242 29.8285 37.0542 29.4133 36.8251C28.8795 36.5387 29.5913 36.3097 29.5913 35.966C29.5913 35.5079 29.7692 35.0498 29.1761 34.8207C29.4726 33.9616 28.7609 33.8471 28.2271 33.618C28.2864 33.2744 27.7526 33.1026 27.9305 32.7017C28.1678 32.3581 29.1761 33.1026 28.8795 32.4154C28.583 31.7282 28.9981 31.3846 29.1168 30.8691C29.7692 31.3846 29.7099 32.2436 29.5913 32.759C29.4726 33.3317 29.5319 33.5608 29.9471 33.7326C30.6589 34.1335 30.5996 34.9925 30.9554 35.6224Z" fill="#808080"/>
<path d="M40.0901 67.922C40.3273 69.1819 41.1577 67.5211 41.5136 68.1511C41.6322 68.3229 41.5729 67.6356 41.8694 68.0365C41.9288 68.1511 42.166 68.3229 41.7508 68.4374C40.9798 68.6665 41.8101 68.781 41.8694 68.8955C42.1067 69.411 42.166 68.8955 42.2253 68.781C42.2846 68.6665 42.3439 68.4947 42.4033 68.3801C42.6405 67.7502 42.9964 67.5211 43.5895 67.9792C43.5895 68.0938 43.6488 68.2083 43.6488 68.3229C42.9371 68.6665 42.6405 69.4682 41.8694 69.7546C41.0984 70.0409 40.5053 69.9837 39.9715 69.3537C39.6156 68.8955 39.5563 68.4374 40.0901 67.922Z" fill="#9F9F9F"/>
<path d="M47.1481 28.2348C47.0888 27.6048 47.2074 27.1467 48.0971 27.3185C48.4529 27.433 48.9274 27.433 48.9274 26.9176C48.9274 25.9441 49.5799 26.574 49.9357 26.5167C49.9357 26.8603 49.9357 27.1467 49.9357 27.4903C49.4612 27.5476 49.4019 27.8339 49.4612 28.1775C49.7578 29.1511 49.3426 29.4947 48.3936 29.552C47.8005 29.3229 47.326 28.8647 47.1481 28.2348Z" fill="#808080"/>
<path d="M40.7424 28.2924C42.4625 27.7197 43.1149 26.288 43.6487 24.7417C43.6487 25.028 44.1825 24.6844 44.0046 25.028C43.4114 26.1161 43.1149 27.3188 42.0473 28.1205C41.5135 28.5214 41.5135 29.3805 40.6831 29.3232C40.7424 29.0368 40.7424 28.636 40.7424 28.2924Z" fill="#2E2E2E"/>
<path d="M49.1647 63.1113C49.4612 63.1113 49.6985 63.1113 49.995 63.1686C49.9357 63.4549 50.6475 63.6267 50.0543 64.0849C49.7578 64.314 49.2833 64.543 49.5205 65.3448C49.6985 66.0893 48.5123 66.032 47.9784 66.0893C47.6819 66.1466 47.1481 65.9748 46.7329 65.803C46.7329 65.6312 46.7922 65.5166 46.7922 65.3448C47.9191 65.4593 48.3343 64.6576 48.7495 63.8558C48.8088 63.5695 48.9867 63.3404 49.1647 63.1113Z" fill="#C3C3C3"/>
<path d="M23.0083 57.3846C22.1186 57.6709 21.1696 57.7282 20.3392 58.3009C20.1613 58.2436 19.9834 58.1863 19.8647 58.1291C19.8647 57.9 19.8647 57.7282 19.8647 57.4991C21.1103 57.1555 22.2965 56.8691 23.6014 56.7546C23.6014 56.8691 23.6607 56.9837 23.7793 56.9264C23.8386 56.8691 23.8386 56.7546 23.8386 56.6401C24.3724 56.3537 25.2028 56.8119 25.5587 56.0674C25.9145 56.0674 25.7366 56.411 25.8552 56.5828C25.7366 56.7546 25.618 56.8691 25.5587 57.0409C25.2028 57.0409 24.9062 57.3273 24.5504 57.0982C24.1352 57.1555 23.72 57.2128 23.3048 57.3273C23.2455 57.3273 23.1269 57.3273 23.0083 57.3846Z" fill="#242424"/>
<path d="M20.6947 10.4814C21.2878 10.9396 20.6947 11.455 20.8133 11.9704C21.5251 12.1995 22.4147 11.7986 23.3044 12.1995C22.5334 12.8867 21.7623 13.4021 20.6354 13.0013C20.4574 12.6004 20.3388 12.1422 19.9236 11.7986C19.7457 11.3405 19.9236 11.1687 20.3981 11.1114C20.4574 11.1114 20.5761 11.1687 20.5761 11.1687C20.6947 10.9969 20.5761 10.8823 20.4574 10.8251C20.3388 10.596 20.4574 10.4814 20.6947 10.4814Z" fill="#808080"/>
<path d="M29.8879 9.39332C30.4217 10.0233 30.0658 10.6532 29.71 11.1114C29.532 11.3977 28.8796 11.2259 28.4644 10.825C28.1086 10.5387 27.9306 10.3096 28.4051 10.0233C28.761 9.7942 28.6424 9.45059 28.6424 9.16425C29.0575 9.16425 29.4134 8.7061 29.8879 8.8779C29.8879 8.99244 29.5913 9.22152 29.8879 9.39332Z" fill="#ADADAD"/>
<path d="M34.3364 47.7064C34.6923 47.5346 35.0482 47.8782 35.404 47.5918C35.7006 47.3628 35.9378 47.9354 36.4123 47.7064C35.5227 48.4509 35.8785 48.8517 36.7089 49.0235C37.6579 49.1953 37.8358 49.8253 37.7172 50.6271C36.7682 50.1689 35.7599 49.768 35.4633 48.6799C35.2854 47.9927 34.455 48.279 34.3364 47.7064Z" fill="#202020"/>
<path d="M27.6343 25.3716C27.575 24.5698 27.1598 23.8826 27.575 23.0236C27.6936 22.68 27.5157 21.8782 26.6853 22.3936C26.6853 22.3364 26.6853 22.2791 26.626 22.2218C26.626 22.05 26.626 21.9355 26.626 21.7637C27.9308 21.7637 28.8205 22.909 28.346 23.9972C28.1088 24.4553 28.4646 25.1998 27.6343 25.3716Z" fill="#ADADAD"/>
<path d="M36.9457 62.1377C37.5981 61.9659 37.5981 62.5959 37.954 62.8249C38.4285 63.684 38.903 64.543 39.7333 65.1157C39.7333 65.173 39.7333 65.2875 39.7333 65.3448C39.3182 65.2302 38.9623 65.173 38.5471 65.0584C38.3692 64.4857 37.5388 64.7148 37.3609 64.1421C37.2423 63.5122 36.7085 62.9967 36.7678 62.3095C36.8271 62.2522 36.8864 62.195 36.9457 62.1377Z" fill="#808080"/>
<path d="M21.1105 51.2573C21.5257 51.4864 21.1698 52.2882 21.8815 52.3454C21.9408 52.3454 21.407 52.4027 21.4663 52.8036C21.8222 53.0327 22.5933 52.2309 22.8305 53.1472C23.0084 53.7771 22.5933 54.0062 22.1188 54.178C20.636 53.7199 20.3394 52.8036 21.1105 51.2573Z" fill="#CECECE"/>
<path d="M40.9205 10.8827C41.0985 11.1118 41.2171 11.3409 41.395 11.57C41.395 12.6008 40.3867 11.7418 40.0902 12.1999C40.0308 12.1999 40.0308 12.1427 40.0308 12.0854L40.0902 12.0281C40.0902 12.0281 40.0902 11.9709 40.0308 11.9709C40.0308 12.0281 40.0308 12.0854 40.0308 12.1427C39.4377 12.7726 38.9039 12.6008 38.3701 12.0854C38.6667 11.57 38.9632 11.0546 38.9039 10.3101C39.497 10.7109 39.5564 11.4554 40.2681 11.3409C40.7426 11.2836 40.3274 11.0546 40.3867 10.94C40.5647 10.8827 40.7426 10.8827 40.9205 10.8827Z" fill="#242424"/>
<path d="M51.7148 36.5385C50.054 36.424 49.3423 35.1068 48.334 34.1332C48.3933 34.1332 48.3933 34.0759 48.4526 34.0759C48.8085 34.0187 49.0457 34.2477 49.3423 34.3623C49.6388 34.8777 49.9947 35.4504 50.6471 35.4504C51.4182 35.5077 51.7741 35.794 51.7148 36.5385Z" fill="#383838"/>
<path d="M34.7517 8.30479C34.989 8.53386 34.7517 8.82021 34.8111 8.93474C35.4042 9.85104 34.8111 9.85104 34.1586 9.85104C33.8028 9.85104 33.4469 9.90831 33.0317 9.96558C32.9724 9.90831 32.9131 9.90831 32.9131 9.85104C32.9131 9.39289 32.9131 8.93474 32.9724 8.53386C33.4469 7.96118 34.0993 8.24752 34.7517 8.30479Z" fill="#808080"/>
<path d="M35.6411 39.6883C35.048 40.2037 34.4549 40.49 33.5652 40.49C33.0314 40.49 32.8535 40.261 32.6755 39.9173C32.4976 39.5737 32.8535 39.4592 33.0907 39.2874C33.6838 38.8865 33.6838 39.3447 33.8618 39.6883C33.9804 39.8601 34.099 39.7455 34.2176 39.631C34.6328 39.631 34.6921 39.4592 34.5735 39.1156C34.7514 38.772 35.1073 38.9438 35.4039 38.772C35.4039 38.8292 35.3446 38.8865 35.4039 38.8865C35.4632 39.1156 35.2852 39.4592 35.6411 39.5165V39.6883Z" fill="#808080"/>
<path d="M43.7671 68.3229C43.7671 68.2084 43.7078 68.0938 43.7078 67.9793C43.6485 67.2348 44.7754 67.4066 44.7754 66.7194C45.3685 67.0057 45.5465 66.3758 45.9617 66.2612C46.2582 66.7766 45.7244 68.1511 45.3092 67.9793C44.5975 67.7502 44.2416 68.2656 43.7671 68.3229Z" fill="#ADADAD"/>
<path d="M25.3213 21.1338C24.7875 21.592 24.5503 21.3629 24.6096 20.8475C24.6689 20.3321 24.5503 19.8166 24.5503 19.3585C24.7875 18.8431 25.3213 18.9003 25.7958 18.9003C25.7365 19.3585 25.3213 19.8166 25.7365 20.3893C25.9145 20.4466 25.8551 21.0193 25.3213 21.1338Z" fill="#181818"/>
<path d="M28.9984 30.8696C28.8798 31.3851 28.4646 31.7287 28.7611 32.4159C29.0577 33.1031 28.0494 32.3014 27.8122 32.7022C27.6935 32.015 27.5156 31.3851 27.397 30.6978C27.5749 30.4688 27.8122 30.2397 27.9901 30.0679C28.1087 30.0679 28.168 30.1251 28.2866 30.1251C28.168 30.2969 28.1087 30.4688 28.2866 30.5833C28.4053 30.6406 28.5832 30.5833 28.7018 30.526C28.8205 30.6406 28.9391 30.7551 28.9984 30.8696Z" fill="#232323"/>
<path d="M40.0898 12.1993C40.3864 11.6839 41.3947 12.5429 41.3947 11.5693C41.5133 11.5693 41.5726 11.5693 41.6913 11.5693C42.0471 12.0848 42.403 12.6574 43.2334 12.142C43.5892 11.913 43.7079 12.4856 44.0044 12.5429C43.8858 12.772 43.8858 13.2874 43.5892 13.1156C42.4623 12.4856 41.1575 12.7147 40.0898 12.1993Z" fill="#9F9F9F"/>
<path d="M39.6741 65.1162C38.8437 64.5435 38.3692 63.6845 37.8947 62.8255C37.8947 62.4246 37.7168 61.9664 38.3692 61.9092C38.4285 62.6537 38.8437 63.2264 39.1996 63.8563C39.4368 64.1999 39.852 64.5435 39.6741 65.1162Z" fill="#383838"/>
<path d="M48.3936 29.5514C49.3425 29.4941 49.7577 29.1505 49.4612 28.177C49.3425 27.8334 49.4612 27.547 49.9357 27.4897C49.9357 27.6043 49.8763 27.7761 49.9357 27.8334C50.8846 29.2078 49.817 29.8378 48.868 30.5822C48.3936 30.3532 48.6308 29.8378 48.3936 29.5514Z" fill="#CECECE"/>
<path d="M25.7955 48.3358C24.4314 47.8204 25.1431 46.7896 25.1431 45.9878C25.4397 45.8733 25.3804 45.3006 25.8548 45.5296C26.1514 45.7015 25.9735 46.0451 25.8548 46.2741C25.6769 46.9614 25.6176 47.6486 25.7955 48.3358Z" fill="#383838"/>
<path d="M51.4182 41.3497C50.5285 40.6052 51.5368 39.9753 51.6555 39.288C51.7741 38.6008 51.8334 37.8563 52.0706 37.1118C52.5451 37.5127 52.5451 38.1427 52.3672 38.5435C51.8334 39.4598 51.7741 40.4334 51.4182 41.3497Z" fill="#383838"/>
<path d="M25.6173 18.3272C25.1428 18.499 24.7276 18.7281 24.0752 18.3845C25.2614 17.9263 25.4987 17.1819 24.8462 16.151C25.2614 16.2083 25.4987 15.8647 25.8545 15.6929C25.7952 16.5519 25.7359 17.4109 25.6173 18.3272Z" fill="#9F9F9F"/>
<path d="M26.6261 21.7635C26.6261 21.9353 26.6261 22.0499 26.6261 22.2217C25.7364 22.2217 25.6771 23.138 25.084 23.6534C25.084 22.7944 24.1943 22.0499 25.3805 21.4199C25.6771 21.8208 26.1516 21.7063 26.6261 21.7635Z" fill="#181818"/>
<path d="M39.318 39.1732C39.4366 39.1732 39.4959 39.1732 39.6145 39.1732C39.6738 39.345 39.6738 39.4595 39.7331 39.6314C39.6738 39.6886 39.6738 39.8032 39.6145 39.8604C39.3773 39.975 39.3773 40.1468 39.4366 40.3758C38.5469 41.2349 38.1317 40.834 37.9538 39.8604C37.8945 39.5741 37.7758 39.345 37.6572 39.1159C37.8945 38.8296 38.191 38.486 38.369 39.1732C38.4283 39.5168 38.1317 40.0895 38.6655 40.1468C39.3773 40.204 39.0214 39.4595 39.318 39.1732Z" fill="#9F9F9F"/>
<path d="M30.6597 43.9835C31.7273 43.7545 31.3714 44.8426 31.8459 45.1862C31.5493 45.5298 31.9645 45.4725 32.0831 45.5298C32.2611 45.7589 32.4983 46.0452 32.2611 46.2743C32.0238 46.5034 31.668 46.5034 31.3714 46.1598C31.3714 45.358 30.6597 44.7853 30.6597 43.9835Z" fill="#9F9F9F"/>
<path d="M28.1088 33.561C28.702 33.7901 29.3544 33.8474 29.0578 34.7637C28.4647 34.7064 28.5833 35.4509 28.1088 35.5082C27.4564 35.4509 27.4564 34.7637 27.6343 34.6491C28.2275 34.4201 27.6937 33.8474 28.1088 33.561Z" fill="#CECECE"/>
<path d="M22.6521 29.4375C21.7031 29.552 21.9403 30.6974 21.2286 30.9838C20.932 29.7238 20.932 29.7238 22.6521 29.4375Z" fill="#383838"/>
<path d="M36.1164 9.85149C36.5909 9.96603 36.2944 10.4242 36.4723 10.6533C36.6502 10.4242 36.8282 10.1951 37.184 9.67969C37.0654 10.596 38.3703 11.1114 37.3027 11.9132C37.0654 11.9132 36.8282 11.9132 36.5909 11.9132C36.5316 11.7414 36.5316 11.5123 36.4723 11.3405C36.4723 11.2832 36.4723 11.2259 36.413 11.1687C36.413 11.2259 36.3537 11.2832 36.3537 11.3405C36.2351 11.3405 36.1758 11.3405 36.0571 11.3405C36.1758 10.8251 36.1758 10.3669 36.1164 9.85149Z" fill="#2E2E2E"/>
<path d="M29.8882 9.39314C29.5916 9.22133 29.8882 9.04953 29.8882 8.87772C30.4813 8.13323 31.2523 8.0187 32.142 8.36231C32.142 8.64865 32.2013 8.87772 32.2013 9.22133C31.3116 8.53411 30.5999 8.93499 29.8882 9.39314Z" fill="#9F9F9F"/>
<path d="M19.924 11.7983C20.2799 12.142 20.3985 12.6001 20.6357 13.001C19.924 12.7719 19.3902 13.6882 18.6191 13.2301C18.7971 12.6001 19.3902 12.1992 19.924 11.7983Z" fill="#9F9F9F"/>
<path d="M19.8646 28.5214C20.3984 28.1778 19.6273 27.9487 19.8646 27.5479C20.3391 27.6051 20.8136 27.6624 21.1694 28.0633C20.9322 28.636 20.6949 29.1514 20.3984 29.9531C20.1018 29.3232 19.9832 28.9223 19.8646 28.5214Z" fill="#0F0F0F"/>
<path d="M29.71 39.5742C30.3624 40.4905 29.8286 41.4068 29.6507 42.3231C29.5913 42.3231 29.4727 42.3231 29.4134 42.3231C29.3541 41.9222 29.8879 41.4068 29.0575 41.1777C28.8203 41.1205 28.9389 40.7196 29.1762 40.6051C29.532 40.3187 29.5913 39.9751 29.71 39.5742Z" fill="#ADADAD"/>
<path d="M24.9053 9.62235C24.3715 10.0232 23.897 10.7105 23.126 10.0805C23.126 9.67962 23.4818 9.62235 23.7191 9.39328C24.3122 8.87786 24.3122 8.87786 24.5495 9.56508C24.5495 9.62235 24.7867 9.62235 24.9053 9.62235Z" fill="#ADADAD"/>
<path d="M29.6504 13.2305C29.9469 12.7723 31.0739 12.0278 31.4297 12.0278C31.6077 12.3714 31.9042 12.2569 32.1415 12.1996V12.2569C31.6077 12.8296 30.4808 13.2305 29.6504 13.2305Z" fill="#CECECE"/>
<path d="M25.9142 56.5826C25.7956 56.4108 25.9735 56.0672 25.6177 56.0672C25.677 55.9526 25.7363 55.8381 25.7956 55.7236C26.5074 54.6927 27.0412 56.1817 27.6936 55.8954C27.6343 56.3535 27.397 56.6971 26.9225 56.8689C26.7446 56.0099 26.2108 56.6971 25.9142 56.5826Z" fill="#CECECE"/>
<path d="M48.3932 23.5386C48.5119 24.4549 48.6305 25.3712 47.0884 25.0276C47.207 24.6839 47.7408 24.3403 47.3849 23.9395C47.7408 23.8249 48.0374 23.6531 48.3932 23.5386Z" fill="#020202"/>
<path d="M37.1831 39.0584C36.768 39.5739 36.0562 39.173 35.6411 39.6884V39.5739C35.6411 39.3448 35.7004 39.0584 35.4038 38.9439C35.4038 38.8866 35.4038 38.8294 35.4038 38.8294C36.0562 38.4858 36.768 37.9704 37.1831 39.0584Z" fill="#9F9F9F"/>
<path d="M28.6426 38.1997C29.1764 38.5433 30.066 38.6006 29.6509 39.5742C28.5833 39.6314 28.4646 39.0015 28.6426 38.1997Z" fill="#ADADAD"/>
<path d="M28.9387 51.7724C28.6421 52.2306 28.1677 51.9442 27.7525 52.0015C27.5745 51.5433 27.8118 51.1997 27.9897 50.7988L28.049 50.8561L28.1083 50.7988C28.6421 50.9134 28.8794 51.257 28.9387 51.7724Z" fill="#383838"/>
<path d="M23.5415 31.1562C23.9567 30.9271 24.2532 29.8963 24.9057 30.9272C24.7871 31.2135 24.6684 31.4426 24.6091 31.7289C24.2532 31.9007 23.8974 32.1298 23.6008 32.3016C23.6008 31.8434 23.5415 31.4998 23.5415 31.1562Z" fill="#202020"/>
<path d="M28.1088 50.7993L28.0495 50.8566L27.9901 50.7993C27.5157 50.6848 27.0412 50.6848 26.626 51.0284C26.6853 50.5703 26.8039 50.0548 26.8632 49.5967C27.397 49.883 27.9308 50.1694 28.1088 50.7993Z" fill="#808080"/>
<path d="M24.6095 55.38C24.3723 54.8646 24.6095 54.521 25.1433 54.521C25.9737 54.5783 25.5585 55.2082 25.6178 55.6091C25.262 55.5518 24.8468 55.7809 24.6095 55.38Z" fill="#CECECE"/>
<path d="M38.4883 65.0591C38.9035 65.1736 39.2594 65.2309 39.6745 65.3454C39.6745 65.5745 39.7339 65.8608 39.378 66.0327C38.7849 65.8036 38.1918 65.5172 37.5986 65.2882C37.8952 65.0018 38.1917 65.1164 38.4883 65.0591Z" fill="#CECECE"/>
<path d="M17.8477 20.7324C19.805 21.1333 17.9663 21.706 17.9663 22.2214C17.6698 21.7633 17.9663 21.2478 17.8477 20.7324Z" fill="#202020"/>
<path d="M58.773 54.4066C58.4764 54.063 58.002 53.7767 58.002 53.204C58.4764 53.0895 59.0696 53.1467 59.3661 53.4903C59.5441 53.8912 58.8916 54.063 58.773 54.4066Z" fill="#808080"/>
<path d="M27.5751 27.834C27.16 27.1468 26.8634 26.4595 27.6938 25.8296C27.7531 26.5168 27.6938 27.204 27.5751 27.834Z" fill="#ADADAD"/>
<path d="M33.3877 11.8563C34.0401 11.7417 34.5739 11.9708 34.8705 12.5435C34.3367 12.5435 33.6843 12.8871 33.3877 12.0853C33.3877 12.0281 33.3877 11.9135 33.3877 11.8563Z" fill="#ADADAD"/>
<path d="M36.5307 11.3405C36.59 11.5123 36.59 11.7414 36.6493 11.9132C36.5307 12.0277 36.4714 12.1422 36.3528 12.2568C36.2935 12.2568 36.1749 12.314 36.1155 12.314C35.8783 12.0277 35.6411 11.7986 35.4038 11.5123C35.6411 11.455 35.8783 11.3405 36.1749 11.2832C36.2935 11.2832 36.3528 11.2832 36.4714 11.2832C36.4121 11.3405 36.5307 11.3405 36.5307 11.3405Z" fill="#ADADAD"/>
<path d="M33.3878 11.8561C33.3878 11.9133 33.3878 12.0279 33.3878 12.0851C33.2098 12.4287 32.9726 12.6578 32.6167 12.3142C32.6167 12.0279 32.6167 11.6842 32.6167 11.3979C33.3878 10.7679 32.9133 12.0851 33.3878 11.8561Z" fill="#9F9F9F"/>
<path d="M37.8948 51.2573C38.2507 51.4291 38.6066 51.6582 38.5473 52.0591C38.4879 52.46 38.0134 52.1736 37.7169 52.3454C37.6576 51.9445 37.5983 51.6009 37.8948 51.2573Z" fill="#ADADAD"/>
<path d="M27.9904 30.0677C27.8124 30.2968 27.5752 30.5259 27.3973 30.6977C27.16 30.4686 26.6855 30.3541 26.7448 29.8959C27.0414 29.7241 27.3973 29.7241 27.7531 29.7241C27.9311 29.7814 27.9904 29.8959 27.9904 30.0677Z" fill="#808080"/>
<path d="M29.8883 43.0103C30.6 42.9531 30.5407 43.5257 30.6594 43.9839C30.1849 43.8121 29.6511 43.7548 29.8883 43.0103Z" fill="#9F9F9F"/>
<path d="M23.5412 31.1558C23.5412 31.4994 23.5412 31.9002 23.6006 32.2439C23.4819 32.4729 23.1854 32.4729 23.1854 32.2439C23.1261 31.843 22.9481 31.3276 23.5412 31.1558Z" fill="#ADADAD"/>
<path d="M54.2056 63.3408C54.3242 63.3408 54.4428 63.3408 54.5614 63.3981C54.7394 63.5126 55.0952 63.5126 55.0952 63.8562C55.0952 63.9708 54.9173 64.0853 54.7394 64.1426C54.3835 64.2571 54.3835 63.9135 54.2649 63.7417C54.2056 63.6272 54.2056 63.5126 54.2056 63.3408Z" fill="#CECECE"/>
<path d="M25.855 15.6928C25.4991 15.8646 25.2619 16.2082 24.8467 16.151C24.9653 15.521 25.3212 15.1774 25.9736 15.2347C25.9736 15.4065 25.9143 15.521 25.855 15.6928Z" fill="#202020"/>
<path d="M19.8646 57.499C19.8646 57.7281 19.8646 57.8999 19.8646 58.129C19.2715 58.4153 19.5088 57.8426 19.5088 57.7281C19.3902 57.499 19.6274 57.3845 19.8646 57.499Z" fill="#383838"/>
<path d="M49.3424 34.3057C49.0458 34.1911 48.8086 33.9621 48.4527 34.0193C48.3934 33.733 48.6307 33.6757 48.7493 33.5039C49.0458 33.7902 49.8762 33.5039 49.3424 34.3057Z" fill="#C3C3C3"/>
<path d="M32.6757 11.3981C32.6757 11.6844 32.6757 12.0281 32.6757 12.3144C32.4978 12.3144 32.3792 12.3144 32.2012 12.3144V12.2571C31.964 11.8562 32.1419 11.5699 32.4385 11.3408C32.4978 11.3408 32.5571 11.3408 32.6757 11.3981Z" fill="#ADADAD"/>
<path d="M31.7267 36.0805C31.5488 36.1951 31.3115 36.3096 31.1336 36.4241C31.015 36.1951 30.8963 35.9087 31.015 35.6224C31.7267 35.1642 31.7267 35.6224 31.7267 36.0805Z" fill="#808080"/>
<path d="M53.6719 62.8823C53.7312 63.9132 53.0788 62.9969 52.7822 63.2259C52.9602 62.7678 53.3753 62.9396 53.6719 62.8823C53.6719 62.8823 53.7312 62.8823 53.6719 62.8823Z" fill="#CECECE"/>
<path d="M24.6099 31.6709C24.7285 31.3846 24.8471 31.1555 24.9064 30.8691C25.1437 30.9264 25.2623 31.0409 25.2623 31.27C25.2623 31.6709 24.9064 31.6709 24.6099 31.6709Z" fill="#ADADAD"/>
<path d="M31.9048 63.3984C32.2607 63.3984 32.498 63.5702 32.6759 63.8566C32.0828 64.2002 31.8455 64.0284 31.9048 63.3984Z" fill="#F2F2F2"/>
<path d="M48.8679 32.8736C48.8086 32.8163 48.7493 32.7591 48.6899 32.7018C48.7493 32.4727 48.6306 32.1291 49.0458 31.8428C48.8679 32.3009 49.461 32.5873 48.8679 32.8736Z" fill="#C3C3C3"/>
<path d="M52.9605 51.772C52.5453 52.1157 52.1301 52.1729 51.9521 51.543C52.308 51.6002 52.6046 51.6575 52.9605 51.772Z" fill="#242424"/>
<path d="M31.9048 37.0544C31.9048 37.4553 31.6082 37.3408 31.4303 37.2262C31.2523 37.1689 31.1337 36.9971 31.2523 36.8826C31.371 36.7681 31.6082 36.7681 31.7861 36.7681C31.9641 36.8253 32.0234 36.8826 31.9048 37.0544Z" fill="#808080"/>
<path d="M17.374 17.6401C17.6113 17.8692 18.3823 17.9265 17.552 18.3846C17.3147 18.1555 17.4333 17.8692 17.374 17.6401Z" fill="#232323"/>
<path d="M18.8558 14.7763C18.6778 15.0053 18.3813 14.9481 18.144 14.9481C18.2034 14.2036 18.5592 14.719 18.8558 14.7763Z" fill="#232323"/>
<path d="M44.6568 63.5698C44.7755 63.5698 44.8348 63.5698 44.9534 63.6271C44.7755 63.7989 44.5975 63.9707 44.4196 64.1425C44.301 64.0852 44.2417 64.0852 44.123 64.028C44.123 63.6844 44.4196 63.6271 44.6568 63.5698Z" fill="#C3C3C3"/>
<path d="M26.3298 14.8908C26.2705 14.4899 26.6264 14.4899 26.8636 14.4326C26.8636 14.7762 26.6857 14.948 26.3298 14.8908Z" fill="#9F9F9F"/>
<path d="M28.7611 30.5259C28.6425 30.5259 28.4646 30.6404 28.3459 30.5832C28.1087 30.4686 28.168 30.2968 28.3459 30.125C28.5239 30.125 28.7018 30.2968 28.7611 30.5259Z" fill="#808080"/>
<path d="M34.5736 39.1152C34.6923 39.4588 34.5736 39.6306 34.2178 39.6306C34.2178 39.4588 34.2178 39.287 34.2178 39.1152C34.3364 39.1152 34.455 39.1152 34.5736 39.1152Z" fill="#ADADAD"/>
<path d="M34.9293 12.543C35.1072 12.6002 35.3445 12.6575 35.5224 12.7148C35.4631 12.9438 35.3445 13.0584 35.1072 13.0011C34.8107 12.8866 34.87 12.7148 34.9293 12.543Z" fill="#808080"/>
<path d="M22.3554 10.4242C22.2961 10.596 22.1774 10.6533 21.9995 10.5387C21.8216 10.3669 21.8809 10.1951 21.9995 10.0806C22.1181 10.1378 22.2368 10.2524 22.3554 10.4242Z" fill="#9F9F9F"/>
<path d="M23.8974 56.6401C23.8974 56.7547 23.8974 56.9265 23.8381 56.9265C23.7195 56.9838 23.6602 56.8692 23.6602 56.7547C23.6602 56.7547 23.7788 56.6974 23.8974 56.6401Z" fill="#383838"/>
<path d="M27.8726 9.10756C27.8131 9.22232 27.7537 9.33709 27.6943 9.39447C27.6348 9.33709 27.4565 9.22232 27.4565 9.22232C27.516 9.05018 27.6943 9.05018 27.8726 9.10756Z" fill="#ADADAD"/>
<path d="M20.3982 10.8252C20.5761 10.8825 20.6354 10.997 20.5168 11.1688C20.5168 11.1688 20.3982 11.1115 20.3389 11.1115C20.3982 10.997 20.3982 10.9397 20.3982 10.8252Z" fill="#9F9F9F"/>
<path d="M34.1587 47.6491C34.218 47.5346 34.218 47.4773 34.2773 47.3628C34.4553 47.4773 34.3366 47.5919 34.3366 47.7064H34.218L34.1587 47.6491Z" fill="#202020"/>
<path d="M52.1299 63.4551C52.1299 63.4551 52.0706 63.5124 52.0706 63.4551C52.0706 63.4551 52.0706 63.3978 52.0112 63.3405C52.0706 63.3405 52.1299 63.3405 52.1893 63.2832C52.1299 63.3405 52.1299 63.3978 52.1299 63.4551Z" fill="#CECECE"/>
<path d="M38.7861 8.36333C38.6673 8.36333 38.489 8.36333 38.3701 8.42071C38.4295 8.30594 38.4295 8.19117 38.489 8.13379C38.6078 8.19117 38.7267 8.24856 38.7861 8.36333Z" fill="#242424"/>
<path d="M18.1445 22.681C18.0851 22.681 18.0257 22.681 17.9662 22.681C17.8474 22.5088 17.9662 22.3941 18.0851 22.2793C18.0257 22.3941 18.0851 22.5662 18.1445 22.681Z" fill="#202020"/>
<path d="M18.9155 14.2612C19.0342 14.2612 19.2714 14.204 19.0342 14.4331C19.0342 14.3758 18.9748 14.3185 18.9155 14.2612Z" fill="#232323"/>
<path d="M40.0308 12.085C40.0308 12.0277 40.0308 11.9704 40.0308 11.9131L40.0901 11.9704C40.0901 12.0277 40.0308 12.0277 40.0308 12.085Z" fill="#9F9F9F"/>
<path d="M53.7313 51.8864C53.6719 51.9437 53.6126 52.001 53.6126 52.001C53.6126 51.9437 53.5532 51.8864 53.5532 51.8291C53.5532 51.8291 53.6719 51.8291 53.7313 51.8864Z" fill="#242424"/>
<path d="M37.4209 8.13309C37.1836 8.36217 37.1836 8.13309 37.1836 8.01855C37.2429 8.07582 37.3615 8.07582 37.4209 8.13309Z" fill="#242424"/>
<path d="M38.4291 8.41998C38.3698 8.59179 38.2512 8.59179 38.1919 8.41998C38.2512 8.36272 38.3105 8.41998 38.4291 8.41998Z" fill="#242424"/>
<path d="M36.4121 12.3143C36.5307 12.1998 36.59 12.0852 36.7087 11.9707C36.7087 12.1425 36.59 12.257 36.4121 12.3143Z" fill="#808080"/>
<path d="M54.2061 63.3993C54.1468 63.3412 54.1468 63.3412 54.0874 63.2832C54.1468 63.2832 54.1468 63.3412 54.2061 63.3993C54.2061 63.3993 54.2061 63.3412 54.2061 63.3993Z" fill="#CECECE"/>
<path d="M29.3543 42.3228C29.3543 42.3808 29.3543 42.3808 29.2949 42.4388C29.3543 42.3808 29.3543 42.3228 29.3543 42.3228C29.3543 42.3228 29.4136 42.3228 29.3543 42.3228Z" fill="#ADADAD"/>
<path d="M40.3862 27.72C40.4457 27.6053 40.5645 27.5479 40.6239 27.4331C40.6239 27.6053 40.6239 27.7774 40.5645 27.8922C40.5645 27.8348 40.4457 27.7774 40.3862 27.72Z" fill="#2E2E2E"/>
<path d="M44.7162 43.0676C44.4789 43.2967 44.5383 43.6976 44.1824 43.8694C44.1231 43.8694 44.0045 43.8121 43.9451 43.8121C43.8858 43.583 43.8265 43.5257 43.6486 43.7548C43.1741 43.583 43.1741 42.7813 42.403 43.0103C42.3437 42.8958 42.2844 42.8385 42.2251 42.724C42.2844 42.724 42.3437 42.6667 42.3437 42.5522C42.9962 41.5786 43.7079 41.9795 44.4196 42.5522C44.4196 42.724 44.4789 42.9531 44.7162 43.0676Z" fill="#ADADAD"/>
<path d="M42.4619 42.9529C43.1737 42.7239 43.233 43.5256 43.7075 43.6974C43.4109 44.4992 43.055 43.9838 42.8178 43.6974C42.5805 43.5829 42.5212 43.2393 42.4619 42.9529Z" fill="#202020"/>
<path d="M41.3945 55.1516C41.0979 54.9798 40.5641 54.9225 41.1572 54.4644C41.4538 54.4644 41.7503 54.5216 41.8096 54.8652C41.8689 55.0943 41.5724 55.0943 41.3945 55.1516Z" fill="#242424"/>
<path d="M42.2838 42.6665C42.2838 42.6665 42.2838 42.7238 42.2838 42.6665C42.2245 42.8956 42.2838 43.2392 41.9872 43.3537C41.75 43.0101 42.1058 42.8956 42.2838 42.6665Z" fill="#202020"/>
<path d="M50.4703 54.4062C50.4703 54.5784 50.4703 54.6932 50.4703 54.8653C50.3514 54.8079 50.1137 54.7506 50.1137 54.6932C49.9949 54.4636 50.292 54.4636 50.4703 54.4062Z" fill="#242424"/>
<path d="M45.6054 37.5693C45.6648 37.6266 45.7241 37.6266 45.7241 37.6839L45.6648 37.7411C45.6054 37.7411 45.5461 37.7411 45.4868 37.6839C45.5461 37.6839 45.6054 37.6266 45.6054 37.5693Z" fill="#2E2E2E"/>
<path d="M50.9443 55.1514C50.9443 55.2659 51.0036 55.4377 50.7663 55.4377C50.7663 55.4377 50.707 55.2659 50.707 55.1514H50.8257H50.9443Z" fill="#202020"/>
<path d="M50.9447 55.1514H50.8258H50.707C50.6475 55.094 50.5287 54.9793 50.4692 54.9219C50.6475 54.9219 50.8258 54.9219 50.9447 55.1514Z" fill="#242424"/>
<path d="M48.9272 41.8075C48.9866 41.6929 48.9866 41.5784 49.0459 41.4639C49.1052 41.4639 49.1052 41.5211 49.1645 41.5211C49.0459 41.6357 48.9866 41.7502 48.9272 41.8075Z" fill="#202020"/>
<path d="M47.4443 41.12C47.5036 41.0054 47.5036 40.8909 47.563 40.7764C47.6223 40.7764 47.6223 40.8336 47.6816 40.8336C47.563 40.9482 47.5036 41.0054 47.4443 41.12Z" fill="#202020"/>
<path d="M44.894 37.9703C44.9534 37.9703 44.9534 38.0276 45.0128 38.0276C45.0128 37.9703 44.9534 37.9703 44.894 37.9703C44.894 37.9703 44.9534 37.913 44.894 37.9703Z" fill="#2E2E2E"/>
<path d="M43.6484 43.7548C43.7671 43.4685 43.8264 43.583 43.945 43.8121C43.8264 43.7548 43.7077 43.7548 43.6484 43.7548Z" fill="#202020"/>
<path d="M46.1987 57.0981C46.2581 57.1562 46.2581 57.1562 46.3174 57.2142H46.2581C46.1987 57.1562 46.1987 57.0981 46.1987 57.0981Z" fill="#202020"/>
<path d="M46.1993 57.1C46.1399 57.0419 46.1399 57.0419 46.0806 56.9839H46.1399C46.1399 57.0419 46.1399 57.0419 46.1993 57.1Z" fill="#202020"/>
<path d="M48.3337 61.5077C47.1475 61.0495 46.0205 60.5341 44.775 61.3931C44.4784 61.6222 42.9956 60.4195 43.055 60.0187C43.1143 59.5032 43.2329 58.9878 43.2922 58.4724C43.9446 58.3579 43.8853 59.2169 44.5971 59.3314C45.4274 59.5032 45.6647 59.3887 45.7833 58.4724C46.1392 59.0451 46.7323 59.1024 46.9695 59.6751C47.1475 60.1332 47.444 60.7632 48.0964 60.0187C48.1558 59.9614 48.7489 59.7323 48.5709 60.0187C48.2744 60.5341 49.5792 60.4768 48.8082 60.935C48.6303 61.0495 48.5116 61.2786 48.3337 61.5077Z" fill="#808080"/>
<path d="M48.6899 63.856C48.2747 64.6577 47.8595 65.4595 46.7326 65.3449C46.3174 64.6005 47.0292 64.3714 47.4444 64.1423C47.8002 63.9705 48.2747 63.9705 48.6899 63.856Z" fill="#808080"/>
<path d="M44.4194 64.1426C44.5974 63.9708 44.7753 63.799 44.9532 63.6272C45.1905 63.57 45.4277 63.57 45.665 63.5127C46.1395 64.2572 45.4277 64.4863 45.0126 64.7153C44.4194 65.0017 44.4787 64.4863 44.4194 64.1426Z" fill="#020202"/>
<path d="M43.2331 58.4159C42.6993 58.7022 42.6993 59.1031 43.1145 59.7331C42.64 59.504 42.5214 59.2176 42.1655 59.2749C42.2842 58.874 42.3435 58.4731 42.4621 58.0723C42.9366 57.7286 43.1145 58.015 43.2331 58.4159Z" fill="#808080"/>
<path d="M50.4695 61.6797C50.5288 62.3669 50.0543 62.5387 49.5205 62.6533C49.6391 62.1951 49.995 61.9088 50.4695 61.6797Z" fill="#CBCBCB"/>
<path d="M46.1394 63.0541C46.08 62.8823 45.9614 62.7105 45.9614 62.6532C46.1394 62.4241 46.3766 62.7105 46.6139 62.6532C46.5545 62.825 46.7325 63.3977 46.1394 63.0541Z" fill="#C3C3C3"/>
<path d="M49.2837 57.6709C49.2243 57.7283 49.1648 57.7857 49.046 57.7857C48.9865 57.7857 48.9271 57.7283 48.8677 57.6709C48.9271 57.6135 48.9865 57.5562 49.046 57.5562C49.1648 57.6135 49.2243 57.6709 49.2837 57.6709Z" fill="#020202"/>
<path d="M46.9102 58.3005C46.9102 58.0714 46.9102 57.8424 46.9102 57.6133C47.266 57.7851 47.266 58.0714 46.9102 58.3005Z" fill="#020202"/>
<path d="M42.4027 56.1245C42.2841 56.1818 42.2248 56.239 42.1062 56.2963C42.1062 56.2963 42.0469 56.239 42.0469 56.1818C42.1655 56.1818 42.2841 56.1245 42.4027 56.1245Z" fill="#020202"/>
<path d="M49.105 57.1575H49.0457C49.0457 57.1575 49.0457 57.0981 48.9863 57.0981C49.0457 57.0981 49.105 57.0981 49.105 57.0981C49.105 57.0981 49.105 57.0981 49.105 57.1575Z" fill="#020202"/>
<path d="M48.9266 63.055C48.9266 63.055 48.9854 62.9961 48.9266 63.055H48.8677C48.9266 62.9961 48.9266 63.055 48.9266 63.055Z" fill="#C3C3C3"/>
<path d="M46.9102 58.3008C46.8509 58.3589 46.8509 58.3589 46.7915 58.4171C46.8509 58.3589 46.9102 58.3008 46.9102 58.3008Z" fill="#020202"/>
<path d="M44.7166 66.7202C44.6573 66.7202 44.5979 66.7202 44.5386 66.7202C44.5386 66.7202 44.5979 66.6609 44.5979 66.7202C44.6573 66.6609 44.6573 66.7202 44.7166 66.7202Z" fill="#ADADAD"/>
<path d="M20.1611 17.3534C20.9322 17.3534 21.2881 16.838 21.3474 16.2653C21.4067 15.5208 21.7032 15.5781 22.1777 15.9217C22.6522 16.2653 23.186 16.5516 23.6605 16.8952C24.0164 17.1816 24.135 17.5252 23.4826 17.5252C22.4743 17.4679 21.3474 17.7543 20.1611 17.3534Z" fill="#020202"/>
<path d="M36.1155 11.3405C35.8782 11.3978 35.641 11.5123 35.3444 11.5696C34.7513 10.6533 34.9292 10.0234 36.1155 9.85156C36.1748 10.367 36.1748 10.8251 36.1155 11.3405Z" fill="#9F9F9F"/>
<path d="M32.3792 11.2832C32.0233 11.5123 31.9047 11.7986 32.1419 12.1995C31.8454 12.2568 31.6081 12.3713 31.4302 12.0277C31.786 10.9969 31.8454 10.9396 32.3792 11.2832Z" fill="#9F9F9F"/>
<path d="M33.0324 9.96633C32.973 10.0811 32.9136 10.3106 32.7353 10.1959C32.6164 10.0811 32.7353 9.90895 32.8541 9.85156C32.9136 9.90895 32.973 9.90894 33.0324 9.96633Z" fill="#808080"/>
<path d="M39.7341 39.6318C39.6748 39.46 39.6748 39.3454 39.6154 39.1736C40.2679 38.7727 40.9203 38.4291 41.632 38.0855C42.5217 37.6274 42.9962 37.8564 43.53 38.4291C43.0555 38.83 42.6403 39.2882 42.1065 39.6318C41.5134 40.0327 40.9796 40.4335 41.0982 41.3498C40.4458 40.949 39.9713 40.6626 39.4968 40.3763C39.4375 40.1472 39.4375 39.9754 39.6748 39.8608C39.7934 39.8608 39.912 39.8608 40.0306 39.8036C39.912 39.7463 39.7934 39.689 39.7341 39.6318Z" fill="#020202"/>
<path d="M31.6674 41.4065C32.3199 42.0365 32.913 42.4946 33.4468 41.4638C33.5654 41.1774 33.9213 41.1774 33.9806 41.4638C34.0992 41.8647 34.2178 42.3801 33.8026 42.6664C33.2688 43.01 32.913 43.1818 33.4468 43.9836C33.9806 44.7281 32.9723 44.8426 32.3199 45.1863C32.735 43.7545 31.4895 42.781 31.6674 41.4065ZM32.8537 42.5519L32.7943 42.4946L32.735 42.5519C32.7943 42.6092 32.7943 42.6092 32.8537 42.6664C32.7943 42.6092 32.8537 42.5519 32.8537 42.5519Z" fill="#020202"/>
<path d="M44.7162 43.0674C44.4789 42.9528 44.4196 42.781 44.4789 42.5519C44.7162 42.4947 44.9534 42.3229 44.8941 42.1511C44.8348 41.6929 44.7755 41.2348 45.4279 41.4066C45.7838 41.5211 46.6734 41.3493 46.3769 42.2656C46.3176 42.4947 46.5548 42.781 46.6734 43.0101C47.2073 42.8955 46.9107 42.4374 47.3852 42.0365C46.9107 42.781 47.9783 43.1246 47.3259 43.6973C47.1479 43.8691 46.7921 44.0982 46.7328 43.9264C46.2583 43.1246 45.3686 43.3537 44.7162 43.0674Z" fill="#808080"/>
<path d="M29.3545 37.5693C29.4138 37.6266 29.4138 37.6266 29.4731 37.6839L29.4138 37.7411C29.3545 37.7411 29.2952 37.6839 29.2358 37.6839C29.2358 37.6266 29.2952 37.6266 29.3545 37.5693Z" fill="#2E2E2E"/>
<path d="M38.4882 65.0591C38.1917 65.1164 37.8951 65.0018 37.6579 65.2882C35.2854 64.4864 33.1502 62.9402 30.6591 62.4248C30.5405 61.9666 30.2439 61.8521 29.8287 61.6803C28.6425 61.1648 27.4563 60.764 26.3887 60.0195C26.5073 59.504 26.6852 59.0459 27.397 59.0459C27.9901 59.6759 28.8204 59.9622 29.5322 60.5349C29.8881 60.8785 30.837 60.1913 31.1336 61.1076C32.0826 60.5922 32.3198 61.6803 32.9723 61.9093C34.4551 62.7111 35.7599 63.7419 37.4206 64.1428C37.4799 64.7155 38.3103 64.4864 38.4882 65.0591Z" fill="#F2F2F2"/>
<path d="M37.3024 64.1426C35.6416 63.7417 34.3368 62.7109 32.854 61.9091C32.9133 61.7373 32.9133 61.5082 32.9726 61.3364C33.803 61.8518 35.0485 61.3364 35.6416 62.4245C36.0568 63.2836 36.2941 61.68 36.7093 62.31C36.6499 62.9972 37.1837 63.5126 37.3024 64.1426Z" fill="#CECECE"/>
<path d="M25.9147 56.5828C26.2112 56.6401 26.745 56.0101 26.8637 56.8119C26.923 56.9264 26.9823 57.041 27.0416 57.0982C27.0416 57.1555 27.0416 57.2128 27.1009 57.27C26.9823 57.4419 26.923 57.6137 26.8043 57.7855C26.1519 57.7282 26.9823 58.2436 26.5671 58.3582C26.3892 58.4154 26.5078 58.9881 26.0333 58.9881C25.5588 58.9881 25.3809 58.7018 25.3809 58.3009C25.3809 57.9 25.8554 57.4991 25.6181 57.041C25.6774 56.9264 25.796 56.7546 25.9147 56.5828Z" fill="#FDFDFD"/>
<path d="M26.6261 51.028C27.0413 50.6844 27.5158 50.6844 27.9902 50.799C27.8123 51.1999 27.5751 51.5435 27.753 52.0016C27.3971 52.6316 27.0413 53.2615 26.6261 53.9488C25.9737 52.8606 27.0413 51.9443 26.6261 51.028Z" fill="#CBCBCB"/>
<path d="M30.6591 56.1248C30.5998 56.2966 30.6591 56.5257 30.3625 56.5257C30.3032 56.5257 30.2439 56.4684 30.1846 56.4111C30.1253 56.1821 30.3625 56.0675 30.5405 56.0103C30.5405 56.0103 30.5998 56.0675 30.6591 56.1248Z" fill="#242424"/>
<path d="M27.1004 57.3277C27.1004 57.2704 27.041 57.2131 27.041 57.1558C27.1004 57.1558 27.1597 57.1558 27.2191 57.2131C27.2191 57.2131 27.1597 57.2704 27.1004 57.3277Z" fill="#C3C3C3"/>
<path d="M24.194 24.6265C24.5499 25.0846 25.0837 25.0846 25.2023 25.6C24.7871 25.6 25.0837 26.4018 24.6092 26.1155C24.194 25.8864 24.0754 25.371 24.194 24.6265Z" fill="#202020"/>
<path d="M22.5928 25.085C23.1859 24.7987 23.4824 24.856 23.7197 25.4859C23.3045 25.4859 23.008 25.4287 22.5928 25.085Z" fill="#202020"/>
<path d="M24.0161 26.2305C24.0161 26.2878 24.0755 26.2878 24.0755 26.3451C24.0755 26.4024 24.0161 26.4024 24.0161 26.4024C23.9568 26.3451 24.0161 26.2878 24.0161 26.2305Z" fill="#202020"/>
<path d="M26.3887 60.019C27.4563 60.7635 28.6426 61.1644 29.8288 61.6798C30.244 61.8516 30.5405 62.0234 30.6592 62.4243C30.6592 62.5388 30.6592 62.5961 30.6592 62.7106C30.5999 62.7679 30.5405 62.8252 30.4812 62.8824C29.1764 61.7943 27.5156 61.3934 26.0329 60.5917C26.0329 60.5344 26.0329 60.4771 26.0329 60.4199C26.0329 60.4771 26.0329 60.5344 25.9735 60.5917C25.8549 60.5917 25.7363 60.5917 25.6177 60.6489C25.6177 60.4199 25.6177 60.1908 25.6177 59.9617C25.8549 59.9044 26.0922 59.9617 26.3887 60.019Z" fill="#2E2E2E"/>
<path d="M25.6177 57.041C25.855 57.4992 25.4398 57.9 25.3805 58.3009C25.0246 58.4155 24.5501 57.4992 24.1942 58.3582C23.3639 57.671 24.4908 57.5564 24.5501 57.0983C24.906 57.3274 25.2618 57.0983 25.6177 57.041Z" fill="#808080"/>
<path d="M25.6178 59.8473C25.6178 60.0764 25.6178 60.3054 25.6178 60.5345C25.084 61.1645 24.5502 60.3627 24.313 60.5345C24.7875 60.7636 24.9061 59.7328 25.6178 59.8473Z" fill="#808080"/>
<path d="M30.4214 62.8256C30.4807 62.7683 30.54 62.7111 30.5993 62.6538C30.7773 62.8256 31.1331 62.7683 31.1331 63.112C30.8959 63.112 30.4214 63.5701 30.4214 62.8256Z" fill="#FDFDFD"/>
<path d="M23.0078 57.3849C23.1264 57.3849 23.2451 57.3276 23.3637 57.3276C23.3044 57.5567 23.1857 57.6713 23.0078 57.3849Z" fill="#383838"/>
<path d="M25.9736 60.5347C25.9736 60.4774 25.9736 60.4201 26.033 60.3628C25.9736 60.4201 25.9736 60.4774 25.9736 60.5347Z" fill="#808080"/>
<path d="M43.4704 61.4502C43.8856 62.0802 43.8263 62.5383 43.2925 62.8819C43.1738 62.9965 43.0552 63.0537 42.9366 62.8819C42.4621 62.1947 43.4111 62.0802 43.4704 61.4502Z" fill="#808080"/>
<path d="M40.9204 10.8828C40.7424 10.8828 40.6238 10.8828 40.4459 10.8828C40.2086 10.5964 40.0307 10.3101 39.7935 10.0237C40.9204 9.96645 40.9797 10.0237 40.9204 10.8828Z" fill="#9F9F9F"/>
<path d="M40.1495 26.8604C40.1495 26.8604 40.2088 26.8604 40.2088 26.9177C40.1495 26.975 40.1495 26.975 40.0901 27.0323L40.0308 26.975C40.0901 26.9177 40.1495 26.8604 40.1495 26.8604Z" fill="#242424"/>
<path d="M35.4041 38.9438C35.7007 39.0584 35.6414 39.3447 35.6414 39.5738C35.2262 39.4593 35.4041 39.1729 35.4041 38.9438Z" fill="#ADADAD"/>
<path d="M39.7339 39.6318C39.7932 39.6891 39.9118 39.7464 39.9711 39.8036C39.8525 39.8036 39.7339 39.8036 39.6152 39.8609C39.6745 39.8036 39.6745 39.6891 39.7339 39.6318Z" fill="#2E2E2E"/>
<path d="M36.5308 11.3409H36.4121C36.4121 11.2836 36.4715 11.2263 36.4715 11.1689C36.5308 11.2263 36.5308 11.2836 36.5308 11.3409Z" fill="#808080"/>
<path d="M32.8538 42.5524C32.8538 42.6097 32.8538 42.6097 32.7945 42.667C32.7351 42.6097 32.7351 42.6097 32.6758 42.5524L32.7351 42.4951C32.7945 42.4951 32.7945 42.4951 32.8538 42.5524Z" fill="#202020"/>
</svg>
