<?xml version="1.0" encoding="utf-8"?>
<!-- Generator: Adobe Illustrator 16.0.4, SVG Export Plug-In . SVG Version: 6.00 Build 0)  -->
<!DOCTYPE svg PUBLIC "-//W3C//DTD SVG 1.1//EN" "http://www.w3.org/Graphics/SVG/1.1/DTD/svg11.dtd">
<svg version="1.1" id="Ebene_1" xmlns="http://www.w3.org/2000/svg" xmlns:xlink="http://www.w3.org/1999/xlink" x="0px" y="0px"
	 width="141.73px" height="24.038px" viewBox="0 0 141.73 24.038" enable-background="new 0 0 141.73 24.038" xml:space="preserve">
<g>
	<path d="M-0.001,20.683l2.776-4.182c1.863,1.617,3.796,2.426,5.799,2.426c1.37,0,2.073-0.422,2.073-1.23
		c0-0.457-0.351-0.809-1.054-1.09c-0.105-0.033-0.808-0.246-2.144-0.701c-1.3-0.457-2.214-0.773-2.671-0.984
		c-2.425-1.125-3.619-2.883-3.619-5.273c0-1.827,0.738-3.304,2.179-4.428c1.44-1.159,3.408-1.722,5.833-1.722
		c2.777,0,5.167,0.844,7.24,2.531l-2.671,4.076c-1.617-1.089-3.163-1.651-4.674-1.651c-1.019,0-1.757,0.491-1.757,1.089
		c0,0.632,0.598,1.089,1.757,1.407c1.863,0.525,3.408,1.088,4.569,1.686c2.354,1.16,3.303,2.669,3.303,4.919
		c0,1.898-0.738,3.443-2.249,4.674c-1.511,1.195-3.515,1.793-6.08,1.793C5.2,24.022,2.353,22.899-0.001,20.683"/>
	<path d="M38.403,15.798H24.556c0.703,2.039,2.285,3.059,4.745,3.059c2.143,0,4.076-0.598,5.869-1.793l2.425,4.184
		c-2.495,1.791-5.342,2.67-8.575,2.67c-3.444,0-6.08-0.984-7.943-2.918c-1.862-1.967-2.776-4.357-2.776-7.203
		c0-2.917,0.949-5.341,2.882-7.275c1.933-1.933,4.428-2.917,7.485-2.917c2.882,0,5.272,0.879,7.135,2.601
		c1.862,1.722,2.811,4.112,2.811,7.099C38.614,14.112,38.544,14.921,38.403,15.798 M24.486,11.546h8.224
		c-0.527-1.863-1.968-2.987-4.042-2.987C26.525,8.56,25.154,9.543,24.486,11.546"/>
	<path d="M43.448,21.071c-1.898-1.898-2.847-4.324-2.847-7.311c0-2.987,0.949-5.412,2.882-7.31c1.933-1.899,4.428-2.847,7.52-2.847
		c4.042,0,7.592,1.968,9.243,5.659l-4.955,2.6c-0.984-1.651-2.355-2.495-4.147-2.495c-1.3,0-2.355,0.422-3.198,1.265
		c-0.808,0.843-1.23,1.898-1.23,3.128c0,2.566,1.862,4.463,4.358,4.463c1.792,0,3.444-0.984,4.147-2.496l4.955,2.953
		c-1.687,3.232-5.166,5.236-9.278,5.236C47.841,23.917,45.381,22.968,43.448,21.071"/>
	<path d="M61.975,4.165h6.221v10.93c0,1.936,1.23,3.234,3.091,3.234c1.935,0,3.128-1.299,3.128-3.234V4.165h6.223v10.862
		c0,5.729-3.551,8.961-9.351,8.961c-5.797,0-9.312-3.232-9.312-8.961V4.165z"/>
	<path d="M101.669,23.495h-6.221v-11c0-1.934-1.23-3.234-3.093-3.234c-1.933,0-3.128,1.3-3.128,3.234v11h-6.221V12.564
		c0-5.728,3.551-8.961,9.349-8.961s9.313,3.233,9.313,8.961V23.495z"/>
	<path d="M123.979,15.798h-13.848c0.703,2.039,2.283,3.059,4.744,3.059c2.145,0,4.076-0.598,5.869-1.793l2.424,4.184
		c-2.494,1.791-5.342,2.67-8.574,2.67c-3.443,0-6.08-0.984-7.941-2.918c-1.863-1.967-2.777-4.357-2.777-7.203
		c0-2.917,0.949-5.341,2.883-7.275c1.932-1.933,4.428-2.917,7.484-2.917c2.88,0,5.271,0.879,7.135,2.601
		c1.863,1.722,2.811,4.112,2.811,7.099C124.188,14.112,124.118,14.921,123.979,15.798 M110.062,11.546h8.223
		c-0.525-1.863-1.967-2.987-4.041-2.987C112.101,8.56,110.729,9.543,110.062,11.546"/>
	<path d="M141.731,22.405c-1.793,1.055-3.867,1.582-6.187,1.582c-4.813,0-7.204-2.67-7.204-8.014V9.296h-2.951V4.165h3.021V0h6.15
		v4.165h6.08v5.131h-6.08v5.941c0,2.072,0.809,3.092,2.461,3.092c0.914,0,1.932-0.281,3.057-0.879L141.731,22.405z"/>
</g>
</svg>
