<?xml version="1.0" encoding="UTF-8"?>
<svg width="77mm" height="21mm" version="1.1" viewBox="0 0 77 21" xmlns="http://www.w3.org/2000/svg">
 <g stroke-width=".26458">
  <text fill="#000000" font-family="'Work Sans Black'" style="shape-inside:url(#rect835);white-space:pre" xml:space="preserve"/>
  <g transform="translate(-160.29 -60.808)" fill="#050505" style="shape-inside:url(#rect841);white-space:pre" aria-label="Determinate Systems">
   <path d="m160.3 69.529 1.836-7.92h3.132q1.2 0 1.992 0.408 0.792 0.396 1.188 1.128 0.396 0.72 0.396 1.704 0 1.068-0.288 1.932t-0.864 1.476q-0.564 0.612-1.38 0.948-0.816 0.324-1.884 0.324zm3.264-1.992h0.66q0.492 0 0.84-0.252 0.36-0.252 0.576-0.66t0.312-0.888q0.108-0.492 0.108-0.96 0-0.384-0.12-0.648t-0.36-0.396-0.612-0.132h-0.504z"/>
   <path d="m172.34 69.637q-0.924 0-1.656-0.324-0.72-0.324-1.128-0.936-0.408-0.624-0.408-1.476 0-1.056 0.432-1.836 0.444-0.792 1.236-1.224 0.804-0.432 1.872-0.432 0.972 0 1.656 0.348 0.684 0.336 1.032 0.936 0.36 0.6 0.36 1.392 0 0.228-0.024 0.48t-0.096 0.492h-4.584l-0.012-1.02h2.688l-0.66 0.252q0.06-0.168 0.06-0.276 0.012-0.108 0.012-0.204 0-0.228-0.072-0.348-0.06-0.132-0.168-0.18-0.108-0.06-0.24-0.06-0.312 0-0.516 0.18-0.192 0.18-0.3 0.468-0.096 0.288-0.132 0.612t-0.036 0.6 0.096 0.444 0.264 0.24q0.18 0.072 0.396 0.072 0.312 0 0.48-0.156 0.18-0.168 0.252-0.384l2.304 0.744q-0.18 0.504-0.636 0.864t-1.092 0.552q-0.636 0.18-1.38 0.18z"/>
   <path d="m179.02 69.649q-0.852 0-1.44-0.276-0.588-0.288-0.828-0.852-0.228-0.576-0.036-1.44l1.116-4.824 2.94-0.768-1.272 5.484q-0.12 0.408 0.084 0.648 0.216 0.228 0.696 0.228 0.264 0 0.396-0.024 0.144-0.024 0.264-0.06l-0.336 1.656q-0.336 0.12-0.756 0.168-0.408 0.06-0.828 0.06zm-2.952-4.26 0.432-1.86h5.292l-0.432 1.86z"/>
   <path d="m184.95 69.637q-0.924 0-1.656-0.324-0.72-0.324-1.128-0.936-0.408-0.624-0.408-1.476 0-1.056 0.432-1.836 0.444-0.792 1.236-1.224 0.804-0.432 1.872-0.432 0.972 0 1.656 0.348 0.684 0.336 1.032 0.936 0.36 0.6 0.36 1.392 0 0.228-0.024 0.48t-0.096 0.492h-4.584l-0.012-1.02h2.688l-0.66 0.252q0.06-0.168 0.06-0.276 0.012-0.108 0.012-0.204 0-0.228-0.072-0.348-0.06-0.132-0.168-0.18-0.108-0.06-0.24-0.06-0.312 0-0.516 0.18-0.192 0.18-0.3 0.468-0.096 0.288-0.132 0.612t-0.036 0.6 0.096 0.444 0.264 0.24q0.18 0.072 0.396 0.072 0.312 0 0.48-0.156 0.18-0.168 0.252-0.384l2.304 0.744q-0.18 0.504-0.636 0.864t-1.092 0.552q-0.636 0.18-1.38 0.18z"/>
   <path d="m188.33 69.529 1.392-6h2.484l-0.516 2.712-0.06-0.276q0.192-0.756 0.492-1.332t0.768-0.9q0.48-0.324 1.164-0.324 0.204 0 0.336 0.036 0.132 0.024 0.216 0.072l-0.636 2.256q-0.12-0.06-0.288-0.096t-0.444-0.036q-0.324 0-0.648 0.144-0.312 0.132-0.564 0.444-0.24 0.312-0.372 0.852l-0.564 2.448z"/>
   <path d="m193.76 69.529 1.392-6h2.46l-0.36 2.292-0.096-0.24q0.252-1.032 0.888-1.596 0.636-0.576 1.56-0.576 0.612 0 1.02 0.276 0.408 0.264 0.564 0.756t0 1.176l-0.912 3.912h-2.76l0.816-3.48q0.06-0.276-0.048-0.432-0.096-0.168-0.336-0.168-0.168 0-0.3 0.096-0.132 0.084-0.228 0.264-0.084 0.168-0.144 0.432l-0.756 3.288zm7.524 0 0.816-3.48q0.06-0.276-0.048-0.432-0.096-0.168-0.336-0.168-0.168 0-0.3 0.096-0.132 0.084-0.228 0.264-0.084 0.168-0.144 0.432l-0.12-0.66q0.252-1.032 0.876-1.596 0.624-0.576 1.512-0.576 0.636 0 1.056 0.276 0.42 0.264 0.576 0.756 0.168 0.492 0.012 1.176l-0.912 3.912z"/>
   <path d="m207.93 63.145q-0.684 0-1.056-0.252-0.36-0.252-0.264-0.864 0.096-0.672 0.468-0.924 0.384-0.264 1.116-0.264 0.708 0 1.068 0.264 0.372 0.252 0.276 0.816-0.096 0.732-0.492 0.984-0.384 0.24-1.116 0.24zm1.176 0.384-1.392 6h-2.76l1.392-6z"/>
   <path d="m208.64 69.529 1.392-6h2.46l-0.36 2.292-0.096-0.24q0.252-1.032 0.888-1.596 0.636-0.576 1.56-0.576 0.612 0 1.02 0.276 0.408 0.264 0.564 0.756t0 1.176l-0.912 3.912h-2.76l0.816-3.48q0.06-0.276-0.048-0.432-0.096-0.168-0.336-0.168-0.168 0-0.3 0.096-0.132 0.084-0.228 0.264-0.084 0.168-0.144 0.432l-0.756 3.288z"/>
   <path d="m218.38 69.649q-0.528 0-0.972-0.24-0.432-0.252-0.684-0.744-0.252-0.504-0.252-1.272 0-0.708 0.192-1.416t0.564-1.284q0.372-0.588 0.912-0.936t1.236-0.348q0.312 0 0.636 0.12t0.576 0.408q0.252 0.276 0.336 0.792l0.276-1.2h2.76l-1.392 6h-2.52l0.204-1.14q-0.3 0.588-0.792 0.924-0.48 0.336-1.08 0.336zm1.32-1.944q0.216 0 0.384-0.168 0.168-0.18 0.276-0.456 0.12-0.276 0.168-0.564 0.06-0.3 0.06-0.528 0-0.204-0.06-0.336-0.048-0.144-0.156-0.216-0.096-0.072-0.252-0.072-0.252 0-0.432 0.192-0.168 0.18-0.276 0.456-0.108 0.264-0.168 0.552-0.048 0.276-0.048 0.456 0 0.204 0.048 0.36 0.06 0.156 0.168 0.24t0.288 0.084z"/>
   <path d="m227.02 69.649q-0.852 0-1.44-0.276-0.588-0.288-0.828-0.852-0.228-0.576-0.036-1.44l1.116-4.824 2.94-0.768-1.272 5.484q-0.12 0.408 0.084 0.648 0.216 0.228 0.696 0.228 0.264 0 0.396-0.024 0.144-0.024 0.264-0.06l-0.336 1.656q-0.336 0.12-0.756 0.168-0.408 0.06-0.828 0.06zm-2.952-4.26 0.432-1.86h5.292l-0.432 1.86z"/>
   <path d="m232.95 69.637q-0.924 0-1.656-0.324-0.72-0.324-1.128-0.936-0.408-0.624-0.408-1.476 0-1.056 0.432-1.836 0.444-0.792 1.236-1.224 0.804-0.432 1.872-0.432 0.972 0 1.656 0.348 0.684 0.336 1.032 0.936 0.36 0.6 0.36 1.392 0 0.228-0.024 0.48t-0.096 0.492h-4.584l-0.012-1.02h2.688l-0.66 0.252q0.06-0.168 0.06-0.276 0.012-0.108 0.012-0.204 0-0.228-0.072-0.348-0.06-0.132-0.168-0.18-0.108-0.06-0.24-0.06-0.312 0-0.516 0.18-0.192 0.18-0.3 0.468-0.096 0.288-0.132 0.612t-0.036 0.6 0.096 0.444 0.264 0.24q0.18 0.072 0.396 0.072 0.312 0 0.48-0.156 0.18-0.168 0.252-0.384l2.304 0.744q-0.18 0.504-0.636 0.864t-1.092 0.552q-0.636 0.18-1.38 0.18z"/>
   <path d="m188.98 79.285q-0.804 0-1.572-0.18-0.756-0.192-1.416-0.576t-1.188-0.972l1.392-1.656q0.336 0.384 0.804 0.684t0.972 0.48q0.504 0.168 0.948 0.168 0.228 0 0.348-0.048 0.132-0.06 0.192-0.144t0.06-0.192q0-0.132-0.132-0.216-0.12-0.096-0.408-0.192l-1.116-0.396q-0.492-0.18-0.936-0.468-0.444-0.3-0.72-0.756t-0.276-1.092q0-0.9 0.456-1.476 0.456-0.588 1.236-0.876t1.752-0.288q1.296 0 2.196 0.42 0.9 0.408 1.596 1.08l-1.476 1.608q-0.3-0.3-0.672-0.528-0.372-0.24-0.78-0.372t-0.828-0.132q-0.192 0-0.324 0.036-0.12 0.036-0.18 0.108t-0.06 0.18q0 0.144 0.18 0.252 0.18 0.096 0.48 0.204l1.02 0.36q0.924 0.324 1.416 0.852 0.504 0.516 0.504 1.404 0 0.864-0.456 1.476t-1.236 0.936q-0.78 0.312-1.776 0.312z"/>
   <path d="m193.52 81.709q-0.564 0-1.056-0.12-0.504-0.12-0.78-0.3l0.684-1.86q0.42 0.348 1.104 0.348 0.3 0 0.528-0.084 0.24-0.084 0.348-0.252l0.036-0.06-1.056-6.252h2.808l-0.072 3.096-0.072 1.44 0.564-1.452 1.236-3.084h2.88l-3.408 6.048q-0.516 0.924-1.056 1.476-0.528 0.564-1.176 0.804-0.648 0.252-1.512 0.252z"/>
   <path d="m203.01 79.249q-0.612 0-1.26-0.156t-1.2-0.444q-0.552-0.3-0.924-0.732l1.152-1.272q0.372 0.372 0.888 0.648 0.528 0.276 0.972 0.276 0.204 0 0.3-0.048 0.108-0.06 0.108-0.156 0-0.084-0.072-0.144-0.06-0.072-0.228-0.12l-0.504-0.168q-0.996-0.336-1.404-0.756t-0.408-1.104 0.36-1.14q0.372-0.456 1.008-0.684 0.636-0.24 1.44-0.24 0.996 0 1.764 0.3t1.284 0.792l-1.068 1.32q-0.192-0.192-0.492-0.36t-0.636-0.264q-0.336-0.108-0.672-0.108-0.156 0-0.228 0.048t-0.072 0.132 0.06 0.144q0.072 0.06 0.228 0.108l1.08 0.348q0.648 0.204 0.996 0.612 0.36 0.408 0.36 1.02 0 0.66-0.336 1.14-0.324 0.48-0.96 0.744-0.624 0.264-1.536 0.264z"/>
   <path d="m209.51 79.249q-0.852 0-1.44-0.276-0.588-0.288-0.828-0.852-0.228-0.576-0.036-1.44l1.116-4.824 2.94-0.768-1.272 5.484q-0.12 0.408 0.084 0.648 0.216 0.228 0.696 0.228 0.264 0 0.396-0.024 0.144-0.024 0.264-0.06l-0.336 1.656q-0.336 0.12-0.756 0.168-0.408 0.06-0.828 0.06zm-2.952-4.26 0.432-1.86h5.292l-0.432 1.86z"/>
   <path d="m215.44 79.237q-0.924 0-1.656-0.324-0.72-0.324-1.128-0.936-0.408-0.624-0.408-1.476 0-1.056 0.432-1.836 0.444-0.792 1.236-1.224 0.804-0.432 1.872-0.432 0.972 0 1.656 0.348 0.684 0.336 1.032 0.936 0.36 0.6 0.36 1.392 0 0.228-0.024 0.48t-0.096 0.492h-4.584l-0.012-1.02h2.688l-0.66 0.252q0.06-0.168 0.06-0.276 0.012-0.108 0.012-0.204 0-0.228-0.072-0.348-0.06-0.132-0.168-0.18-0.108-0.06-0.24-0.06-0.312 0-0.516 0.18-0.192 0.18-0.3 0.468-0.096 0.288-0.132 0.612t-0.036 0.6 0.096 0.444 0.264 0.24q0.18 0.072 0.396 0.072 0.312 0 0.48-0.156 0.18-0.168 0.252-0.384l2.304 0.744q-0.18 0.504-0.636 0.864t-1.092 0.552q-0.636 0.18-1.38 0.18z"/>
   <path d="m218.83 79.129 1.392-6h2.46l-0.36 2.292-0.096-0.24q0.252-1.032 0.888-1.596 0.636-0.576 1.56-0.576 0.612 0 1.02 0.276 0.408 0.264 0.564 0.756t0 1.176l-0.912 3.912h-2.76l0.816-3.48q0.06-0.276-0.048-0.432-0.096-0.168-0.336-0.168-0.168 0-0.3 0.096-0.132 0.084-0.228 0.264-0.084 0.168-0.144 0.432l-0.756 3.288zm7.524 0 0.816-3.48q0.06-0.276-0.048-0.432-0.096-0.168-0.336-0.168-0.168 0-0.3 0.096-0.132 0.084-0.228 0.264-0.084 0.168-0.144 0.432l-0.12-0.66q0.252-1.032 0.876-1.596 0.624-0.576 1.512-0.576 0.636 0 1.056 0.276 0.42 0.264 0.576 0.756 0.168 0.492 0.012 1.176l-0.912 3.912z"/>
   <path d="m233.31 79.249q-0.612 0-1.26-0.156t-1.2-0.444q-0.552-0.3-0.924-0.732l1.152-1.272q0.372 0.372 0.888 0.648 0.528 0.276 0.972 0.276 0.204 0 0.3-0.048 0.108-0.06 0.108-0.156 0-0.084-0.072-0.144-0.06-0.072-0.228-0.12l-0.504-0.168q-0.996-0.336-1.404-0.756t-0.408-1.104 0.36-1.14q0.372-0.456 1.008-0.684 0.636-0.24 1.44-0.24 0.996 0 1.764 0.3t1.284 0.792l-1.068 1.32q-0.192-0.192-0.492-0.36t-0.636-0.264q-0.336-0.108-0.672-0.108-0.156 0-0.228 0.048t-0.072 0.132 0.06 0.144q0.072 0.06 0.228 0.108l1.08 0.348q0.648 0.204 0.996 0.612 0.36 0.408 0.36 1.02 0 0.66-0.336 1.14-0.324 0.48-0.96 0.744-0.624 0.264-1.536 0.264z"/>
  </g>
  <text fill="#000000" font-family="'Work Sans Black'" style="shape-inside:url(#rect847);white-space:pre" xml:space="preserve"/>
 </g>
</svg>
