<svg width="135" height="28" viewBox="0 0 135 28" fill="none" xmlns="http://www.w3.org/2000/svg">
<g clip-path="url(#clip0_8:800)">
<path d="M25.6603 28H1.93142C0.882936 28 0 27.1058 0 26.0439V1.95609C0 0.894212 0.827753 0 1.93142 0H25.7155C26.7088 0 27.5918 0.894212 27.5918 1.95609V26.0439C27.5918 27.1058 26.764 28 25.6603 28Z" fill="white"/>
<path fill-rule="evenodd" clip-rule="evenodd" d="M25.6603 0H1.93142C0.882936 0 0 0.897796 0 1.96393V9.6513L13.1337 5.72345C13.6303 7.96794 12.5267 10.2124 10.6504 10.7735L1.10367 13.6353L0 13.9719V18.5731L9.10528 15.8798L16.8862 13.5792L9.10528 15.8798L17.3828 13.4108C19.3142 12.8497 21.356 14.2525 21.9079 16.5531C22.1838 17.6192 22.0734 18.7976 21.6319 19.8076C21.4112 20.2565 21.1353 20.7054 20.749 21.0421C20.3627 21.3788 19.9212 21.6593 19.4798 21.7715L17.2173 22.4449L17.5484 22.3327L15.6169 22.8938C16.1136 25.1383 15.0099 27.3828 13.1337 27.9439L12.9129 28H25.7155C26.764 28 27.5918 27.1583 27.5918 26.0922V1.96393C27.5918 0.897796 26.7088 0 25.6603 0ZM1.43477 27.9439C0.607019 27.7194 0 26.99 0 26.0922V22.8938L3.14546 21.9399L11.0367 19.6393C11.4782 19.5271 11.9748 19.4709 12.4715 19.5832C12.9681 19.6954 13.4096 19.8637 13.7959 20.1443C14.6788 20.7615 15.2858 21.7154 15.5618 22.7816C15.5618 22.8377 15.5618 22.8377 15.5618 22.8938V22.9499L17.1621 22.501L15.5618 22.9499L11.1471 24.2405L3.31101 26.5411C2.81436 26.7094 2.37289 26.9339 2.04179 27.2705C1.82106 27.495 1.60032 27.7194 1.43477 27.9439ZM0 13.9719L1.10367 13.6353L0 13.9719Z" fill="#0075E0"/>
<path d="M42.0893 21.3783C40.7156 21.3783 39.5617 21.0437 38.6276 20.4303C37.6935 19.817 37.0342 18.9806 36.6495 17.9211L38.9573 16.5272C39.5068 17.9769 40.5508 18.646 42.1442 18.646C42.9135 18.646 43.4629 18.4787 43.7926 18.1999C44.1223 17.9211 44.3421 17.5866 44.3421 17.1405C44.3421 16.6387 44.1223 16.2484 43.6827 15.9696C43.2432 15.6908 42.4739 15.412 41.375 15.0774C40.7705 14.9101 40.2211 14.6871 39.7815 14.5198C39.3419 14.3525 38.9024 14.0737 38.5177 13.7949C38.0782 13.4604 37.7485 13.07 37.5287 12.624C37.3089 12.1221 37.199 11.5645 37.199 10.9512C37.199 9.6687 37.6386 8.66502 38.5177 7.94015C39.3969 7.21527 40.4958 6.82495 41.7046 6.82495C42.8036 6.82495 43.7926 7.10375 44.6718 7.66135C45.496 8.21895 46.1553 8.99958 46.6499 9.9475L44.3421 11.2857C43.7926 10.059 42.9135 9.50142 41.7046 9.50142C41.1552 9.50142 40.7156 9.61294 40.3859 9.89174C40.0562 10.1705 39.8914 10.5051 39.8914 10.8954C39.8914 11.3415 40.0562 11.6761 40.4409 11.9549C40.8255 12.2336 41.4849 12.5124 42.5288 12.847C42.9684 12.9585 43.2432 13.07 43.4629 13.1816C43.6827 13.2373 43.9575 13.3488 44.3421 13.5161C44.7267 13.6834 45.0015 13.7949 45.2212 13.9622C45.441 14.0737 45.6608 14.2968 45.9355 14.5198C46.2103 14.7428 46.3751 14.9659 46.54 15.2447C46.7048 15.4677 46.8147 15.8023 46.8696 16.1368C46.9795 16.4714 47.0345 16.8617 47.0345 17.252C47.0345 18.5345 46.5949 19.5939 45.6608 20.3188C44.7817 20.9879 43.5728 21.3783 42.0893 21.3783Z" fill="#212121"/>
<path d="M55.2215 11.1185H57.7491V21.0995H55.2215V19.9843C54.6171 20.9322 53.6281 21.3783 52.3094 21.3783C51.2104 21.3783 50.3313 20.988 49.617 20.2631C48.9027 19.5382 48.573 18.5346 48.573 17.1963V11.0627H51.1005V16.8618C51.1005 17.5309 51.2654 18.0327 51.65 18.3673C51.9797 18.7018 52.4742 18.9249 53.0786 18.9249C53.738 18.9249 54.2875 18.7018 54.6721 18.3115C55.0567 17.9212 55.2765 17.2521 55.2765 16.4714L55.2215 11.1185Z" fill="#212121"/>
<path d="M65.8263 10.8396C67.145 10.8396 68.2989 11.3414 69.233 12.3451C70.1671 13.3488 70.6616 14.6313 70.6616 16.081C70.6616 17.5308 70.1671 18.8133 69.233 19.8169C68.2989 20.8206 67.145 21.3224 65.8263 21.3224C64.4526 21.3224 63.4086 20.8206 62.6394 19.8727V25.0583H60.1118V11.1184H62.6394V12.2894C63.4086 11.2857 64.4526 10.8396 65.8263 10.8396ZM63.4086 18.1441C63.9032 18.646 64.5625 18.9248 65.3867 18.9248C66.156 18.9248 66.8153 18.646 67.3648 18.1441C67.8593 17.6423 68.1341 16.9174 68.1341 16.1368C68.1341 15.3004 67.8593 14.6313 67.3648 14.1294C66.8703 13.6276 66.2109 13.3488 65.3867 13.3488C64.6175 13.3488 63.9581 13.6276 63.4086 14.1294C62.9141 14.6313 62.6394 15.3561 62.6394 16.1368C62.6394 16.9174 62.9141 17.5865 63.4086 18.1441Z" fill="#212121"/>
<path d="M74.5629 17.1404C74.8925 18.3671 75.8266 19.0363 77.3652 19.0363C78.3542 19.0363 79.0685 18.7017 79.563 18.0326L81.5961 19.2593C80.607 20.7091 79.1784 21.3782 77.3102 21.3782C75.6618 21.3782 74.398 20.8763 73.409 19.8727C72.4199 18.869 71.9254 17.5865 71.9254 16.081C71.9254 14.5755 72.4199 13.293 73.409 12.2893C74.398 11.2857 75.6069 10.7838 77.1454 10.7838C78.574 10.7838 79.7828 11.2857 80.7169 12.2893C81.651 13.293 82.1455 14.5755 82.1455 16.0252C82.1455 16.3598 82.0906 16.6944 82.0356 17.0847L74.5629 17.1404ZM74.5629 15.1331H79.563C79.3982 14.464 79.1235 13.9621 78.6839 13.6276C78.2443 13.293 77.6948 13.1257 77.1454 13.1257C76.486 13.1257 75.8816 13.293 75.442 13.6276C75.0024 14.0179 74.6728 14.5197 74.5629 15.1331Z" fill="#212121"/>
<path d="M86.4314 12.7912C86.6512 12.1778 87.0358 11.676 87.5853 11.3414C88.1347 11.0069 88.7392 10.8396 89.3985 10.8396V13.7391C88.6293 13.6276 87.9149 13.7949 87.3105 14.2409C86.7061 14.6313 86.3764 15.3561 86.3764 16.3041V21.0994H83.8489V11.1184H86.3764L86.4314 12.7912Z" fill="#212121"/>
<path d="M95.2229 21.3782C93.7393 21.3782 92.4755 20.8764 91.4865 19.8727C90.4974 18.869 90.0029 17.5866 90.0029 16.1368C90.0029 14.6871 90.4974 13.4046 91.4865 12.4009C92.4755 11.3972 93.7393 10.8954 95.2229 10.8954C96.1569 10.8954 97.0361 11.1184 97.8603 11.6203C98.6295 12.0663 99.234 12.7355 99.6735 13.5161L97.4757 14.7986C97.2559 14.4083 96.9811 14.0737 96.5965 13.7949C96.2119 13.5719 95.7723 13.4603 95.2229 13.4603C94.4536 13.4603 93.8492 13.7391 93.3547 14.241C92.8601 14.7428 92.5854 15.4119 92.5854 16.1926C92.5854 16.9732 92.8601 17.6423 93.3547 18.1442C93.8492 18.646 94.5085 18.9248 95.2229 18.9248C95.7174 18.9248 96.2119 18.8133 96.5965 18.5902C96.9811 18.3672 97.3108 18.0326 97.4757 17.6423L99.6735 18.9248C99.234 19.7054 98.6295 20.3188 97.8603 20.8206C97.0361 21.1552 96.1569 21.3782 95.2229 21.3782Z" fill="#212121"/>
<path d="M102.97 17.1404C103.3 18.3671 104.234 19.0363 105.773 19.0363C106.762 19.0363 107.476 18.7017 107.971 18.0326L110.004 19.2593C109.014 20.7091 107.586 21.3782 105.718 21.3782C104.069 21.3782 102.805 20.8763 101.816 19.8727C100.827 18.869 100.333 17.5865 100.333 16.081C100.333 14.5755 100.827 13.293 101.816 12.2893C102.805 11.2857 104.014 10.7838 105.553 10.7838C106.981 10.7838 108.19 11.2857 109.124 12.2893C110.058 13.293 110.553 14.5755 110.553 16.0252C110.553 16.3598 110.498 16.6944 110.443 17.0847L102.97 17.1404ZM102.97 15.1331H107.971C107.806 14.464 107.531 13.9621 107.091 13.6276C106.652 13.293 106.102 13.1257 105.553 13.1257C104.893 13.1257 104.289 13.293 103.849 13.6276C103.41 14.0179 103.08 14.5197 102.97 15.1331Z" fill="#212121"/>
<path d="M119.674 7.10376H122.202V21.0995H119.674V19.9285C118.905 20.8764 117.861 21.3783 116.487 21.3783C115.169 21.3783 114.015 20.8764 113.081 19.8728C112.147 18.8691 111.652 17.5866 111.652 16.1368C111.652 14.6871 112.147 13.4046 113.081 12.4009C114.015 11.3973 115.169 10.8954 116.487 10.8954C117.861 10.8954 118.905 11.3973 119.674 12.3452V7.10376ZM115.004 18.1442C115.498 18.646 116.158 18.9248 116.982 18.9248C117.751 18.9248 118.41 18.646 118.96 18.1442C119.454 17.6424 119.729 16.9175 119.729 16.1368C119.729 15.3005 119.454 14.6313 118.96 14.1295C118.465 13.6277 117.806 13.3489 116.982 13.3489C116.213 13.3489 115.553 13.6277 115.004 14.1295C114.509 14.6313 114.234 15.3562 114.234 16.1368C114.234 16.9175 114.509 17.5866 115.004 18.1442Z" fill="#212121"/>
<path d="M126.652 17.1404C126.982 18.3671 127.916 19.0363 129.455 19.0363C130.444 19.0363 131.158 18.7017 131.653 18.0326L133.686 19.2593C132.697 20.7091 131.268 21.3782 129.4 21.3782C127.751 21.3782 126.488 20.8763 125.499 19.8727C124.51 18.869 124.015 17.5865 124.015 16.081C124.015 14.5755 124.51 13.293 125.499 12.2893C126.488 11.2857 127.696 10.7838 129.235 10.7838C130.664 10.7838 131.872 11.2857 132.806 12.2893C133.741 13.293 134.235 14.5755 134.235 16.0252C134.235 16.3598 134.18 16.6944 134.125 17.0847L126.652 17.1404ZM126.598 15.1888H131.598C131.433 14.5197 131.158 14.0179 130.718 13.6833C130.279 13.3488 129.729 13.1815 129.18 13.1815C128.521 13.1815 127.916 13.3488 127.477 13.6833C127.037 14.0179 126.762 14.5197 126.598 15.1888Z" fill="#212121"/>
</g>
<defs>
<clipPath id="clip0_8:800">
<rect width="134.51" height="28" fill="white"/>
</clipPath>
</defs>
</svg>
